<?xml version="1.0" standalone="no"?>
<!DOCTYPE svg PUBLIC "-//W3C//DTD SVG 20010904//EN"
 "http://www.w3.org/TR/2001/REC-SVG-20010904/DTD/svg10.dtd">
<svg version="1.0" xmlns="http://www.w3.org/2000/svg"
 width="1920.000000pt" height="868.000000pt" viewBox="0 0 1920.000000 868.000000"
 preserveAspectRatio="xMidYMid meet">

<g transform="translate(0.000000,868.000000) scale(0.100000,-0.100000)"
fill="#000000" stroke="none">
<path d="M0 4340 l0 -4340 9600 0 9600 0 0 4340 0 4340 -9600 0 -9600 0 0
-4340z m1250 4104 c0 -3 -9 -19 -20 -34 -33 -47 -36 -107 -6 -165 27 -52 27
-67 1 -45 -58 48 -62 170 -7 233 15 17 32 23 32 11z m262 -26 c18 -26 23 -46
23 -98 0 -52 -5 -72 -23 -97 -23 -33 -42 -43 -42 -23 0 6 10 24 22 40 16 22
22 44 22 80 0 36 -6 58 -22 80 -12 16 -22 34 -22 40 0 20 19 10 42 -22z m-222
-17 c0 -5 -7 -22 -15 -37 -8 -16 -15 -36 -15 -44 0 -8 7 -28 15 -44 17 -33 19
-46 5 -46 -15 0 -40 56 -40 90 0 34 25 90 40 90 6 0 10 -4 10 -9z m185 -80 c0
-34 -6 -55 -19 -70 -28 -30 -37 -16 -16 24 19 37 15 80 -9 109 -19 22 2 27 23
6 16 -15 21 -33 21 -69z m-75 39 c11 -11 20 -29 20 -40 0 -26 -34 -60 -60 -60
-26 0 -60 34 -60 60 0 26 34 60 60 60 11 0 29 -9 40 -20z m15080 -30 c19 -19
20 -33 20 -230 0 -197 -1 -211 -20 -230 -20 -20 -33 -20 -745 -20 -712 0 -725
0 -745 20 -19 19 -20 33 -20 230 0 197 1 211 20 230 20 20 33 20 745 20 712 0
725 0 745 -20z m-9950 -160 c0 -57 1 -60 19 -50 30 15 66 12 92 -9 35 -28 34
-109 0 -145 -26 -28 -78 -35 -99 -14 -9 9 -12 9 -12 0 0 -7 -11 -12 -25 -12
l-25 0 0 145 0 145 25 0 c24 0 25 -3 25 -60z m385 25 c0 -22 -31 -33 -47 -17
-17 17 -1 44 24 40 15 -2 23 -10 23 -23z m718 13 c7 -21 -4 -38 -23 -38 -23 0
-34 16 -26 35 7 18 43 20 49 3z m-1653 -98 c13 -56 27 -95 30 -88 4 7 17 52
30 101 21 82 24 87 49 87 26 0 28 -5 52 -102 l26 -103 24 102 c22 93 26 103
47 103 28 0 28 -8 -11 -150 -32 -113 -33 -115 -61 -115 -28 0 -30 3 -53 89
-13 50 -25 91 -27 93 -1 2 -14 -38 -27 -89 -24 -90 -26 -93 -54 -93 -29 0 -30
1 -66 133 l-36 132 27 0 c25 0 27 -4 50 -100z m1470 -15 l0 -115 55 0 c48 0
55 -2 55 -20 0 -18 -7 -20 -75 -20 l-75 0 0 135 c0 128 1 135 20 135 19 0 20
-7 20 -115z m-6368 85 c20 -6 48 -24 62 -41 25 -30 26 -34 26 -185 l0 -154
-45 0 -45 0 0 119 c0 66 -4 131 -10 145 -19 50 -78 58 -120 16 -18 -18 -20
-34 -20 -150 l0 -130 -50 0 -50 0 0 190 0 190 45 0 c41 0 45 -2 45 -25 0 -31
3 -31 35 -1 23 22 41 30 80 35 6 0 27 -4 47 -9z m720 0 c20 -6 48 -24 62 -41
25 -30 26 -34 26 -185 l0 -154 -45 0 -45 0 0 123 c0 78 -5 131 -13 147 -16 32
-54 45 -90 31 -43 -17 -57 -63 -57 -191 l0 -110 -45 0 -45 0 0 190 0 190 45 0
c42 0 45 -2 45 -27 l0 -26 24 22 c21 19 62 38 91 40 6 1 27 -4 47 -9z m447 -1
c94 -21 141 -85 141 -190 0 -126 -68 -199 -185 -199 -126 0 -195 69 -195 194
0 108 46 174 136 195 52 12 52 12 103 0z m4771 -19 c0 -26 4 -30 26 -30 33 0
29 -33 -4 -38 -21 -3 -23 -8 -20 -55 3 -45 6 -52 26 -55 14 -2 22 -10 22 -23
0 -15 -7 -19 -33 -19 -47 0 -57 15 -57 87 0 49 -3 63 -15 63 -8 0 -15 9 -15
20 0 11 7 20 15 20 9 0 15 9 15 24 0 22 10 33 33 35 4 1 7 -12 7 -29z m880 0
c0 -26 4 -30 26 -30 33 0 30 -33 -4 -38 -20 -3 -22 -9 -22 -58 0 -51 1 -54 26
-54 38 0 28 -34 -11 -38 -47 -4 -58 10 -63 80 -3 39 -10 66 -18 71 -19 11 -18
37 1 37 9 0 15 9 15 24 0 22 10 30 43 35 4 0 7 -12 7 -29z m-6492 -172 l2
-188 -50 0 -50 0 0 191 0 190 48 -3 47 -3 3 -187z m5009 120 c12 -13 24 -38
28 -55 l7 -33 -66 0 c-52 0 -66 -3 -66 -15 0 -22 43 -36 79 -25 27 7 31 6 31
-10 0 -39 -98 -43 -135 -5 -36 35 -35 102 1 139 35 34 91 36 121 4z m403 1 c0
-17 -4 -20 -27 -15 -16 3 -35 1 -43 -4 -17 -12 -9 -20 49 -52 66 -36 24 -102
-61 -96 -36 2 -44 7 -46 26 -4 25 1 27 29 11 24 -12 59 -3 59 16 0 7 -13 17
-28 23 -34 12 -62 38 -62 58 0 29 38 54 85 54 39 0 45 -3 45 -21z m90 -74 c0
-88 -1 -95 -20 -95 -19 0 -20 7 -20 95 0 88 1 95 20 95 19 0 20 -7 20 -95z
m325 70 c16 -15 25 -36 25 -55 l0 -30 -65 0 c-65 0 -77 -7 -50 -30 17 -14 51
-17 83 -6 18 6 22 4 22 -12 0 -12 -9 -22 -22 -26 -71 -19 -130 8 -142 64 -7
37 14 93 41 109 33 19 82 13 108 -14z m395 -70 c0 -88 -1 -95 -20 -95 -19 0
-20 7 -20 95 0 88 1 95 20 95 19 0 20 -7 20 -95z m168 71 c3 -15 0 -18 -21
-12 -59 14 -79 -25 -22 -44 44 -14 61 -43 46 -76 -12 -26 -42 -37 -92 -32 -26
2 -35 8 -37 26 -3 20 -1 21 24 12 30 -12 64 -5 64 13 0 7 -19 21 -42 32 -80
37 -53 109 37 103 30 -2 41 -8 43 -22z m7816 -472 c24 -23 24 -465 0 -488 -14
-15 -468 -16 -4849 -16 -4381 0 -4835 1 -4849 16 -14 13 -16 50 -16 244 0 194
2 231 16 244 14 15 468 16 4849 16 4381 0 4835 -1 4849 -16z m870 -20 c14 -13
16 -48 16 -229 0 -181 -2 -216 -16 -229 -13 -14 -61 -16 -369 -16 -308 0 -356
2 -369 16 -14 13 -16 48 -16 229 0 181 2 216 16 229 13 14 61 16 369 16 308 0
356 -2 369 -16z m-15864 -533 c0 -25 3 -28 27 -23 35 7 53 -19 53 -75 0 -32
-4 -43 -15 -43 -11 0 -15 11 -15 39 0 43 -19 68 -38 49 -7 -7 -12 -29 -12 -50
0 -27 -4 -38 -15 -38 -12 0 -15 16 -15 85 0 69 3 85 15 85 10 0 15 -10 15 -29z
m130 -1 c0 -28 2 -29 32 -23 36 7 58 -14 58 -57 0 -38 -28 -59 -78 -58 l-42 0
0 84 c0 68 3 84 15 84 10 0 15 -10 15 -30z m550 -54 l0 -83 -45 -1 c-69 -2
-97 43 -59 97 12 17 24 22 45 19 26 -4 29 -2 29 24 0 18 5 28 15 28 12 0 15
-16 15 -84z m-965 49 c29 -28 31 -54 10 -94 -17 -33 -33 -41 -86 -41 l-39 0 0
80 0 80 45 0 c35 0 52 -6 70 -25z m123 -27 c7 -7 12 -33 12 -59 l0 -48 -41 2
c-68 3 -83 61 -19 73 16 4 30 11 30 17 0 5 -13 7 -30 4 -28 -6 -38 1 -23 16
11 11 58 8 71 -5z m112 -2 c0 -9 -8 -12 -25 -8 -15 2 -25 0 -25 -7 0 -6 11
-17 25 -23 29 -13 34 -52 9 -62 -28 -11 -64 -6 -64 8 0 9 8 12 25 8 14 -2 25
0 25 6 0 5 -11 17 -25 26 -26 17 -34 51 -12 59 26 11 67 7 67 -7z m381 4 c24
-13 26 -72 3 -94 -23 -24 -70 -20 -88 6 -42 60 19 123 85 88z m127 -51 l3 -57
-40 0 c-22 0 -45 5 -51 13 -18 22 -2 55 31 62 16 3 29 10 29 16 0 5 -13 7 -30
4 -16 -4 -30 -3 -30 2 0 16 15 22 50 19 l35 -3 3 -56z m102 50 c0 -5 -6 -9
-14 -9 -17 0 -26 -22 -26 -66 0 -24 -5 -34 -15 -34 -12 0 -15 13 -15 59 l0 59
35 0 c19 0 35 -4 35 -9z m12672 -576 c-1458 -2 -3846 -2 -5305 0 -1458 1 -265
2 2653 2 2918 0 4111 -1 2652 -2z m-12322 -227 c0 -21 6 -25 33 -28 31 -3 32
-5 32 -48 l0 -45 -47 -3 -48 -3 0 75 c0 61 3 76 15 76 9 0 15 -9 15 -24z m200
14 c0 -5 -7 -10 -15 -10 -8 0 -15 5 -15 10 0 6 7 10 15 10 8 0 15 -4 15 -10z
m-485 -40 c8 -50 19 -51 31 -3 12 50 40 56 49 11 11 -52 18 -55 30 -12 6 22
18 40 27 42 15 3 15 -3 -3 -65 -10 -37 -19 -69 -19 -70 0 -2 -8 -3 -19 -3 -14
0 -21 10 -25 35 -4 19 -11 35 -15 35 -5 0 -12 -16 -15 -35 -5 -25 -12 -35 -25
-35 -14 0 -23 17 -38 70 -20 66 -20 70 -3 70 13 0 20 -11 25 -40z m535 15 c0
-8 7 -15 15 -15 8 0 15 -4 15 -10 0 -5 -7 -10 -15 -10 -10 0 -15 -10 -15 -30
0 -20 5 -30 15 -30 8 0 15 -4 15 -10 0 -5 -11 -10 -25 -10 -22 0 -25 4 -25 39
0 22 -6 42 -12 45 -10 5 -10 7 0 12 6 3 12 12 12 20 0 8 5 14 10 14 6 0 10 -7
10 -15z m-300 -34 c17 -33 12 -41 -26 -41 -21 0 -33 -4 -29 -10 3 -5 17 -10
31 -10 13 0 24 -4 24 -10 0 -17 -77 -12 -84 6 -10 25 -7 59 6 72 19 19 66 15
78 -7z m200 5 c0 -9 -7 -12 -22 -9 -21 5 -20 3 6 -19 39 -32 30 -58 -19 -58
-25 0 -35 4 -35 15 0 12 7 14 28 10 26 -6 26 -6 8 9 -11 9 -23 16 -28 16 -10
0 -11 34 -1 43 13 13 63 7 63 -7z m50 -36 c0 -38 -4 -50 -15 -50 -11 0 -15 12
-15 50 0 38 4 50 15 50 11 0 15 -12 15 -50z m178 18 c3 -26 1 -28 -33 -28 -22
0 -34 -4 -30 -10 3 -5 19 -10 36 -10 16 0 29 -4 29 -10 0 -5 -18 -10 -40 -10
-33 0 -42 4 -52 25 -8 19 -8 31 0 51 10 21 18 25 50 22 32 -3 37 -7 40 -30z
m82 16 c0 -11 -6 -14 -20 -9 -11 3 -20 2 -20 -3 0 -5 9 -12 21 -15 15 -4 20
-12 17 -29 -2 -18 -10 -24 -35 -26 -24 -2 -33 1 -33 11 0 10 7 13 20 10 11 -3
20 -1 20 5 0 5 -9 12 -20 15 -19 5 -27 36 -13 50 14 14 63 7 63 -9z m11862
-291 c-1458 -2 -3846 -2 -5305 0 -1458 1 -265 2 2653 2 2918 0 4111 -1 2652
-2z m-12602 -318 c0 -60 -3 -75 -15 -75 -12 0 -15 15 -15 75 0 60 3 75 15 75
12 0 15 -15 15 -75z m50 65 c0 -5 -9 -10 -20 -10 -11 0 -20 5 -20 10 0 6 9 10
20 10 11 0 20 -4 20 -10z m810 -65 c0 -60 -3 -75 -15 -75 -12 0 -15 15 -15 75
0 60 3 75 15 75 12 0 15 -15 15 -75z m-910 55 c0 -5 -13 -10 -28 -10 -35 0
-52 -16 -52 -50 0 -34 17 -50 52 -50 15 0 28 -4 28 -10 0 -16 -72 -11 -92 7
-22 20 -24 71 -2 101 11 16 25 22 55 22 21 0 39 -4 39 -10z m550 -11 c14 -26
-11 -69 -40 -69 -15 0 -20 -7 -20 -25 0 -16 -6 -25 -15 -25 -12 0 -15 14 -15
70 l0 70 40 0 c29 0 42 -5 50 -21z m-180 -3 c0 -8 6 -17 13 -20 10 -5 10 -7 0
-12 -15 -7 -18 -64 -3 -64 6 0 10 -5 10 -11 0 -6 -10 -9 -22 -7 -18 2 -24 11
-26 38 -2 19 -9 39 -15 43 -9 6 -9 10 1 14 6 2 12 11 12 19 0 8 7 14 15 14 8
0 15 -6 15 -14z m-280 -66 c0 -27 -4 -50 -10 -50 -5 0 -10 23 -10 50 0 28 5
50 10 50 6 0 10 -22 10 -50z m108 38 c7 -7 12 -20 12 -30 0 -14 -8 -18 -36
-18 -21 0 -33 -4 -29 -10 3 -5 17 -10 31 -10 13 0 24 -4 24 -10 0 -14 -64 -12
-78 2 -7 7 -12 24 -12 38 0 33 17 50 50 50 14 0 31 -5 38 -12z m116 -10 c11
-41 7 -78 -8 -78 -10 0 -16 13 -18 38 -2 25 -8 37 -18 37 -10 0 -16 -12 -18
-37 -2 -25 -8 -38 -18 -38 -10 0 -14 13 -14 50 l0 50 44 0 c37 0 45 -4 50 -22z
m330 6 c3 -9 6 -31 6 -50 0 -34 -1 -34 -44 -34 -31 0 -46 5 -50 16 -9 23 11
44 41 44 14 0 21 4 18 10 -3 6 -17 7 -31 4 -23 -6 -32 5 -17 19 13 14 71 7 77
-9z m110 0 c3 -9 6 -31 6 -50 0 -49 -28 -46 -32 4 -2 25 -8 37 -18 37 -10 0
-16 -12 -18 -37 -2 -25 -8 -38 -18 -38 -10 0 -14 13 -14 50 l0 50 44 0 c31 0
46 -5 50 -16z m104 4 c7 -7 12 -20 12 -30 0 -14 -8 -18 -36 -18 -21 0 -33 -4
-29 -10 3 -5 17 -10 31 -10 13 0 24 -4 24 -10 0 -14 -64 -12 -78 2 -7 7 -12
24 -12 38 0 33 17 50 50 50 14 0 31 -5 38 -12z m11794 -255 c-1458 -2 -3846
-2 -5305 0 -1458 1 -265 2 2653 2 2918 0 4111 -1 2652 -2z m-12202 -358 c0
-43 -4 -75 -10 -75 -6 0 -10 32 -10 75 0 43 4 75 10 75 6 0 10 -32 10 -75z
m530 0 c0 -43 -4 -75 -10 -75 -6 0 -10 32 -10 75 0 43 4 75 10 75 6 0 10 -32
10 -75z m-1050 55 c0 -5 -12 -10 -27 -10 -31 0 -63 -26 -63 -51 0 -26 28 -49
61 -49 16 0 29 -5 29 -11 0 -6 -19 -9 -47 -7 -41 3 -50 7 -61 31 -15 32 -10
68 14 91 17 18 94 22 94 6z m695 -30 c0 -31 -4 -36 -32 -45 -25 -7 -33 -15
-33 -32 0 -14 -6 -23 -15 -23 -12 0 -15 15 -15 71 l0 70 48 -3 c47 -3 47 -3
47 -38z m-415 16 c0 -8 6 -17 13 -20 10 -5 10 -7 0 -12 -15 -7 -18 -64 -3 -64
6 0 10 -5 10 -11 0 -6 -10 -9 -22 -7 -18 2 -24 11 -26 38 -2 19 -9 39 -15 43
-9 6 -9 10 1 14 6 2 12 11 12 19 0 8 7 14 15 14 8 0 15 -6 15 -14z m-170 -41
c6 -16 6 -34 0 -51 -9 -22 -15 -25 -52 -22 -41 3 -43 5 -46 36 -5 52 3 62 48
62 34 0 42 -4 50 -25z m114 3 c11 -41 7 -78 -8 -78 -10 0 -16 13 -18 38 -2 25
-8 37 -18 37 -10 0 -16 -12 -18 -37 -2 -25 -8 -38 -18 -38 -10 0 -14 13 -14
50 l0 50 44 0 c37 0 45 -4 50 -22z m256 -3 c6 -16 6 -35 0 -51 -9 -22 -15 -25
-52 -22 -43 3 -43 3 -46 46 -2 23 -6 42 -11 42 -17 0 -31 -26 -31 -57 0 -23
-5 -33 -15 -33 -11 0 -15 12 -15 49 l0 50 80 0 c77 0 81 -1 90 -24z m308 -28
l3 -48 -43 3 c-38 3 -43 6 -43 28 0 20 6 26 28 28 15 2 27 8 27 14 0 6 -10 8
-25 4 -19 -5 -25 -2 -25 9 0 13 9 15 38 13 37 -3 37 -3 40 -51z m116 31 c11
-41 7 -78 -8 -78 -10 0 -16 13 -18 38 -2 25 -8 37 -18 37 -10 0 -16 -12 -18
-37 -2 -25 -8 -38 -18 -38 -10 0 -14 13 -14 50 l0 50 44 0 c37 0 45 -4 50 -22z
m104 -10 c3 -25 0 -28 -27 -28 -17 0 -31 -4 -31 -10 0 -5 14 -10 30 -10 17 0
30 -5 30 -11 0 -6 -17 -9 -42 -7 -41 3 -43 5 -46 36 -5 53 3 64 45 60 33 -3
38 -7 41 -30z m11714 -195 c-1458 -2 -3846 -2 -5305 0 -1458 1 -265 2 2653 2
2918 0 4111 -1 2652 -2z m-12712 -363 c0 -27 3 -30 30 -30 27 0 30 3 30 30 0
20 5 30 15 30 12 0 15 -14 15 -70 0 -56 -3 -70 -15 -70 -10 0 -15 10 -15 30 0
27 -3 30 -30 30 -27 0 -30 -3 -30 -30 0 -20 -5 -30 -15 -30 -12 0 -15 14 -15
70 0 56 3 70 15 70 10 0 15 -10 15 -30z m460 5 c0 -8 7 -15 15 -15 8 0 15 -4
15 -10 0 -5 -7 -10 -15 -10 -10 0 -15 -10 -15 -30 0 -20 5 -30 15 -30 8 0 15
-4 15 -10 0 -5 -11 -10 -25 -10 -22 0 -25 4 -25 39 0 22 -6 42 -12 45 -10 5
-10 7 0 12 6 3 12 12 12 20 0 8 5 14 10 14 6 0 10 -7 10 -15z m-252 -27 c9 -9
12 -9 12 0 0 24 28 11 35 -15 l7 -28 10 28 c12 35 36 35 45 0 l6 -28 10 28 c5
15 15 27 23 27 8 0 14 -1 14 -2 0 -2 -6 -23 -14 -48 -16 -53 -42 -65 -52 -23
l-7 28 -10 -28 c-12 -37 -37 -31 -53 13 -11 31 -13 32 -13 10 -1 -35 -19 -50
-56 -50 -38 0 -55 16 -55 50 0 34 17 50 55 50 17 0 36 -5 43 -12z m380 0 c7
-7 12 -24 12 -38 0 -34 -17 -50 -55 -50 -38 0 -55 16 -55 50 0 34 17 50 55 50
17 0 36 -5 43 -12z m112 -28 c0 -28 4 -40 14 -40 16 0 26 21 26 56 0 13 5 24
10 24 6 0 10 -23 10 -51 l0 -50 -42 3 -43 3 -3 48 c-2 37 0 47 12 47 12 0 16
-10 16 -40z m150 24 c0 -11 -6 -14 -20 -9 -11 3 -20 2 -20 -3 0 -5 9 -12 21
-15 15 -4 20 -12 17 -29 -2 -18 -10 -24 -35 -26 -24 -2 -33 1 -33 11 0 10 7
13 20 10 11 -3 20 -1 20 5 0 5 -9 12 -20 15 -19 5 -27 36 -13 50 14 14 63 7
63 -9z m98 4 c7 -7 12 -20 12 -30 0 -14 -8 -18 -36 -18 -21 0 -33 -4 -29 -10
3 -5 17 -10 31 -10 13 0 24 -4 24 -10 0 -14 -64 -12 -78 2 -7 7 -12 24 -12 38
0 33 17 50 50 50 14 0 31 -5 38 -12z m11764 -175 c-1458 -2 -3846 -2 -5305 0
-1458 1 -265 2 2653 2 2918 0 4111 -1 2652 -2z m0 -560 c-1458 -2 -3846 -2
-5305 0 -1458 1 -265 2 2653 2 2918 0 4111 -1 2652 -2z m0 -560 c-1458 -2
-3846 -2 -5305 0 -1458 1 -265 2 2653 2 2918 0 4111 -1 2652 -2z m4618 -241
c-14 -2 -20 -9 -16 -18 3 -8 9 -21 12 -29 11 -26 -12 -16 -25 11 -11 26 -12
26 -31 9 -20 -18 -20 -17 -20 56 l0 73 51 -49 c44 -44 48 -50 29 -53z m-4618
-319 c-1458 -2 -3846 -2 -5305 0 -1458 1 -265 2 2653 2 2918 0 4111 -1 2652
-2z m0 -560 c-1458 -2 -3846 -2 -5305 0 -1458 1 -265 2 2653 2 2918 0 4111 -1
2652 -2z m0 -560 c-1458 -2 -3846 -2 -5305 0 -1458 1 -265 2 2653 2 2918 0
4111 -1 2652 -2z m-6070 -211 c10 -4 -21 -7 -67 -7 -46 0 -77 3 -67 7 9 4 40
7 67 7 28 0 58 -3 67 -7z m630 0 c10 -4 -21 -7 -67 -7 -46 0 -77 3 -67 7 9 4
40 7 67 7 28 0 58 -3 67 -7z m620 0 c10 -4 -18 -7 -62 -7 -44 0 -72 3 -62 7 9
4 37 7 62 7 25 0 53 -3 62 -7z m650 0 c10 -4 -25 -7 -77 -7 -52 0 -87 3 -77 7
9 4 44 7 77 7 33 0 68 -3 77 -7z m740 0 c10 -4 -45 -7 -122 -7 -77 0 -132 3
-122 7 9 4 64 7 122 7 58 0 113 -3 122 -7z m788 -16 c49 -25 98 -74 123 -121
29 -53 30 -173 3 -225 -25 -49 -74 -98 -121 -123 -35 -19 -56 -22 -175 -22
-151 0 -184 10 -246 77 -54 57 -69 95 -69 178 0 83 15 121 69 178 63 68 109
82 261 79 93 -2 128 -7 155 -21z m682 16 c10 -4 -43 -7 -117 -7 -74 0 -127 3
-117 7 9 4 62 7 117 7 55 0 108 -3 117 -7z m650 0 c10 -4 -25 -7 -77 -7 -52 0
-87 3 -77 7 9 4 44 7 77 7 33 0 68 -3 77 -7z m740 0 c10 -4 -45 -7 -122 -7
-77 0 -132 3 -122 7 9 4 64 7 122 7 58 0 113 -3 122 -7z m730 0 c10 -4 -43 -7
-117 -7 -74 0 -127 3 -117 7 9 4 62 7 117 7 55 0 108 -3 117 -7z m740 0 c10
-4 -45 -7 -122 -7 -77 0 -132 3 -122 7 9 4 64 7 122 7 58 0 113 -3 122 -7z
m-7175 -42 c-27 -17 -60 -50 -77 -77 -17 -26 -30 -42 -30 -36 0 32 111 143
144 143 6 0 -11 -13 -37 -30z m286 4 c37 -25 97 -97 97 -117 0 -6 -13 10 -30
36 -17 27 -50 60 -77 77 -26 17 -43 30 -37 30 5 0 26 -12 47 -26z m344 -4
c-27 -17 -60 -50 -77 -77 -17 -26 -30 -42 -30 -36 0 32 111 143 144 143 6 0
-11 -13 -37 -30z m286 4 c37 -25 97 -97 97 -117 0 -6 -13 10 -30 36 -17 27
-50 60 -77 77 -26 17 -43 30 -37 30 5 0 26 -12 47 -26z m344 -4 c-27 -17 -60
-50 -77 -77 -17 -26 -30 -42 -30 -36 0 32 111 143 144 143 6 0 -11 -13 -37
-30z m276 4 c37 -25 97 -97 97 -117 0 -6 -13 10 -30 36 -17 27 -50 60 -77 77
-26 17 -43 30 -37 30 5 0 26 -12 47 -26z m344 -4 c-27 -17 -60 -50 -77 -77
-17 -26 -30 -42 -30 -36 0 32 111 143 144 143 6 0 -11 -13 -37 -30z m306 4
c37 -25 97 -97 97 -117 0 -6 -13 10 -30 36 -17 27 -50 60 -77 77 -26 17 -43
30 -37 30 5 0 26 -12 47 -26z m344 -4 c-27 -17 -60 -50 -77 -77 -17 -26 -30
-42 -30 -36 0 32 111 143 144 143 6 0 -11 -13 -37 -30z m396 4 c37 -25 97 -97
97 -117 0 -6 -13 10 -30 36 -17 27 -50 60 -77 77 -26 17 -43 30 -37 30 5 0 26
-12 47 -26z m1084 -4 c-27 -17 -60 -50 -77 -77 -17 -26 -30 -42 -30 -36 0 32
111 143 144 143 6 0 -11 -13 -37 -30z m386 4 c37 -25 97 -97 97 -117 0 -6 -13
10 -30 36 -17 27 -50 60 -77 77 -26 17 -43 30 -37 30 5 0 26 -12 47 -26z m344
-4 c-27 -17 -60 -50 -77 -77 -17 -26 -30 -42 -30 -36 0 32 111 143 144 143 6
0 -11 -13 -37 -30z m306 4 c37 -25 97 -97 97 -117 0 -6 -13 10 -30 36 -17 27
-50 60 -77 77 -26 17 -43 30 -37 30 5 0 26 -12 47 -26z m344 -4 c-27 -17 -60
-50 -77 -77 -17 -26 -30 -42 -30 -36 0 32 111 143 144 143 6 0 -11 -13 -37
-30z m396 4 c37 -25 97 -97 97 -117 0 -6 -13 10 -30 36 -17 27 -50 60 -77 77
-26 17 -43 30 -37 30 5 0 26 -12 47 -26z m344 -4 c-27 -17 -60 -50 -77 -77
-17 -26 -30 -42 -30 -36 0 32 111 143 144 143 6 0 -11 -13 -37 -30z m386 4
c37 -25 97 -97 97 -117 0 -6 -13 10 -30 36 -17 27 -50 60 -77 77 -26 17 -43
30 -37 30 5 0 26 -12 47 -26z m344 -4 c-27 -17 -60 -50 -77 -77 -17 -26 -30
-42 -30 -36 0 32 111 143 144 143 6 0 -11 -13 -37 -30z m396 4 c37 -25 97 -97
97 -117 0 -6 -13 10 -30 36 -17 27 -50 60 -77 77 -26 17 -43 30 -37 30 5 0 26
-12 47 -26z m-7368 -214 c0 -43 -3 -72 -7 -62 -11 28 -7 142 6 142 0 0 1 -36
1 -80z m514 0 c0 -25 -3 -53 -7 -62 -4 -10 -7 18 -7 62 0 44 3 72 7 62 4 -9 7
-37 7 -62z m116 0 c0 -43 -3 -72 -7 -62 -11 28 -7 142 6 142 0 0 1 -36 1 -80z
m514 0 c0 -25 -3 -53 -7 -62 -4 -10 -7 18 -7 62 0 44 3 72 7 62 4 -9 7 -37 7
-62z m116 0 c0 -43 -3 -72 -7 -62 -11 28 -7 142 6 142 0 0 1 -36 1 -80z m504
0 c0 -25 -3 -53 -7 -62 -4 -10 -7 18 -7 62 0 44 3 72 7 62 4 -9 7 -37 7 -62z
m116 0 c0 -43 -3 -72 -7 -62 -11 28 -7 142 6 142 0 0 1 -36 1 -80z m534 0 c0
-25 -3 -53 -7 -62 -4 -10 -7 18 -7 62 0 44 3 72 7 62 4 -9 7 -37 7 -62z m116
0 c0 -43 -3 -72 -7 -62 -11 28 -7 142 6 142 0 0 1 -36 1 -80z m624 0 c0 -25
-3 -53 -7 -62 -4 -10 -7 18 -7 62 0 44 3 72 7 62 4 -9 7 -37 7 -62z m856 0 c0
-43 -3 -72 -7 -62 -11 28 -7 142 6 142 0 0 1 -36 1 -80z m614 0 c0 -25 -3 -53
-7 -62 -4 -10 -7 18 -7 62 0 44 3 72 7 62 4 -9 7 -37 7 -62z m116 0 c0 -43 -3
-72 -7 -62 -11 28 -7 142 6 142 0 0 1 -36 1 -80z m534 0 c0 -25 -3 -53 -7 -62
-4 -10 -7 18 -7 62 0 44 3 72 7 62 4 -9 7 -37 7 -62z m116 0 c0 -43 -3 -72 -7
-62 -11 28 -7 142 6 142 0 0 1 -36 1 -80z m624 0 c0 -25 -3 -53 -7 -62 -4 -10
-7 18 -7 62 0 44 3 72 7 62 4 -9 7 -37 7 -62z m116 0 c0 -43 -3 -72 -7 -62
-11 28 -7 142 6 142 0 0 1 -36 1 -80z m614 0 c0 -25 -3 -53 -7 -62 -4 -10 -7
18 -7 62 0 44 3 72 7 62 4 -9 7 -37 7 -62z m116 0 c0 -43 -3 -72 -7 -62 -11
28 -7 142 6 142 0 0 1 -36 1 -80z m624 0 c0 -25 -3 -53 -7 -62 -4 -10 -7 18
-7 62 0 44 3 72 7 62 4 -9 7 -37 7 -62z m-7219 -20 c0 -40 -4 -70 -10 -70 -5
0 -10 25 -10 55 0 44 -3 53 -15 49 -24 -10 -17 12 8 24 12 6 23 11 25 11 1 1
2 -30 2 -69z m648 39 c2 -20 -6 -35 -30 -58 l-33 -31 32 0 c17 0 35 -4 38 -10
4 -6 -12 -10 -39 -10 -56 0 -60 17 -16 57 17 14 30 35 30 46 0 16 -5 18 -30
15 -16 -3 -30 -2 -30 2 0 14 16 21 45 18 24 -2 31 -8 33 -29z m623 15 c9 -11
10 -20 2 -32 -7 -12 -7 -22 1 -35 16 -25 -4 -51 -43 -55 -17 -2 -31 1 -31 7 0
6 14 11 30 11 23 0 30 4 30 20 0 13 -7 20 -19 20 -29 0 -35 18 -9 22 13 2 24
11 26 21 3 13 -3 17 -28 17 -18 0 -29 4 -25 10 10 15 51 12 66 -6z m1269 -54
c0 -40 -4 -70 -10 -70 -5 0 -10 25 -10 55 0 44 -3 53 -15 49 -20 -8 -19 6 3
22 29 22 32 17 32 -56z m130 60 c0 -5 -11 -10 -25 -10 -13 0 -29 -8 -34 -18
-9 -16 -6 -18 19 -14 39 6 59 -28 35 -64 -26 -41 -71 -29 -81 21 -6 33 8 73
30 87 16 11 56 10 56 -2z m1340 -60 c0 -40 -4 -70 -10 -70 -5 0 -10 25 -10 55
0 44 -3 53 -15 49 -20 -8 -19 6 3 22 29 22 32 17 32 -56z m120 55 c7 -8 10
-22 6 -31 -3 -8 -1 -24 4 -35 16 -29 -4 -59 -39 -59 -36 0 -55 22 -45 52 4 13
6 34 5 47 -4 38 44 56 69 26z m1280 -30 c0 -25 4 -45 9 -45 5 0 4 -11 -2 -25
-13 -28 -27 -33 -27 -10 0 10 -10 15 -29 15 -17 0 -32 3 -35 8 -5 9 62 102 75
102 5 0 9 -20 9 -45z m117 33 c-4 -7 -16 -39 -29 -70 -13 -32 -26 -58 -30 -58
-13 0 -9 23 12 69 11 24 20 45 20 47 0 2 -13 4 -30 4 -16 0 -30 5 -30 10 0 6
21 10 46 10 33 0 45 -4 41 -12z m613 -32 c0 -26 5 -47 13 -50 10 -5 10 -7 0
-12 -7 -3 -13 -12 -13 -20 0 -8 -4 -14 -10 -14 -5 0 -10 7 -10 15 0 10 -10 15
-30 15 -16 0 -30 4 -30 10 0 13 62 100 72 100 4 0 8 -20 8 -44z m110 29 c7 -8
10 -22 6 -31 -3 -8 -1 -24 4 -35 16 -29 -4 -59 -39 -59 -36 0 -55 22 -45 52 4
13 6 34 5 47 -4 38 44 56 69 26z m630 -30 c0 -25 4 -45 9 -45 5 0 4 -11 -2
-25 -13 -28 -27 -33 -27 -10 0 10 -10 15 -29 15 -17 0 -32 3 -35 8 -5 9 62
102 75 102 5 0 9 -20 9 -45z m108 33 c18 -18 15 -88 -5 -110 -17 -19 -63 -25
-63 -9 0 5 12 11 27 13 36 4 41 26 7 30 -37 4 -51 29 -36 62 13 28 49 35 70
14z m-5138 -118 c0 -5 -4 -10 -10 -10 -5 0 -10 5 -10 10 0 6 5 10 10 10 6 0
10 -4 10 -10z m40 0 c0 -5 -4 -10 -10 -10 -5 0 -10 5 -10 10 0 6 5 10 10 10 6
0 10 -4 10 -10z m40 0 c0 -5 -4 -10 -10 -10 -5 0 -10 5 -10 10 0 6 5 10 10 10
6 0 10 -4 10 -10z m2780 0 c0 -5 -7 -10 -15 -10 -8 0 -15 5 -15 10 0 6 7 10
15 10 8 0 15 -4 15 -10z m40 0 c0 -5 -4 -10 -10 -10 -5 0 -10 5 -10 10 0 6 5
10 10 10 6 0 10 -4 10 -10z m40 0 c0 -5 -4 -10 -10 -10 -5 0 -10 5 -10 10 0 6
5 10 10 10 6 0 10 -4 10 -10z m-4943 -130 c26 -17 42 -30 36 -30 -32 0 -143
111 -143 144 0 6 13 -11 30 -37 17 -27 50 -60 77 -77z m359 70 c-26 -39 -98
-100 -119 -100 -6 0 10 14 36 30 27 17 60 50 75 74 15 24 29 42 31 40 2 -2 -8
-22 -23 -44z m271 -70 c26 -17 42 -30 36 -30 -32 0 -143 111 -143 144 0 6 13
-11 30 -37 17 -27 50 -60 77 -77z m359 70 c-26 -39 -98 -100 -119 -100 -6 0
10 14 36 30 27 17 60 50 75 74 15 24 29 42 31 40 2 -2 -8 -22 -23 -44z m271
-70 c26 -17 42 -30 36 -30 -32 0 -143 111 -143 144 0 6 13 -11 30 -37 17 -27
50 -60 77 -77z m349 70 c-26 -39 -98 -100 -119 -100 -6 0 10 14 36 30 27 17
60 50 75 74 15 24 29 42 31 40 2 -2 -8 -22 -23 -44z m271 -70 c26 -17 42 -30
36 -30 -32 0 -143 111 -143 144 0 6 13 -11 30 -37 17 -27 50 -60 77 -77z m379
70 c-26 -39 -98 -100 -119 -100 -6 0 10 14 36 30 27 17 60 50 75 74 15 24 29
42 31 40 2 -2 -8 -22 -23 -44z m271 -70 c26 -17 42 -30 36 -30 -32 0 -143 111
-143 144 0 6 13 -11 30 -37 17 -27 50 -60 77 -77z m469 70 c-26 -39 -98 -100
-119 -100 -6 0 10 14 36 30 27 17 60 50 75 74 15 24 29 42 31 40 2 -2 -8 -22
-23 -44z m1011 -70 c26 -17 42 -30 36 -30 -32 0 -143 111 -143 144 0 6 13 -11
30 -37 17 -27 50 -60 77 -77z m459 70 c-26 -39 -98 -100 -119 -100 -6 0 10 14
36 30 27 17 60 50 75 74 15 24 29 42 31 40 2 -2 -8 -22 -23 -44z m271 -70 c26
-17 42 -30 36 -30 -32 0 -143 111 -143 144 0 6 13 -11 30 -37 17 -27 50 -60
77 -77z m379 70 c-26 -39 -98 -100 -119 -100 -6 0 10 14 36 30 27 17 60 50 75
74 15 24 29 42 31 40 2 -2 -8 -22 -23 -44z m271 -70 c26 -17 42 -30 36 -30
-32 0 -143 111 -143 144 0 6 13 -11 30 -37 17 -27 50 -60 77 -77z m469 70
c-26 -39 -98 -100 -119 -100 -6 0 10 14 36 30 27 17 60 50 75 74 15 24 29 42
31 40 2 -2 -8 -22 -23 -44z m271 -70 c26 -17 42 -30 36 -30 -32 0 -143 111
-143 144 0 6 13 -11 30 -37 17 -27 50 -60 77 -77z m459 70 c-26 -39 -98 -100
-119 -100 -6 0 10 14 36 30 27 17 60 50 75 74 15 24 29 42 31 40 2 -2 -8 -22
-23 -44z m271 -70 c26 -17 42 -30 36 -30 -32 0 -143 111 -143 144 0 6 13 -11
30 -37 17 -27 50 -60 77 -77z m469 70 c-26 -39 -98 -100 -119 -100 -6 0 10 14
36 30 27 17 60 50 75 74 15 24 29 42 31 40 2 -2 -8 -22 -23 -44z m-7124 -112
c-9 -4 -39 -7 -67 -7 -27 0 -58 3 -67 7 -10 4 21 7 67 7 46 0 77 -3 67 -7z
m630 0 c-9 -4 -39 -7 -67 -7 -27 0 -58 3 -67 7 -10 4 21 7 67 7 46 0 77 -3 67
-7z m620 0 c-9 -4 -37 -7 -62 -7 -25 0 -53 3 -62 7 -10 4 18 7 62 7 44 0 72
-3 62 -7z m650 0 c-9 -4 -44 -7 -77 -7 -33 0 -68 3 -77 7 -10 4 25 7 77 7 52
0 87 -3 77 -7z m740 0 c-9 -4 -64 -7 -122 -7 -58 0 -113 3 -122 7 -10 4 45 7
122 7 77 0 132 -3 122 -7z m1470 0 c-9 -4 -62 -7 -117 -7 -55 0 -108 3 -117 7
-10 4 43 7 117 7 74 0 127 -3 117 -7z m650 0 c-9 -4 -44 -7 -77 -7 -33 0 -68
3 -77 7 -10 4 25 7 77 7 52 0 87 -3 77 -7z m740 0 c-9 -4 -64 -7 -122 -7 -58
0 -113 3 -122 7 -10 4 45 7 122 7 77 0 132 -3 122 -7z m730 0 c-9 -4 -62 -7
-117 -7 -55 0 -108 3 -117 7 -10 4 43 7 117 7 74 0 127 -3 117 -7z m740 0 c-9
-4 -64 -7 -122 -7 -58 0 -113 3 -122 7 -10 4 45 7 122 7 77 0 132 -3 122 -7z
m-3800 -116 c10 -4 -18 -7 -62 -7 -44 0 -72 3 -62 7 9 4 37 7 62 7 25 0 53 -3
62 -7z m620 0 c10 -4 -18 -7 -62 -7 -44 0 -72 3 -62 7 9 4 37 7 62 7 25 0 53
-3 62 -7z m-815 -42 c-27 -17 -60 -50 -77 -77 -17 -26 -30 -42 -30 -36 0 32
111 143 144 143 6 0 -11 -13 -37 -30z m276 4 c37 -25 97 -97 97 -117 0 -6 -13
10 -30 36 -17 27 -50 60 -77 77 -26 17 -43 30 -37 30 5 0 26 -12 47 -26z m344
-4 c-27 -17 -60 -50 -77 -77 -17 -26 -30 -42 -30 -36 0 32 111 143 144 143 6
0 -11 -13 -37 -30z m276 4 c37 -25 97 -97 97 -117 0 -6 -13 10 -30 36 -17 27
-50 60 -77 77 -26 17 -43 30 -37 30 5 0 26 -12 47 -26z m-1008 -214 c0 -43 -3
-72 -7 -62 -11 28 -7 142 6 142 0 0 1 -36 1 -80z m504 0 c0 -25 -3 -53 -7 -62
-4 -10 -7 18 -7 62 0 44 3 72 7 62 4 -9 7 -37 7 -62z m116 0 c0 -43 -3 -72 -7
-62 -11 28 -7 142 6 142 0 0 1 -36 1 -80z m504 0 c0 -25 -3 -53 -7 -62 -4 -10
-7 18 -7 62 0 44 3 72 7 62 4 -9 7 -37 7 -62z m-888 -18 c-6 -11 -6 -24 0 -35
7 -11 7 -17 0 -17 -6 0 -14 8 -20 17 -10 19 2 53 20 53 6 0 6 -6 0 -18z m37
-1 c-9 -15 -9 -23 3 -37 12 -15 12 -17 0 -13 -25 9 -36 36 -22 53 19 23 34 20
19 -3z m584 2 c17 -15 17 -17 2 -35 -21 -22 -42 -24 -23 -2 10 12 10 20 1 35
-15 23 -5 25 20 2z m42 -5 c10 -17 -7 -48 -26 -48 -6 0 -5 7 3 16 10 13 10 19
0 36 -10 16 -10 19 0 16 7 -2 17 -11 23 -20z m-787 -188 c26 -17 42 -30 36
-30 -32 0 -143 111 -143 144 0 6 13 -11 30 -37 17 -27 50 -60 77 -77z m349 70
c-26 -39 -98 -100 -119 -100 -6 0 10 14 36 30 27 17 60 50 75 74 15 24 29 42
31 40 2 -2 -8 -22 -23 -44z m271 -70 c26 -17 42 -30 36 -30 -32 0 -143 111
-143 144 0 6 13 -11 30 -37 17 -27 50 -60 77 -77z m349 70 c-26 -39 -98 -100
-119 -100 -6 0 10 14 36 30 27 17 60 50 75 74 15 24 29 42 31 40 2 -2 -8 -22
-23 -44z m-774 -112 c-9 -4 -37 -7 -62 -7 -25 0 -53 3 -62 7 -10 4 18 7 62 7
44 0 72 -3 62 -7z m620 0 c-9 -4 -37 -7 -62 -7 -25 0 -53 3 -62 7 -10 4 18 7
62 7 44 0 72 -3 62 -7z"/>
<path d="M6541 8076 c-7 -8 -11 -32 -9 -53 3 -34 6 -38 33 -41 19 -3 33 2 42
14 16 22 17 66 1 82 -16 16 -53 15 -67 -2z"/>
<path d="M2164 8100 c-38 -16 -54 -50 -54 -118 0 -80 26 -112 90 -112 65 0 90
32 90 114 0 53 -4 70 -22 90 -25 29 -72 40 -104 26z"/>
<path d="M6338 8089 c-33 -19 -21 -39 22 -39 43 0 49 9 24 34 -18 19 -23 19
-46 5z"/>
<path d="M7162 8093 c-7 -2 -17 -13 -22 -24 -10 -17 -7 -19 36 -19 46 0 46 0
32 22 -16 24 -27 29 -46 21z"/>
<path d="M5922 7628 c-9 -9 -12 -76 -12 -238 0 -162 3 -229 12 -238 17 -17
9669 -17 9686 0 9 9 12 76 12 238 0 162 -3 229 -12 238 -17 17 -9669 17 -9686
0z m600 -210 c5 -50 -3 -118 -13 -118 -5 0 -9 34 -9 75 0 74 16 105 22 43z
m429 -25 c39 24 74 -27 49 -72 -8 -16 -19 -20 -45 -18 l-35 2 2 75 c1 41 3 58
5 38 4 -34 6 -36 24 -25z m189 47 c0 -5 -4 -10 -10 -10 -5 0 -10 5 -10 10 0 6
5 10 10 10 6 0 10 -4 10 -10z m-1040 -11 c0 -5 -5 -7 -10 -4 -16 10 -50 -5
-50 -20 0 -8 14 -21 30 -30 39 -20 42 -62 6 -71 -14 -3 -33 -1 -43 6 -16 10
-16 11 5 6 54 -11 71 24 23 48 -36 19 -45 41 -25 61 17 17 64 20 64 4z m1108
-30 c15 -1 15 -2 0 -6 -21 -5 -25 -62 -5 -82 10 -11 9 -13 -3 -9 -9 3 -16 20
-18 44 -2 21 -9 42 -15 46 -9 6 -9 8 1 8 6 0 13 8 13 18 1 16 2 16 6 0 2 -10
12 -19 21 -19z m-1010 -11 c23 -23 13 -38 -23 -38 -19 0 -35 -4 -35 -9 0 -16
30 -33 50 -28 11 3 18 1 14 -4 -8 -13 -48 -11 -62 3 -17 17 -15 54 4 72 19 19
36 20 52 4z m100 0 c7 -7 12 -29 12 -49 0 -36 -1 -37 -37 -36 -30 2 -38 6 -38
21 0 11 7 22 15 24 13 4 13 3 2 -10 -15 -19 0 -33 23 -24 18 7 20 36 3 36 -10
0 -9 3 1 9 20 13 3 33 -21 25 -14 -4 -18 -2 -14 5 9 15 39 14 54 -1z m76 -2
c-9 -7 -20 -30 -24 -52 l-8 -39 -1 50 c-1 47 1 50 25 51 22 2 23 1 8 -10z
m100 6 c3 -5 -4 -8 -16 -8 -28 1 -46 -28 -32 -51 7 -10 21 -18 32 -17 12 0 19
-3 16 -8 -8 -12 -38 -10 -52 4 -7 7 -12 24 -12 38 0 14 5 31 12 38 14 14 44
16 52 4z m102 -47 c1 -40 0 -42 -3 -10 -2 22 -12 46 -21 53 -16 13 -15 14 3
10 17 -3 20 -11 21 -53z m109 8 c5 -27 9 -33 16 -22 7 12 9 11 9 -3 0 -27 -19
-31 -29 -6 -16 43 -22 80 -13 74 6 -3 13 -22 17 -43z m63 -3 l9 -35 13 43 c18
56 24 47 8 -12 -14 -53 -26 -59 -35 -16 -6 31 -23 52 -23 29 0 -7 -3 -10 -6
-6 -3 3 -3 15 1 27 9 27 21 16 33 -30z m130 38 c23 -23 13 -38 -23 -38 -19 0
-35 -4 -35 -9 0 -16 30 -33 50 -28 11 3 18 1 14 -4 -8 -13 -48 -11 -62 3 -17
17 -15 54 4 72 19 19 36 20 52 4z m212 3 c0 -5 -9 -7 -20 -4 -27 7 -27 -23 1
-32 14 -5 19 -14 17 -28 -3 -24 -34 -35 -51 -18 -7 7 -4 8 10 5 21 -6 45 17
26 23 -6 2 -19 10 -29 17 -15 12 -16 16 -5 30 14 17 51 22 51 7z m50 -41 c0
-27 -4 -50 -10 -50 -5 0 -10 23 -10 50 0 28 5 50 10 50 6 0 10 -22 10 -50z
m156 42 c6 -4 13 -15 17 -24 5 -15 0 -18 -29 -18 -28 0 -35 -3 -32 -17 2 -12
13 -18 30 -18 15 1 24 -3 22 -7 -9 -13 -42 -9 -58 8 -38 37 7 106 50 76z m98
0 c3 -5 -4 -8 -16 -8 -31 1 -33 -19 -3 -32 28 -13 33 -37 9 -46 -24 -9 -44 -7
-44 5 0 5 5 7 10 4 6 -4 18 -4 28 0 14 5 12 10 -13 29 -19 15 -26 28 -22 39 7
18 42 23 51 9z"/>
<path d="M6940 7371 c-13 -26 4 -64 27 -59 25 5 40 35 27 56 -16 25 -41 26
-54 3z"/>
<path d="M6150 7375 c-11 -13 -8 -15 20 -15 21 0 30 4 28 13 -7 18 -33 20 -48
2z"/>
<path d="M6830 7375 c-11 -13 -8 -15 20 -15 21 0 30 4 28 13 -7 18 -33 20 -48
2z"/>
<path d="M7257 7384 c-14 -14 -6 -24 19 -24 16 0 24 5 22 13 -5 14 -31 21 -41
11z"/>
<path d="M15752 7608 c-17 -17 -17 -429 0 -446 17 -17 709 -17 726 0 17 17 17
429 0 446 -9 9 -103 12 -363 12 -260 0 -354 -3 -363 -12z m258 -238 c0 -40 -4
-70 -10 -70 -5 0 -10 25 -10 55 0 44 -3 53 -15 49 -24 -10 -17 12 8 24 12 6
23 11 25 11 1 1 2 -30 2 -69z m130 51 c5 -11 10 -34 10 -51 0 -43 -17 -70 -43
-70 -34 0 -47 19 -47 70 0 25 5 51 12 58 18 18 56 14 68 -7z m215 -31 l18 -20
24 22 c32 30 39 16 9 -18 -27 -32 -46 -28 -74 14 -18 28 -1 29 23 2z"/>
<path d="M16084 7407 c-3 -8 -4 -30 -2 -49 2 -25 8 -33 23 -33 17 0 20 7 20
45 0 35 -4 45 -18 48 -9 2 -20 -3 -23 -11z"/>
<path d="M758 7015 c-9 -21 -9 -29 5 -42 13 -13 19 -14 31 -3 19 15 21 41 4
58 -18 18 -27 15 -40 -13z"/>
<path d="M1222 7028 c-28 -28 3 -83 33 -58 8 7 15 20 15 29 0 17 -18 41 -30
41 -3 0 -11 -5 -18 -12z"/>
<path d="M250 7020 l0 -62 28 7 c37 9 45 19 45 55 0 36 -8 46 -45 55 l-28 7 0
-62z"/>
<path d="M404 6989 c-8 -14 11 -33 25 -25 6 4 11 14 11 22 0 16 -26 19 -36 3z"/>
<path d="M892 7028 c-27 -27 0 -77 34 -64 10 4 14 16 12 38 -3 35 -25 47 -46
26z"/>
<path d="M1014 6989 c-8 -14 11 -33 25 -25 6 4 11 14 11 22 0 16 -26 19 -36 3z"/>
<path d="M1534 6185 c-8 -21 2 -45 20 -45 17 0 28 24 20 45 -4 8 -13 15 -20
15 -8 0 -17 -7 -20 -15z"/>
<path d="M1425 6190 c-3 -5 3 -10 15 -10 12 0 18 5 15 10 -3 6 -10 10 -15 10
-5 0 -12 -4 -15 -10z"/>
<path d="M1845 6190 c-3 -5 3 -10 14 -10 12 0 21 5 21 10 0 6 -6 10 -14 10 -8
0 -18 -4 -21 -10z"/>
<path d="M1690 5615 c0 -23 2 -25 21 -15 23 13 21 33 -4 38 -12 3 -17 -4 -17
-23z"/>
<path d="M1345 5590 c-3 -5 3 -10 15 -10 12 0 18 5 15 10 -3 6 -10 10 -15 10
-5 0 -12 -4 -15 -10z"/>
<path d="M1785 5550 c-3 -5 1 -10 9 -10 8 0 18 5 21 10 3 6 -1 10 -9 10 -8 0
-18 -4 -21 -10z"/>
<path d="M2005 5590 c-3 -5 3 -10 15 -10 12 0 18 5 15 10 -3 6 -10 10 -15 10
-5 0 -12 -4 -15 -10z"/>
<path d="M1760 5015 c0 -27 6 -30 29 -16 17 11 7 41 -14 41 -9 0 -15 -9 -15
-25z"/>
<path d="M1166 4985 c-8 -22 4 -45 24 -45 20 0 32 23 24 45 -4 8 -14 15 -24
15 -10 0 -20 -7 -24 -15z"/>
<path d="M1536 4985 c-8 -22 4 -45 24 -45 10 0 20 7 24 15 8 22 -4 45 -24 45
-10 0 -20 -7 -24 -15z"/>
<path d="M1860 4950 c0 -5 7 -10 15 -10 8 0 15 5 15 10 0 6 -7 10 -15 10 -8 0
-15 -4 -15 -10z"/>
<path d="M2080 4990 c0 -5 7 -10 15 -10 8 0 15 5 15 10 0 6 -7 10 -15 10 -8 0
-15 -4 -15 -10z"/>
<path d="M1284 4386 c-9 -24 4 -48 23 -44 12 2 18 12 18 28 0 29 -32 41 -41
16z"/>
<path d="M1664 4386 c-9 -24 4 -48 23 -44 12 2 18 12 18 28 0 29 -32 41 -41
16z"/>
<path d="M2035 4390 c-3 -5 3 -10 15 -10 12 0 18 5 15 10 -3 6 -10 10 -15 10
-5 0 -12 -4 -15 -10z"/>
<path d="M10927 1210 c-57 -15 -90 -35 -129 -78 -89 -98 -81 -250 16 -340 59
-54 102 -67 226 -67 124 0 167 13 226 67 127 117 92 331 -66 401 -52 23 -209
33 -273 17z m83 -260 c0 -56 -3 -70 -15 -70 -11 0 -15 12 -15 50 0 38 -4 50
-15 50 -20 0 -19 17 3 29 36 22 42 14 42 -59z m130 63 c0 -24 -51 -128 -64
-131 -12 -3 -13 2 -7 25 5 16 16 44 25 61 l17 32 -36 0 c-19 0 -35 5 -35 10 0
6 23 10 50 10 28 0 50 -3 50 -7z"/>
<path d="M10336 941 c-10 -16 5 -41 24 -41 19 0 30 17 23 38 -5 14 -39 16 -47
3z"/>
<path d="M11812 983 c2 -10 10 -18 18 -18 8 0 16 8 18 18 2 12 -3 17 -18 17
-15 0 -20 -5 -18 -17z"/>
<path d="M11805 930 c-4 -7 -3 -16 3 -22 14 -14 47 -6 47 12 0 18 -40 26 -50
10z"/>
<path d="M13096 955 c-16 -24 -16 -25 4 -25 15 0 20 7 20 25 0 14 -2 25 -4 25
-2 0 -11 -11 -20 -25z"/>
<path d="M13827 955 c-17 -24 -17 -25 3 -25 15 0 20 6 20 25 0 30 -1 30 -23 0z"/>
<path d="M13932 983 c2 -10 10 -18 18 -18 8 0 16 8 18 18 2 12 -3 17 -18 17
-15 0 -20 -5 -18 -17z"/>
<path d="M13925 930 c-4 -7 -3 -16 3 -22 14 -14 47 -6 47 12 0 18 -40 26 -50
10z"/>
<path d="M14566 955 c-16 -24 -16 -25 4 -25 15 0 20 7 20 25 0 14 -2 25 -4 25
-2 0 -11 -11 -20 -25z"/>
<path d="M14664 985 c-8 -20 4 -35 27 -35 14 0 19 7 19 25 0 18 -5 25 -20 25
-11 0 -23 -7 -26 -15z"/>
</g>
</svg>
