<?xml version="1.0" standalone="no"?>
<!DOCTYPE svg PUBLIC "-//W3C//DTD SVG 20010904//EN"
 "http://www.w3.org/TR/2001/REC-SVG-20010904/DTD/svg10.dtd">
<svg version="1.0" xmlns="http://www.w3.org/2000/svg"
 width="1920.000000pt" height="871.000000pt" viewBox="0 0 1920.000000 871.000000"
 preserveAspectRatio="xMidYMid meet">

<g transform="translate(0.000000,871.000000) scale(0.100000,-0.100000)"
fill="#000000" stroke="none">
<path d="M0 4355 l0 -4355 2000 0 2000 0 0 3485 0 3485 7200 0 7200 0 0 -3485
0 -3485 400 0 400 0 0 4355 0 4355 -9600 0 -9600 0 0 -4355z m19160 3270 c0
-670 -3 -1015 -10 -1015 -7 0 -10 345 -10 1015 0 670 3 1015 10 1015 7 0 10
-345 10 -1015z m-17910 849 c0 -3 -9 -19 -20 -34 -33 -47 -36 -107 -6 -165 27
-52 27 -67 1 -45 -58 48 -62 170 -7 233 15 17 32 23 32 11z m262 -26 c18 -26
23 -46 23 -98 0 -52 -5 -72 -23 -97 -23 -33 -42 -43 -42 -23 0 6 10 24 22 40
16 22 22 44 22 80 0 36 -6 58 -22 80 -12 16 -22 34 -22 40 0 20 19 10 42 -22z
m-222 -17 c0 -5 -7 -22 -15 -37 -8 -16 -15 -36 -15 -44 0 -8 7 -28 15 -44 17
-33 19 -46 5 -46 -15 0 -40 56 -40 90 0 34 25 90 40 90 6 0 10 -4 10 -9z m185
-80 c0 -34 -6 -55 -19 -70 -28 -30 -37 -16 -16 24 19 37 15 80 -9 109 -19 22
2 27 23 6 16 -15 21 -33 21 -69z m-75 39 c11 -11 20 -29 20 -40 0 -26 -34 -60
-60 -60 -26 0 -60 34 -60 60 0 26 34 60 60 60 11 0 29 -9 40 -20z m-318 -180
c20 -6 48 -24 62 -41 25 -30 26 -34 26 -185 l0 -154 -45 0 -45 0 0 119 c0 66
-4 131 -10 145 -19 50 -78 58 -120 16 -18 -18 -20 -34 -20 -150 l0 -130 -50 0
-50 0 0 190 0 190 45 0 c41 0 45 -2 45 -25 0 -31 3 -31 35 -1 23 22 41 30 80
35 6 0 27 -4 47 -9z m720 0 c20 -6 48 -24 62 -41 25 -30 26 -34 26 -185 l0
-154 -45 0 -45 0 0 123 c0 78 -5 131 -13 147 -16 32 -54 45 -90 31 -43 -17
-57 -63 -57 -191 l0 -110 -45 0 -45 0 0 190 0 190 45 0 c42 0 45 -2 45 -27 l0
-26 24 22 c21 19 62 38 91 40 6 1 27 -4 47 -9z m447 -1 c94 -21 141 -85 141
-190 0 -126 -68 -199 -185 -199 -126 0 -195 69 -195 194 0 108 46 174 136 195
52 12 52 12 103 0z m-841 -191 l2 -188 -50 0 -50 0 0 191 0 190 48 -3 47 -3 3
-187z m2742 139 c0 -20 -4 -22 -40 -19 -55 6 -54 -19 3 -50 34 -19 43 -29 45
-55 4 -39 -26 -63 -79 -63 -50 0 -69 8 -69 31 0 16 6 18 44 13 56 -8 69 10 25
34 -70 38 -86 75 -49 112 15 15 33 20 70 20 45 0 50 -2 50 -23z m170 -57 c12
-12 20 -33 20 -55 0 -48 -29 -75 -80 -75 -51 0 -80 27 -80 75 0 46 32 75 82
75 25 0 45 -7 58 -20z m102 -32 c3 -45 6 -53 23 -53 17 0 20 8 23 53 3 48 5
52 28 52 23 0 24 -2 24 -75 0 -73 -1 -75 -25 -75 -14 0 -25 5 -25 12 0 9 -3 9
-12 0 -19 -19 -66 -15 -78 7 -5 11 -10 45 -10 75 0 53 1 56 24 56 23 0 25 -4
28 -52z m178 40 c0 -9 3 -9 12 0 18 18 38 15 38 -6 0 -9 -10 -22 -22 -27 -19
-8 -24 -19 -26 -57 -3 -43 -5 -48 -28 -48 -23 0 -24 2 -24 75 0 73 1 75 25 75
14 0 25 -5 25 -12z m188 -13 c2 -17 -3 -20 -35 -20 -36 0 -38 -2 -38 -30 0
-28 2 -30 38 -29 33 1 38 -1 35 -20 -4 -31 -75 -35 -106 -6 -51 48 -7 134 66
128 28 -2 38 -8 40 -23z m140 9 c14 -10 22 -25 22 -45 0 -28 -2 -29 -45 -29
-25 0 -45 -4 -45 -10 0 -10 18 -14 58 -10 18 1 23 -3 20 -17 -2 -13 -14 -19
-44 -21 -57 -4 -88 22 -87 74 2 64 67 96 121 58z m150 -8 c3 -15 0 -18 -21
-12 -30 7 -47 -11 -20 -21 23 -8 53 -33 53 -45 0 -22 -42 -48 -80 -48 -36 0
-40 2 -40 25 0 23 2 24 21 15 11 -7 28 -9 37 -5 13 5 10 10 -18 23 -66 32 -45
96 30 90 25 -2 36 -8 38 -22z m6106 -422 c24 -23 24 -465 0 -488 -14 -15 -353
-16 -3584 -16 -3231 0 -3570 1 -3584 16 -14 13 -16 50 -16 244 0 194 2 231 16
244 14 15 353 16 3584 16 3231 0 3570 -1 3584 -16z m2000 -20 c14 -13 16 -48
16 -229 0 -181 -2 -216 -16 -229 -13 -14 -61 -16 -374 -16 -313 0 -361 2 -374
16 -14 13 -16 48 -16 229 0 181 2 216 16 229 13 14 61 16 374 16 313 0 361 -2
374 -16z m-1474 -188 c0 -32 3 -35 33 -38 17 -2 32 -7 32 -13 0 -5 -15 -11
-32 -13 -30 -3 -33 -6 -33 -38 0 -27 -4 -34 -20 -34 -16 0 -20 7 -20 35 0 33
-2 35 -35 35 -24 0 -35 5 -35 15 0 10 11 15 35 15 33 0 35 2 35 35 0 28 4 35
20 35 16 0 20 -7 20 -34z m-11090 -355 c0 -25 3 -28 27 -23 35 7 53 -19 53
-75 0 -32 -4 -43 -15 -43 -11 0 -15 11 -15 39 0 43 -19 68 -38 49 -7 -7 -12
-29 -12 -50 0 -27 -4 -38 -15 -38 -12 0 -15 16 -15 85 0 69 3 85 15 85 10 0
15 -10 15 -29z m130 -1 c0 -28 2 -29 32 -23 36 7 58 -14 58 -57 0 -38 -28 -59
-78 -58 l-42 0 0 84 c0 68 3 84 15 84 10 0 15 -10 15 -30z m550 -54 l0 -83
-45 -1 c-69 -2 -97 43 -59 97 12 17 24 22 45 19 26 -4 29 -2 29 24 0 18 5 28
15 28 12 0 15 -16 15 -84z m-965 49 c29 -28 31 -54 10 -94 -17 -33 -33 -41
-86 -41 l-39 0 0 80 0 80 45 0 c35 0 52 -6 70 -25z m123 -27 c7 -7 12 -33 12
-59 l0 -48 -41 2 c-68 3 -83 61 -19 73 16 4 30 11 30 17 0 5 -13 7 -30 4 -28
-6 -38 1 -23 16 11 11 58 8 71 -5z m112 -2 c0 -9 -8 -12 -25 -8 -15 2 -25 0
-25 -7 0 -6 11 -17 25 -23 29 -13 34 -52 9 -62 -28 -11 -64 -6 -64 8 0 9 8 12
25 8 14 -2 25 0 25 6 0 5 -11 17 -25 26 -26 17 -34 51 -12 59 26 11 67 7 67
-7z m381 4 c24 -13 26 -72 3 -94 -23 -24 -70 -20 -88 6 -42 60 19 123 85 88z
m127 -51 l3 -57 -40 0 c-22 0 -45 5 -51 13 -18 22 -2 55 31 62 16 3 29 10 29
16 0 5 -13 7 -30 4 -16 -4 -30 -3 -30 2 0 16 15 22 50 19 l35 -3 3 -56z m102
50 c0 -5 -6 -9 -14 -9 -17 0 -26 -22 -26 -66 0 -24 -5 -34 -15 -34 -12 0 -15
13 -15 59 l0 59 35 0 c19 0 35 -4 35 -9z m170 -799 c0 -5 -11 -10 -24 -10 -38
0 -41 -18 -7 -38 60 -33 48 -82 -20 -82 -29 0 -39 4 -39 16 0 12 7 14 29 9 41
-9 48 12 12 33 -36 20 -48 47 -31 67 14 17 80 21 80 5z m118 -42 c7 -7 12 -24
12 -38 0 -34 -17 -50 -55 -50 -38 0 -55 16 -55 50 0 34 17 50 55 50 17 0 36
-5 43 -12z m52 -28 c0 -28 4 -40 14 -40 16 0 26 21 26 56 0 13 5 24 10 24 6 0
10 -23 10 -51 l0 -50 -42 3 -43 3 -3 48 c-2 37 0 47 12 47 12 0 16 -10 16 -40z
m130 20 c-11 -11 -20 -33 -20 -50 0 -16 -4 -30 -10 -30 -5 0 -10 23 -10 50 0
49 1 50 30 50 l30 0 -20 -20z m110 11 c0 -5 -12 -11 -27 -13 -22 -2 -28 -8
-28 -28 0 -20 6 -26 28 -28 38 -5 34 -22 -6 -22 -40 0 -57 15 -57 50 0 14 5
31 12 38 14 14 78 16 78 3z m88 -3 c7 -7 12 -20 12 -30 0 -14 -8 -18 -36 -18
-21 0 -33 -4 -29 -10 3 -5 17 -10 31 -10 13 0 24 -4 24 -10 0 -14 -64 -12 -78
2 -7 7 -12 24 -12 38 0 33 17 50 50 50 14 0 31 -5 38 -12z m92 -4 c0 -11 -6
-14 -20 -9 -11 3 -20 2 -20 -3 0 -5 9 -12 21 -15 15 -4 20 -12 17 -29 -2 -18
-10 -24 -35 -26 -24 -2 -33 1 -33 11 0 10 7 13 20 10 11 -3 20 -1 20 5 0 5 -9
12 -20 15 -19 5 -27 36 -13 50 14 14 63 7 63 -9z m-610 -609 c0 -43 -4 -75
-10 -75 -6 0 -10 32 -10 75 0 43 4 75 10 75 6 0 10 -32 10 -75z m260 65 c0 -5
-7 -10 -15 -10 -18 0 -20 -26 -2 -34 10 -5 10 -7 0 -12 -7 -3 -13 -23 -13 -45
0 -28 -4 -39 -15 -39 -11 0 -15 11 -15 40 0 33 -3 40 -20 40 -16 0 -20 -7 -20
-30 0 -20 5 -30 15 -30 8 0 15 -5 15 -11 0 -6 -12 -9 -27 -7 -25 3 -29 8 -34
48 -3 24 -4 53 -1 62 5 22 32 24 32 3 0 -8 9 -15 20 -15 13 0 20 7 20 18 0 10
3 22 7 25 10 11 53 8 53 -3z m-302 -33 c4 -33 -13 -57 -39 -57 -14 0 -19 -7
-19 -25 0 -16 -6 -25 -15 -25 -12 0 -15 15 -15 71 l0 70 43 -3 c38 -3 42 -6
45 -31z m150 -59 l3 -48 -46 0 c-45 0 -46 1 -43 28 2 21 9 28 31 30 15 2 27 8
27 14 0 6 -10 8 -25 4 -19 -5 -25 -2 -25 9 0 13 9 15 38 13 37 -3 37 -3 40
-50z m240 40 c7 -7 12 -24 12 -38 0 -34 -17 -50 -55 -50 -38 0 -55 16 -55 50
0 34 17 50 55 50 17 0 36 -5 43 -12z m240 -40 c2 -29 -1 -48 -7 -48 -6 0 -11
12 -11 28 0 15 -4 33 -9 41 -14 22 -31 3 -31 -35 0 -24 -5 -34 -15 -34 -11 0
-15 11 -15 41 0 52 -24 48 -28 -4 -2 -24 -8 -37 -18 -37 -10 0 -14 13 -14 45
0 25 -4 45 -10 45 -14 0 -30 -35 -30 -64 0 -14 -4 -26 -10 -26 -5 0 -10 23
-10 50 l0 51 103 -3 102 -3 3 -47z m92 38 c0 -9 -7 -12 -22 -9 -21 5 -20 3 6
-19 39 -32 30 -58 -19 -58 -23 0 -35 5 -35 14 0 9 9 12 28 9 26 -4 26 -4 8 11
-11 9 -23 16 -28 16 -10 0 -11 34 -1 43 13 13 63 7 63 -7z m-80 -611 l0 -75
-44 0 c-46 0 -56 10 -56 54 0 28 18 46 47 46 18 0 23 6 23 25 0 16 6 25 15 25
12 0 15 -15 15 -75z m-710 43 l1 -23 19 23 c11 13 27 22 36 20 14 -2 13 -8
-11 -36 l-28 -33 29 -30 29 -31 5 44 5 43 58 2 c57 1 59 0 69 -29 l11 -30 13
31 c18 42 58 44 69 4 l7 -28 10 28 c12 35 36 35 45 0 l6 -28 10 28 c5 15 15
27 23 27 8 0 14 -1 14 -2 0 -2 -6 -23 -14 -48 -16 -53 -42 -65 -52 -23 l-7 28
-10 -28 c-12 -37 -39 -32 -51 11 -5 17 -12 32 -15 32 -3 0 -17 -27 -29 -60
-20 -50 -28 -60 -48 -60 -13 0 -24 5 -24 10 0 6 6 10 14 10 24 0 26 28 6 72
-14 32 -19 37 -19 21 -1 -19 -7 -23 -31 -23 -16 0 -30 -4 -30 -10 0 -5 14 -10
30 -10 17 0 30 -5 30 -10 0 -6 -27 -10 -62 -9 -49 1 -68 6 -85 22 l-23 20 0
-21 c0 -13 -6 -22 -15 -22 -12 0 -15 14 -15 70 0 56 3 70 15 70 9 0 15 -9 15
-22z m518 -30 c7 -7 12 -24 12 -38 0 -34 -17 -50 -55 -50 -38 0 -55 16 -55 50
0 34 17 50 55 50 17 0 36 -5 43 -12z m72 -8 c-11 -11 -20 -33 -20 -50 0 -16
-4 -30 -10 -30 -5 0 -10 23 -10 50 0 49 1 50 30 50 l30 0 -20 -20z m210 4 c0
-11 -6 -14 -20 -9 -11 3 -20 2 -20 -3 0 -5 9 -12 21 -15 15 -4 20 -12 17 -29
-2 -18 -10 -24 -35 -26 -24 -2 -33 1 -33 11 0 10 7 13 20 10 11 -3 20 -1 20 5
0 5 -9 12 -20 15 -19 5 -27 36 -13 50 14 14 63 7 63 -9z m-620 -591 c0 -56 10
-76 36 -71 16 3 20 14 22 61 2 42 7 57 17 57 11 0 15 -13 15 -51 0 -71 -12
-89 -60 -89 -48 0 -60 18 -60 89 0 39 4 51 15 51 11 0 15 -12 15 -47z m180 -8
c0 -11 -7 -14 -25 -9 -33 8 -32 -4 1 -16 19 -7 25 -16 22 -33 -2 -18 -10 -23
-40 -25 -29 -2 -38 0 -38 13 0 12 7 14 28 9 l27 -6 -28 24 c-37 31 -28 58 19
58 24 0 34 -5 34 -15z m100 -4 c17 -33 12 -41 -26 -41 -21 0 -33 -4 -29 -10 3
-5 17 -10 31 -10 13 0 24 -4 24 -10 0 -17 -77 -12 -84 6 -10 25 -7 59 6 72 19
19 66 15 78 -7z m150 4 c0 -8 -8 -11 -22 -8 -21 5 -20 3 6 -19 39 -32 30 -58
-19 -58 -25 0 -35 4 -35 15 0 12 7 14 28 10 26 -6 26 -6 8 9 -11 9 -23 16 -28
16 -4 0 -8 9 -8 20 0 13 -5 18 -15 14 -10 -4 -15 -20 -15 -45 0 -28 -4 -39
-15 -39 -11 0 -15 12 -15 49 l0 50 65 0 c48 0 65 -4 65 -14z m-580 -610 c0
-60 -3 -75 -15 -75 -12 0 -15 15 -15 75 0 60 3 75 15 75 12 0 15 -15 15 -75z
m50 65 c0 -5 -9 -10 -20 -10 -11 0 -20 5 -20 10 0 6 9 10 20 10 11 0 20 -4 20
-10z m810 -65 c0 -60 -3 -75 -15 -75 -12 0 -15 15 -15 75 0 60 3 75 15 75 12
0 15 -15 15 -75z m-910 55 c0 -5 -13 -10 -28 -10 -35 0 -52 -16 -52 -50 0 -34
17 -50 52 -50 15 0 28 -4 28 -10 0 -16 -72 -11 -92 7 -22 20 -24 71 -2 101 11
16 25 22 55 22 21 0 39 -4 39 -10z m550 -11 c14 -26 -11 -69 -40 -69 -15 0
-20 -7 -20 -25 0 -16 -6 -25 -15 -25 -12 0 -15 14 -15 70 l0 70 40 0 c29 0 42
-5 50 -21z m-180 -3 c0 -8 6 -17 13 -20 10 -5 10 -7 0 -12 -15 -7 -18 -64 -3
-64 6 0 10 -5 10 -11 0 -6 -10 -9 -22 -7 -18 2 -24 11 -26 38 -2 19 -9 39 -15
43 -9 6 -9 10 1 14 6 2 12 11 12 19 0 8 7 14 15 14 8 0 15 -6 15 -14z m-280
-66 c0 -27 -4 -50 -10 -50 -5 0 -10 23 -10 50 0 28 5 50 10 50 6 0 10 -22 10
-50z m108 38 c7 -7 12 -20 12 -30 0 -14 -8 -18 -36 -18 -21 0 -33 -4 -29 -10
3 -5 17 -10 31 -10 13 0 24 -4 24 -10 0 -14 -64 -12 -78 2 -7 7 -12 24 -12 38
0 33 17 50 50 50 14 0 31 -5 38 -12z m116 -10 c11 -41 7 -78 -8 -78 -10 0 -16
13 -18 38 -2 25 -8 37 -18 37 -10 0 -16 -12 -18 -37 -2 -25 -8 -38 -18 -38
-10 0 -14 13 -14 50 l0 50 44 0 c37 0 45 -4 50 -22z m330 6 c3 -9 6 -31 6 -50
0 -34 -1 -34 -44 -34 -31 0 -46 5 -50 16 -9 23 11 44 41 44 14 0 21 4 18 10
-3 6 -17 7 -31 4 -23 -6 -32 5 -17 19 13 14 71 7 77 -9z m110 0 c3 -9 6 -31 6
-50 0 -49 -28 -46 -32 4 -2 25 -8 37 -18 37 -10 0 -16 -12 -18 -37 -2 -25 -8
-38 -18 -38 -10 0 -14 13 -14 50 l0 50 44 0 c31 0 46 -5 50 -16z m104 4 c7 -7
12 -20 12 -30 0 -14 -8 -18 -36 -18 -21 0 -33 -4 -29 -10 3 -5 17 -10 31 -10
13 0 24 -4 24 -10 0 -14 -64 -12 -78 2 -7 7 -12 24 -12 38 0 33 17 50 50 50
14 0 31 -5 38 -12z m112 -613 c0 -60 -3 -75 -15 -75 -12 0 -15 15 -15 75 0 60
3 75 15 75 12 0 15 -15 15 -75z m-1050 56 c0 -5 -12 -11 -27 -13 -37 -4 -38
-20 -3 -40 59 -34 47 -78 -21 -78 -29 0 -39 4 -39 16 0 12 7 14 29 9 44 -9 47
12 7 36 -37 21 -45 46 -24 67 14 14 78 16 78 3z m690 -12 c14 -26 -11 -69 -40
-69 -15 0 -20 -7 -20 -25 0 -16 -6 -25 -15 -25 -12 0 -15 14 -15 70 l0 70 40
0 c29 0 42 -5 50 -21z m-460 -4 c0 -8 7 -15 15 -15 8 0 15 -4 15 -10 0 -5 -7
-10 -15 -10 -10 0 -15 -10 -15 -30 0 -20 5 -30 15 -30 8 0 15 -5 15 -11 0 -6
-12 -9 -27 -7 -25 3 -29 8 -34 48 -3 24 -4 53 -1 62 5 22 32 24 32 3z m-188
-46 l11 -31 13 31 c7 17 20 31 28 31 11 0 8 -16 -16 -75 -26 -64 -34 -75 -54
-75 -13 0 -24 5 -24 10 0 6 6 10 14 10 24 0 26 28 6 76 -24 55 -24 54 -4 54 8
0 20 -14 26 -31z m138 15 c0 -11 -6 -14 -20 -9 -11 3 -20 2 -20 -3 0 -5 9 -12
21 -15 15 -4 20 -12 17 -29 -2 -18 -10 -24 -35 -26 -24 -2 -33 1 -33 11 0 10
7 13 20 10 11 -3 20 -1 20 5 0 5 -9 12 -20 15 -19 5 -27 36 -13 50 14 14 63 7
63 -9z m170 -3 c17 -33 12 -41 -26 -41 -21 0 -33 -4 -29 -10 3 -5 17 -10 31
-10 13 0 24 -4 24 -10 0 -17 -77 -12 -84 6 -10 25 -7 59 6 72 19 19 66 15 78
-7z m168 -33 c2 -38 0 -48 -12 -48 -12 0 -16 11 -16 41 0 52 -24 48 -28 -4 -5
-54 -32 -50 -32 4 0 52 -24 48 -28 -4 -2 -24 -8 -37 -18 -37 -10 0 -14 13 -14
50 l0 51 73 -3 72 -3 3 -47z m266 36 c3 -9 6 -31 6 -50 0 -34 -1 -34 -44 -34
-31 0 -46 5 -50 16 -9 23 11 44 41 44 14 0 21 4 18 10 -3 6 -17 7 -31 4 -23
-6 -32 5 -17 19 13 14 71 7 77 -9z m110 0 c3 -9 6 -31 6 -50 0 -49 -28 -46
-32 4 -2 25 -8 37 -18 37 -10 0 -16 -12 -18 -37 -2 -25 -8 -38 -18 -38 -10 0
-14 13 -14 50 l0 50 44 0 c31 0 46 -5 50 -16z m104 4 c7 -7 12 -20 12 -30 0
-14 -8 -18 -36 -18 -21 0 -33 -4 -29 -10 3 -5 17 -10 31 -10 13 0 24 -4 24
-10 0 -14 -64 -12 -78 2 -7 7 -12 24 -12 38 0 33 17 50 50 50 14 0 31 -5 38
-12z m-978 -578 c0 -27 3 -30 30 -30 27 0 30 3 30 30 0 20 5 30 15 30 12 0 15
-14 15 -70 0 -56 -3 -70 -15 -70 -10 0 -15 10 -15 30 0 27 -3 30 -30 30 -27 0
-30 -3 -30 -30 0 -20 -5 -30 -15 -30 -12 0 -15 14 -15 70 0 56 3 70 15 70 10
0 15 -10 15 -30z m460 5 c0 -8 7 -15 15 -15 8 0 15 -4 15 -10 0 -5 -7 -10 -15
-10 -10 0 -15 -10 -15 -30 0 -20 5 -30 15 -30 8 0 15 -4 15 -10 0 -5 -11 -10
-25 -10 -22 0 -25 4 -25 39 0 22 -6 42 -12 45 -10 5 -10 7 0 12 6 3 12 12 12
20 0 8 5 14 10 14 6 0 10 -7 10 -15z m-252 -27 c9 -9 12 -9 12 0 0 24 28 11
35 -15 l7 -28 10 28 c12 35 36 35 45 0 l6 -28 10 28 c5 15 15 27 23 27 8 0 14
-1 14 -2 0 -2 -6 -23 -14 -48 -16 -53 -42 -65 -52 -23 l-7 28 -10 -28 c-12
-37 -37 -31 -53 13 -11 31 -13 32 -13 10 -1 -35 -19 -50 -56 -50 -38 0 -55 16
-55 50 0 34 17 50 55 50 17 0 36 -5 43 -12z m380 0 c7 -7 12 -24 12 -38 0 -34
-17 -50 -55 -50 -38 0 -55 16 -55 50 0 34 17 50 55 50 17 0 36 -5 43 -12z
m112 -28 c0 -28 4 -40 14 -40 16 0 26 21 26 56 0 13 5 24 10 24 6 0 10 -23 10
-51 l0 -50 -42 3 -43 3 -3 48 c-2 37 0 47 12 47 12 0 16 -10 16 -40z m150 24
c0 -11 -6 -14 -20 -9 -11 3 -20 2 -20 -3 0 -5 9 -12 21 -15 15 -4 20 -12 17
-29 -2 -18 -10 -24 -35 -26 -24 -2 -33 1 -33 11 0 10 7 13 20 10 11 -3 20 -1
20 5 0 5 -9 12 -20 15 -19 5 -27 36 -13 50 14 14 63 7 63 -9z m98 4 c7 -7 12
-20 12 -30 0 -14 -8 -18 -36 -18 -21 0 -33 -4 -29 -10 3 -5 17 -10 31 -10 13
0 24 -4 24 -10 0 -14 -64 -12 -78 2 -7 7 -12 24 -12 38 0 33 17 50 50 50 14 0
31 -5 38 -12z"/>
<path d="M2164 8130 c-38 -16 -54 -50 -54 -118 0 -80 26 -112 90 -112 65 0 90
32 90 114 0 53 -4 70 -22 90 -25 29 -72 40 -104 26z"/>
<path d="M4234 8066 c-11 -29 0 -51 26 -51 21 0 25 5 25 30 0 24 -5 31 -23 33
-13 2 -24 -3 -28 -12z"/>
<path d="M4867 8084 c-13 -13 -7 -24 14 -24 11 0 19 5 17 12 -5 14 -22 21 -31
12z"/>
<path d="M4022 7668 c-17 -17 -17 -459 0 -476 17 -17 7139 -17 7156 0 17 17
17 459 0 476 -17 17 -7139 17 -7156 0z m600 -210 c5 -50 -3 -118 -13 -118 -5
0 -9 34 -9 75 0 74 16 105 22 43z m179 -25 c39 24 74 -27 49 -72 -8 -16 -19
-20 -45 -18 l-35 2 2 75 c1 41 3 58 5 38 4 -34 6 -36 24 -25z m-601 36 c0 -5
-5 -7 -10 -4 -16 10 -50 -5 -50 -20 0 -8 14 -21 30 -30 39 -20 42 -62 6 -71
-14 -3 -33 -1 -43 6 -16 10 -16 11 5 6 54 -11 71 24 23 48 -36 19 -45 41 -25
61 17 17 64 20 64 4z m98 -41 c23 -23 13 -38 -23 -38 -19 0 -35 -4 -35 -9 0
-16 30 -33 50 -28 11 3 18 1 14 -4 -8 -13 -48 -11 -62 3 -17 17 -15 54 4 72
19 19 36 20 52 4z m100 0 c7 -7 12 -29 12 -49 0 -36 -1 -37 -37 -36 -30 2 -38
6 -38 21 0 11 7 22 15 24 13 4 13 3 2 -10 -15 -19 0 -33 23 -24 18 7 20 36 3
36 -10 0 -9 3 1 9 20 13 3 33 -21 25 -14 -4 -18 -2 -14 5 9 15 39 14 54 -1z
m76 -2 c-9 -7 -20 -30 -24 -52 l-8 -39 -1 50 c-1 47 1 50 25 51 22 2 23 1 8
-10z m100 6 c3 -5 -4 -8 -16 -8 -11 1 -25 -7 -32 -16 -14 -24 4 -53 32 -52 12
0 19 -3 16 -8 -8 -12 -38 -10 -52 4 -7 7 -12 24 -12 38 0 14 5 31 12 38 14 14
44 16 52 4z m102 -47 c1 -40 0 -42 -3 -10 -2 22 -12 46 -21 53 -16 13 -15 14
3 10 17 -3 20 -11 21 -53z m228 9 l14 -39 21 45 c27 59 15 11 -15 -57 -13 -29
-28 -53 -35 -53 -7 0 -5 8 7 21 17 19 18 22 1 68 -9 27 -17 52 -17 57 0 14 10
-3 24 -42z m212 -9 c1 -46 1 -47 -3 -7 -7 72 -49 69 -63 -5 -8 -38 -8 -38 -9
12 l-1 51 38 -1 37 0 1 -50z m102 5 c3 -46 3 -46 -30 -45 -26 0 -34 5 -36 22
-3 17 3 23 28 28 34 7 36 30 2 29 -12 0 -19 3 -16 8 3 5 16 8 27 6 18 -2 22
-11 25 -48z m53 -3 c-4 -61 -11 -59 -11 3 0 29 3 50 7 46 4 -4 6 -26 4 -49z
m54 43 c5 -8 11 -7 21 1 27 22 44 3 42 -48 -1 -47 -1 -47 -5 -8 -3 22 -8 44
-13 49 -15 15 -39 -13 -43 -52 l-4 -37 -1 42 c-1 28 -8 45 -19 52 -17 10 -17
10 -1 11 9 0 20 -5 23 -10z m163 -2 c23 -23 13 -38 -23 -38 -19 0 -35 -4 -35
-9 0 -16 30 -33 50 -28 11 3 18 1 14 -4 -8 -13 -48 -11 -62 3 -17 17 -15 54 4
72 19 19 36 20 52 4z"/>
<path d="M4790 7411 c-13 -26 4 -64 27 -59 25 5 40 35 27 56 -16 25 -41 26
-54 3z"/>
<path d="M4250 7415 c-11 -13 -8 -15 20 -15 21 0 30 4 28 13 -7 18 -33 20 -48
2z"/>
<path d="M5170 7380 c-11 -6 -12 -12 -4 -20 13 -13 44 -2 44 16 0 16 -18 18
-40 4z"/>
<path d="M5440 7415 c-11 -13 -8 -15 20 -15 21 0 30 4 28 13 -7 18 -33 20 -48
2z"/>
<path d="M12442 7648 c-17 -17 -17 -429 0 -446 17 -17 719 -17 736 0 17 17 17
429 0 446 -9 9 -104 12 -368 12 -264 0 -359 -3 -368 -12z m283 -178 c-3 -5
-15 -10 -26 -10 -10 0 -19 -7 -19 -15 0 -8 9 -15 20 -15 12 0 25 -10 32 -25 9
-21 8 -28 -7 -45 -19 -20 -75 -28 -75 -10 0 6 13 10 29 10 29 0 42 14 33 38
-2 6 -15 12 -28 12 -21 0 -24 5 -24 35 0 33 2 35 36 35 21 0 33 -4 29 -10z
m113 -15 c17 -37 15 -69 -6 -95 -49 -60 -112 33 -66 98 21 30 58 29 72 -3z
m217 -25 l18 -20 24 22 c32 30 39 16 9 -18 -27 -32 -46 -28 -74 14 -18 28 -1
29 23 2z"/>
<path d="M12775 7430 c-9 -40 2 -70 25 -70 23 0 35 37 26 75 -9 36 -43 33 -51
-5z"/>
<path d="M758 7045 c-9 -21 -9 -29 5 -42 13 -13 19 -14 31 -3 19 15 21 41 4
58 -18 18 -27 15 -40 -13z"/>
<path d="M1222 7058 c-28 -28 3 -83 33 -58 8 7 15 20 15 29 0 17 -18 41 -30
41 -3 0 -11 -5 -18 -12z"/>
<path d="M250 7050 l0 -62 28 7 c37 9 45 19 45 55 0 36 -8 46 -45 55 l-28 7 0
-62z"/>
<path d="M404 7019 c-8 -14 11 -33 25 -25 6 4 11 14 11 22 0 16 -26 19 -36 3z"/>
<path d="M892 7058 c-27 -27 0 -77 34 -64 10 4 14 16 12 38 -3 35 -25 47 -46
26z"/>
<path d="M1014 7019 c-8 -14 11 -33 25 -25 6 4 11 14 11 22 0 16 -26 19 -36 3z"/>
<path d="M1404 6216 c-9 -24 4 -48 23 -44 12 2 18 12 18 28 0 29 -32 41 -41
16z"/>
<path d="M1795 6220 c-3 -5 3 -10 15 -10 12 0 18 5 15 10 -3 6 -10 10 -15 10
-5 0 -12 -4 -15 -10z"/>
<path d="M1230 5645 c0 -22 3 -24 20 -15 21 11 17 40 -6 40 -8 0 -14 -10 -14
-25z"/>
<path d="M1380 5580 c0 -5 4 -10 9 -10 6 0 13 5 16 10 3 6 -1 10 -9 10 -9 0
-16 -4 -16 -10z"/>
<path d="M1614 5616 c-9 -24 4 -48 23 -44 12 2 18 12 18 28 0 29 -32 41 -41
16z"/>
<path d="M1864 5015 c-8 -21 3 -48 19 -43 19 7 22 58 2 58 -8 0 -18 -7 -21
-15z"/>
<path d="M1330 5020 c0 -5 7 -10 15 -10 8 0 15 5 15 10 0 6 -7 10 -15 10 -8 0
-15 -4 -15 -10z"/>
<path d="M1674 5016 c-9 -24 4 -48 23 -44 12 2 18 12 18 28 0 29 -32 41 -41
16z"/>
<path d="M1625 4420 c-3 -5 3 -10 15 -10 12 0 18 5 15 10 -3 6 -10 10 -15 10
-5 0 -12 -4 -15 -10z"/>
<path d="M1690 3845 c0 -23 2 -25 21 -15 23 13 21 33 -4 38 -12 3 -17 -4 -17
-23z"/>
<path d="M1345 3820 c-3 -5 3 -10 15 -10 12 0 18 5 15 10 -3 6 -10 10 -15 10
-5 0 -12 -4 -15 -10z"/>
<path d="M1785 3780 c-3 -5 1 -10 9 -10 8 0 18 5 21 10 3 6 -1 10 -9 10 -8 0
-18 -4 -21 -10z"/>
<path d="M2005 3820 c-3 -5 3 -10 15 -10 12 0 18 5 15 10 -3 6 -10 10 -15 10
-5 0 -12 -4 -15 -10z"/>
<path d="M1750 3245 c0 -23 2 -25 21 -15 23 13 21 33 -4 38 -12 3 -17 -4 -17
-23z"/>
<path d="M1415 3220 c-3 -5 3 -10 15 -10 12 0 18 5 15 10 -3 6 -10 10 -15 10
-5 0 -12 -4 -15 -10z"/>
<path d="M1845 3180 c-3 -5 1 -10 9 -10 8 0 18 5 21 10 3 6 -1 10 -9 10 -8 0
-18 -4 -21 -10z"/>
<path d="M2065 3220 c-3 -5 3 -10 15 -10 12 0 18 5 15 10 -3 6 -10 10 -15 10
-5 0 -12 -4 -15 -10z"/>
<path d="M1284 2616 c-9 -24 4 -48 23 -44 12 2 18 12 18 28 0 29 -32 41 -41
16z"/>
<path d="M1664 2616 c-9 -24 4 -48 23 -44 12 2 18 12 18 28 0 29 -32 41 -41
16z"/>
<path d="M2035 2620 c-3 -5 3 -10 15 -10 12 0 18 5 15 10 -3 6 -10 10 -15 10
-5 0 -12 -4 -15 -10z"/>
<path d="M4010 6710 l0 -250 1435 0 1435 0 0 250 0 250 -1435 0 -1435 0 0
-250z m1237 8 l28 -43 3 43 c2 28 8 42 18 42 11 0 14 -16 14 -70 0 -63 -2 -70
-20 -70 -12 0 -29 16 -46 45 -14 25 -27 45 -28 45 0 0 0 -20 2 -45 4 -40 2
-45 -17 -45 -19 0 -21 6 -21 70 0 63 2 70 20 70 12 0 30 -16 47 -42z m171 -50
l3 -47 -43 2 c-39 2 -43 5 -43 27 0 18 6 26 23 28 12 2 22 8 22 14 0 6 -9 8
-20 5 -13 -3 -20 0 -20 10 0 10 10 13 38 11 37 -3 37 -4 40 -50z m180 0 c2
-37 0 -48 -12 -48 -10 0 -16 12 -18 38 -2 20 -7 37 -13 37 -5 0 -11 -17 -13
-37 -3 -30 -7 -38 -23 -38 -16 0 -19 7 -19 40 0 22 -4 40 -10 40 -5 0 -10 -18
-10 -40 0 -33 -3 -40 -20 -40 -17 0 -20 7 -20 50 l0 50 78 -2 77 -3 3 -47z
m110 40 c7 -7 12 -20 12 -30 0 -13 -8 -18 -30 -18 -16 0 -30 -5 -30 -11 0 -7
10 -9 25 -7 17 4 25 1 25 -8 0 -18 -61 -19 -78 -2 -17 17 -15 54 4 72 18 19
55 21 72 4z"/>
<path d="M5360 6650 c0 -5 4 -10 9 -10 6 0 13 5 16 10 3 6 -1 10 -9 10 -9 0
-16 -4 -16 -10z"/>
<path d="M5660 6690 c0 -5 7 -10 16 -10 8 0 12 5 9 10 -3 6 -10 10 -16 10 -5
0 -9 -4 -9 -10z"/>
<path d="M6890 6710 l0 -250 1435 0 1435 0 0 250 0 250 -1435 0 -1435 0 0
-250z m1190 -15 c0 -68 -2 -75 -20 -75 -18 0 -20 7 -20 75 0 68 2 75 20 75 18
0 20 -7 20 -75z m270 65 c0 -5 -4 -10 -10 -10 -14 0 -12 -27 3 -34 10 -5 10
-7 0 -12 -7 -3 -13 -23 -13 -45 0 -32 -4 -39 -19 -39 -15 0 -20 9 -23 48 -5
56 14 102 42 102 11 0 20 -4 20 -10z m-330 -15 c21 -25 4 -65 -30 -72 -23 -4
-30 -11 -30 -29 0 -17 -6 -24 -20 -24 -18 0 -20 7 -20 70 l0 70 44 0 c26 0 48
-6 56 -15z m230 -9 c0 -8 6 -17 13 -20 10 -5 10 -7 0 -12 -15 -7 -18 -64 -3
-64 6 0 10 -4 10 -10 0 -14 -36 -12 -48 3 -14 18 -21 79 -10 100 11 20 38 23
38 3z m-72 -28 c7 -7 12 -29 12 -50 l0 -38 -44 0 c-31 0 -46 5 -50 16 -8 21
11 44 35 44 11 0 19 5 19 11 0 7 -10 9 -25 5 -24 -6 -33 3 -18 17 11 11 58 8
71 -5z m276 -4 c32 -32 5 -84 -44 -84 -33 0 -50 17 -50 50 0 14 5 31 12 38 17
17 64 15 82 -4z m96 1 c0 -7 -7 -15 -15 -19 -9 -3 -15 -18 -15 -36 0 -20 -5
-30 -15 -30 -11 0 -15 12 -15 49 0 49 1 50 30 49 17 -1 30 -7 30 -13z m170 -6
c6 -10 10 -31 10 -48 0 -24 -4 -31 -19 -31 -16 0 -20 8 -23 38 -2 20 -7 37
-13 37 -5 0 -11 -17 -13 -37 -2 -24 -8 -38 -17 -38 -9 0 -15 14 -17 38 -2 20
-7 37 -13 37 -5 0 -11 -17 -13 -37 -2 -25 -8 -38 -18 -38 -10 0 -14 13 -14 50
l0 50 70 -2 c57 -1 73 -5 80 -19z"/>
<path d="M7960 6715 c0 -17 5 -25 13 -22 6 2 12 12 12 22 0 10 -6 20 -12 23
-8 2 -13 -6 -13 -23z"/>
<path d="M8130 6650 c0 -5 5 -10 10 -10 6 0 10 5 10 10 0 6 -4 10 -10 10 -5 0
-10 -4 -10 -10z"/>
<path d="M8394 6686 c-8 -22 3 -49 19 -43 6 2 12 14 12 27 0 27 -22 39 -31 16z"/>
<path d="M9770 6710 l0 -250 1430 0 1430 0 0 250 0 250 -1430 0 -1430 0 0
-250z m1240 35 c0 -11 -7 -14 -24 -9 -36 9 -41 -13 -8 -30 25 -13 42 -34 42
-51 0 -2 -7 -11 -16 -19 -20 -21 -84 -22 -84 -2 0 10 9 14 26 13 38 -3 39 15
4 35 -51 29 -34 78 27 78 23 0 33 -5 33 -15z m60 -9 c0 -8 6 -17 13 -20 10 -5
10 -7 0 -12 -15 -7 -17 -50 -3 -59 18 -11 10 -26 -12 -23 -18 2 -24 11 -26 38
-2 19 -8 38 -14 41 -6 4 -3 15 8 28 21 24 34 27 34 7z m190 0 c0 -8 6 -17 13
-20 10 -5 10 -7 0 -12 -15 -7 -18 -64 -3 -64 6 0 10 -4 10 -10 0 -5 -11 -10
-25 -10 -25 0 -25 1 -40 74 -2 11 0 28 6 38 11 21 39 24 39 4z m-72 -69 l3
-48 -43 3 c-38 3 -43 6 -43 28 0 20 6 26 28 28 15 2 27 8 27 14 0 6 -10 8 -25
4 -19 -5 -25 -2 -25 9 0 13 9 15 38 13 37 -3 37 -3 40 -51z m142 13 c0 -40 13
-53 24 -24 3 9 6 27 6 40 0 15 6 24 15 24 11 0 15 -12 15 -51 l0 -50 -47 3
-48 3 -3 48 c-3 42 -1 47 17 47 18 0 21 -6 21 -40z m150 25 c0 -9 -6 -12 -15
-9 -8 4 -15 2 -15 -4 0 -5 9 -12 20 -15 24 -6 27 -42 4 -51 -28 -11 -64 -6
-64 8 0 9 7 12 20 9 11 -3 20 -1 20 5 0 5 -9 12 -20 15 -19 5 -27 36 -13 50
13 14 63 7 63 -8z"/>
<path d="M11130 6650 c0 -5 4 -10 9 -10 6 0 13 5 16 10 3 6 -1 10 -9 10 -9 0
-16 -4 -16 -10z"/>
<path d="M12640 6710 l0 -250 1435 0 1435 0 0 250 0 250 -1435 0 -1435 0 0
-250z m1580 -15 l0 -75 -43 0 c-49 0 -67 13 -67 50 0 32 17 50 47 50 18 0 23
6 23 25 0 18 5 25 20 25 18 0 20 -7 20 -75z m-318 28 l23 -38 3 38 c3 29 7 37
23 37 17 0 19 -7 19 -70 0 -62 -2 -70 -19 -70 -11 0 -31 19 -50 48 l-31 47 0
-47 c0 -36 -4 -48 -15 -48 -12 0 -15 14 -15 70 0 62 2 70 19 70 12 0 29 -15
43 -37z m182 -19 c32 -32 5 -84 -44 -84 -33 0 -50 17 -50 50 0 14 5 31 12 38
17 17 64 15 82 -4z m234 4 c7 -7 12 -20 12 -30 0 -13 -8 -18 -30 -18 -16 0
-30 -5 -30 -11 0 -7 10 -9 25 -7 17 4 25 1 25 -8 0 -18 -61 -19 -78 -2 -17 17
-15 54 4 72 18 19 55 21 72 4z"/>
<path d="M14147 6685 c-8 -20 3 -47 17 -42 6 2 11 14 11 27 0 27 -20 38 -28
15z"/>
<path d="M14024 6686 c-8 -22 3 -49 19 -43 6 2 12 14 12 27 0 27 -22 39 -31
16z"/>
<path d="M14270 6690 c0 -5 7 -10 16 -10 8 0 12 5 9 10 -3 6 -10 10 -16 10 -5
0 -9 -4 -9 -10z"/>
<path d="M15520 6710 l0 -250 1435 0 1435 0 0 250 0 250 -1435 0 -1435 0 0
-250z m1450 45 c0 -8 -9 -15 -20 -15 -11 0 -20 7 -20 15 0 8 9 15 20 15 11 0
20 -7 20 -15z m-248 -65 c24 -68 25 -70 6 -70 -11 0 -22 9 -25 20 -3 13 -14
20 -28 20 -14 0 -25 -7 -28 -20 -3 -11 -12 -20 -21 -20 -21 0 -20 3 6 78 18
50 27 62 44 62 17 0 26 -13 46 -70z m178 46 c0 -8 6 -17 13 -20 10 -5 10 -7 0
-12 -15 -7 -18 -64 -3 -64 6 0 10 -4 10 -10 0 -5 -11 -10 -25 -10 -25 0 -25 1
-40 74 -2 11 0 28 6 38 11 21 39 24 39 4z m-60 -29 c0 -8 -10 -13 -22 -13 -18
1 -23 -5 -23 -24 0 -20 5 -25 23 -23 14 2 22 -3 22 -12 0 -20 -54 -20 -74 1
-34 34 -8 84 45 84 17 0 29 -5 29 -13z m130 -37 c0 -43 -3 -50 -20 -50 -17 0
-20 7 -20 50 0 43 3 50 20 50 17 0 20 -7 20 -50z m108 38 c7 -7 12 -24 12 -38
0 -33 -17 -50 -51 -50 -32 0 -59 23 -59 50 0 41 68 68 98 38z m130 -40 c2 -37
0 -48 -12 -48 -10 0 -16 12 -18 37 -4 52 -28 56 -28 4 0 -34 -3 -41 -20 -41
-17 0 -20 7 -20 51 l0 50 48 -3 47 -3 3 -47z m92 38 c0 -9 -7 -12 -22 -9 -21
5 -20 2 7 -20 25 -21 28 -27 16 -41 -17 -20 -71 -22 -71 -2 0 9 7 12 20 9 11
-3 20 -1 20 5 0 5 -9 12 -20 15 -19 5 -27 36 -13 50 13 13 63 7 63 -7z"/>
<path d="M16667 6701 c-3 -14 0 -21 9 -21 16 0 18 9 5 28 -6 10 -10 9 -14 -7z"/>
<path d="M17024 6686 c-8 -22 3 -49 19 -43 6 2 12 14 12 27 0 27 -22 39 -31
16z"/>
<path d="M4010 6150 l0 -300 1435 0 1435 0 0 300 0 300 -1435 0 -1435 0 0
-300z m1190 13 l0 -46 25 23 c14 13 27 21 30 18 3 -2 -4 -13 -15 -23 l-20 -18
27 -29 c32 -33 11 -39 -24 -6 l-23 21 0 -21 c0 -12 -4 -22 -10 -22 -6 0 -10
32 -10 75 0 43 4 75 10 75 6 0 10 -21 10 -47z m170 37 c0 -5 -4 -10 -10 -10
-5 0 -10 5 -10 10 0 6 5 10 10 10 6 0 10 -4 10 -10z m188 -4 c-21 -16 -23 -32
-5 -40 10 -5 10 -7 0 -12 -7 -3 -13 -23 -13 -45 0 -21 -4 -39 -10 -39 -5 0
-10 17 -10 38 0 21 -5 43 -12 50 -9 9 -9 12 0 12 7 0 12 8 12 18 0 24 9 32 34
32 20 -1 20 -2 4 -14z m-493 -6 c-3 -5 -17 -10 -31 -10 -17 0 -24 -5 -24 -20
0 -15 7 -20 25 -20 14 0 25 -4 25 -10 0 -5 -11 -10 -25 -10 -21 0 -25 -5 -25
-30 0 -16 -4 -30 -10 -30 -6 0 -10 30 -10 70 l0 70 41 0 c24 0 38 -4 34 -10z
m245 -14 c0 -8 6 -17 13 -20 10 -5 10 -7 0 -12 -7 -3 -13 -18 -13 -34 0 -16 6
-30 13 -33 6 -2 9 -8 5 -12 -16 -17 -38 5 -38 38 0 18 -5 38 -12 45 -9 9 -9
12 0 12 7 0 12 7 12 15 0 8 5 15 10 15 6 0 10 -6 10 -14z m-156 -32 c3 -9 6
-31 6 -49 0 -32 -1 -33 -37 -32 -31 2 -39 6 -41 25 -3 18 2 23 27 28 17 4 31
11 31 16 0 6 -11 8 -25 6 -17 -4 -25 -1 -25 8 0 20 56 18 64 -2z m216 -34 c0
-27 -4 -50 -10 -50 -5 0 -10 23 -10 50 0 28 5 50 10 50 6 0 10 -22 10 -50z
m107 38 c15 -12 18 -88 4 -88 -6 0 -11 17 -13 38 -2 29 -7 37 -23 37 -16 0
-21 -8 -23 -37 -5 -55 -22 -46 -22 10 0 48 0 49 32 50 18 0 38 -4 45 -10z
m181 0 c7 -7 12 -24 12 -38 0 -14 -5 -31 -12 -38 -7 -7 -24 -12 -38 -12 -14 0
-31 5 -38 12 -7 7 -12 24 -12 38 0 14 5 31 12 38 7 7 24 12 38 12 14 0 31 -5
38 -12z m150 -40 l3 -46 -38 1 c-31 2 -39 6 -41 25 -3 18 2 23 27 28 17 4 31
11 31 16 0 6 -11 8 -25 6 -14 -3 -25 -2 -25 2 0 14 15 21 40 18 22 -3 25 -8
28 -50z m96 40 c-4 -7 -16 -25 -26 -40 l-19 -28 25 0 c14 0 26 -4 26 -10 0 -5
-18 -10 -40 -10 -22 0 -40 3 -40 7 0 3 11 21 26 40 l25 33 -25 0 c-15 0 -26 5
-26 10 0 6 18 10 41 10 29 0 38 -3 33 -12z m-194 -78 c0 -5 -4 -10 -10 -10 -5
0 -10 5 -10 10 0 6 5 10 10 10 6 0 10 -4 10 -10z"/>
<path d="M5100 6090 c0 -5 6 -10 14 -10 8 0 18 5 21 10 3 6 -3 10 -14 10 -12
0 -21 -4 -21 -10z"/>
<path d="M5594 6126 c-10 -26 4 -48 28 -44 17 2 23 10 23 28 0 18 -6 26 -23
28 -13 2 -25 -3 -28 -12z"/>
<path d="M5750 6090 c0 -5 9 -10 20 -10 11 0 20 5 20 10 0 6 -9 10 -20 10 -11
0 -20 -4 -20 -10z"/>
<path d="M6890 6150 l0 -300 1435 0 1435 0 0 300 0 300 -1435 0 -1435 0 0
-300z m1400 31 c0 -25 3 -28 26 -23 30 5 44 -10 44 -48 0 -35 -17 -50 -57 -50
l-33 0 0 75 c0 43 4 75 10 75 6 0 10 -13 10 -29z m200 19 c0 -5 -4 -10 -10
-10 -5 0 -10 5 -10 10 0 6 5 10 10 10 6 0 10 -4 10 -10z m-482 -56 l15 -49 15
53 c17 61 38 68 47 14 11 -65 21 -69 35 -13 6 28 16 51 21 51 13 0 11 -12 -8
-80 -9 -33 -22 -60 -28 -60 -7 0 -19 24 -27 53 l-15 52 -13 -52 c-8 -30 -20
-53 -27 -53 -7 0 -20 26 -29 58 -9 31 -19 63 -22 71 -3 8 0 12 8 9 7 -2 20
-26 28 -54z m532 31 c0 -8 8 -15 18 -15 16 -1 16 -1 0 -14 -22 -16 -24 -66 -3
-66 8 0 15 -4 15 -10 0 -5 -9 -10 -20 -10 -23 0 -37 49 -32 113 2 21 22 23 22
2z m-300 -35 c15 -27 5 -40 -31 -40 -16 0 -29 -4 -29 -10 0 -5 14 -10 30 -10
17 0 30 -4 30 -10 0 -14 -54 -12 -68 2 -7 7 -12 24 -12 38 0 14 5 31 12 38 19
19 56 14 68 -8z m200 10 c0 -5 -9 -10 -20 -10 -26 0 -26 -16 0 -23 26 -7 37
-36 19 -48 -19 -12 -59 -11 -59 1 0 6 12 10 28 10 l27 0 -29 23 c-20 16 -27
29 -23 40 7 18 57 24 57 7z m50 -40 c0 -27 -4 -50 -10 -50 -5 0 -10 23 -10 50
0 28 5 50 10 50 6 0 10 -22 10 -50z m170 35 c19 -23 4 -45 -30 -45 -16 0 -30
-4 -30 -10 0 -5 14 -10 30 -10 17 0 30 -4 30 -10 0 -14 -54 -12 -68 2 -7 7
-12 24 -12 38 0 14 5 31 12 38 17 17 53 15 68 -3z"/>
<path d="M8290 6110 c0 -25 4 -30 25 -30 21 0 25 5 25 30 0 25 -4 30 -25 30
-21 0 -25 -5 -25 -30z"/>
<path d="M8180 6130 c0 -5 12 -10 26 -10 14 0 23 4 19 10 -3 6 -15 10 -26 10
-10 0 -19 -4 -19 -10z"/>
<path d="M8600 6130 c0 -5 12 -10 26 -10 14 0 23 4 19 10 -3 6 -15 10 -26 10
-10 0 -19 -4 -19 -10z"/>
<path d="M9770 6150 l0 -300 1430 0 1430 0 0 300 0 300 -1430 0 -1430 0 0
-300z m1780 180 c18 -18 20 -33 20 -180 0 -147 -2 -162 -20 -180 -19 -19 -33
-20 -350 -20 -317 0 -331 1 -350 20 -18 18 -20 33 -20 180 0 147 2 162 20 180
19 19 33 20 350 20 317 0 331 -1 350 -20z"/>
<path d="M12640 6150 l0 -300 1435 0 1435 0 0 300 0 300 -1435 0 -1435 0 0
-300z m1460 -20 c0 -40 -4 -70 -10 -70 -5 0 -10 25 -10 55 0 44 -3 53 -15 49
-20 -8 -19 6 3 22 29 22 32 17 32 -56z"/>
<path d="M15520 6150 l0 -300 1435 0 1435 0 0 300 0 300 -1435 0 -1435 0 0
-300z m1234 84 c30 -11 17 -49 -31 -96 -70 -67 -124 -78 -102 -20 9 25 96 121
111 122 3 0 13 -3 22 -6z m561 -3 c23 -5 29 -11 26 -26 -2 -11 -6 -54 -10 -95
l-6 -75 -64 -3 c-45 -2 -67 1 -72 10 -5 7 -9 42 -9 79 0 37 -5 70 -12 77 -30
30 65 51 147 33z m-655 -36 c0 -10 -10 -15 -30 -15 l-31 0 3 -57 3 -58 52 -3
52 -3 3 33 c4 45 32 45 36 0 5 -52 -10 -62 -94 -62 -86 0 -94 8 -94 90 0 72
12 90 60 90 29 0 40 -4 40 -15z"/>
<path d="M4010 5540 l0 -300 1435 0 1435 0 0 300 0 300 -1435 0 -1435 0 0
-300z m1770 50 c0 -5 -4 -10 -10 -10 -5 0 -10 5 -10 10 0 6 5 10 10 10 6 0 10
-4 10 -10z m190 0 c0 -5 -4 -10 -10 -10 -5 0 -10 -7 -10 -15 0 -8 5 -15 12
-15 9 0 9 -3 0 -12 -7 -7 -12 -29 -12 -50 0 -21 -4 -38 -10 -38 -5 0 -10 18
-10 39 0 22 -6 42 -12 45 -10 5 -10 7 0 12 6 3 12 14 12 23 0 10 3 21 7 24 10
11 33 8 33 -3z m-1130 -70 c0 -40 -4 -70 -10 -70 -6 0 -10 30 -10 70 0 40 4
70 10 70 6 0 10 -30 10 -70z m170 45 c0 -8 8 -15 18 -15 16 -1 16 -1 0 -14
-22 -16 -24 -66 -3 -66 8 0 15 -5 15 -11 0 -6 -10 -9 -22 -7 -18 2 -24 11 -26
38 -2 19 -8 41 -14 47 -7 9 -7 13 1 13 6 0 11 7 11 15 0 8 5 15 10 15 6 0 10
-7 10 -15z m560 0 c0 -8 8 -15 18 -15 16 -1 16 -1 0 -14 -22 -16 -24 -66 -3
-66 8 0 15 -5 15 -11 0 -6 -10 -9 -22 -7 -18 2 -24 11 -26 38 -2 19 -8 41 -14
47 -7 9 -7 13 1 13 6 0 11 7 11 15 0 8 5 15 10 15 6 0 10 -7 10 -15z m-623
-27 c15 -12 18 -88 4 -88 -6 0 -11 17 -13 38 -2 29 -7 37 -23 37 -16 0 -21 -8
-23 -37 -5 -55 -22 -46 -22 10 0 48 0 49 32 50 18 0 38 -4 45 -10z m183 -8
c15 -27 5 -40 -31 -40 -16 0 -29 -4 -29 -10 0 -5 14 -10 30 -10 17 0 30 -4 30
-10 0 -14 -54 -12 -68 2 -7 7 -12 24 -12 38 0 14 5 31 12 38 19 19 56 14 68
-8z m68 9 c-12 -7 -18 -22 -18 -49 0 -22 -4 -40 -10 -40 -5 0 -10 23 -10 50 0
48 1 50 28 50 23 -1 24 -2 10 -11z m108 0 c19 -15 18 -63 -1 -79 -8 -7 -26
-10 -39 -8 -22 4 -25 1 -29 -26 -2 -17 -5 3 -5 44 l-2 76 31 2 c17 1 38 -3 45
-9z m124 -10 c26 -47 -25 -100 -69 -72 -20 13 -26 60 -10 79 18 22 66 18 79
-7z m90 12 c0 -5 -12 -11 -27 -13 l-28 -4 28 -14 c19 -9 27 -20 25 -34 -3 -24
-44 -34 -61 -17 -8 8 -3 11 16 11 15 0 27 5 27 10 0 6 -4 10 -8 10 -5 0 -17 6
-27 14 -16 12 -17 16 -6 30 14 17 61 22 61 7z m164 -7 c3 -9 6 -31 6 -49 0
-32 -1 -33 -37 -32 -31 2 -39 6 -41 25 -3 18 2 23 27 28 17 4 31 11 31 16 0 6
-11 8 -25 6 -17 -4 -25 -1 -25 8 0 20 56 18 64 -2z m96 -34 c0 -27 -4 -50 -10
-50 -5 0 -10 23 -10 50 0 28 5 50 10 50 6 0 10 -22 10 -50z m110 24 c13 -33
13 -74 0 -74 -5 0 -10 11 -10 24 0 37 -10 56 -31 56 -15 0 -19 -7 -19 -40 0
-22 -4 -40 -10 -40 -5 0 -10 22 -10 48 l0 49 35 1 c30 1 37 -3 45 -24z m180 5
c26 -47 -25 -100 -69 -72 -20 13 -26 60 -10 79 18 22 66 18 79 -7z m-340 -69
c0 -5 -4 -10 -10 -10 -5 0 -10 5 -10 10 0 6 5 10 10 10 6 0 10 -4 10 -10z"/>
<path d="M5070 5520 c0 -5 12 -10 26 -10 14 0 23 4 19 10 -3 6 -15 10 -26 10
-10 0 -19 -4 -19 -10z"/>
<path d="M5247 5516 c-10 -26 4 -47 27 -44 15 2 21 10 21 28 0 29 -38 41 -48
16z"/>
<path d="M5360 5500 c0 -28 3 -31 28 -28 21 2 27 8 27 28 0 20 -6 26 -27 28
-25 3 -28 0 -28 -28z"/>
<path d="M5630 5480 c0 -5 6 -10 14 -10 8 0 18 5 21 10 3 6 -3 10 -14 10 -12
0 -21 -4 -21 -10z"/>
<path d="M6000 5500 c0 -28 3 -31 28 -28 21 2 27 8 27 28 0 20 -6 26 -27 28
-25 3 -28 0 -28 -28z"/>
<path d="M6890 5540 l0 -300 1435 0 1435 0 0 300 0 300 -1435 0 -1435 0 0
-300z m1400 31 c0 -25 3 -28 26 -23 30 5 44 -10 44 -48 0 -35 -17 -50 -57 -50
l-33 0 0 75 c0 43 4 75 10 75 6 0 10 -13 10 -29z m200 19 c0 -5 -4 -10 -10
-10 -5 0 -10 5 -10 10 0 6 5 10 10 10 6 0 10 -4 10 -10z m-482 -56 l15 -49 15
53 c17 61 38 68 47 14 11 -65 21 -69 35 -13 6 28 16 51 21 51 13 0 11 -12 -8
-80 -9 -33 -22 -60 -28 -60 -7 0 -19 24 -27 53 l-15 52 -13 -52 c-8 -30 -20
-53 -27 -53 -7 0 -20 26 -29 58 -9 31 -19 63 -22 71 -3 8 0 12 8 9 7 -2 20
-26 28 -54z m532 31 c0 -8 8 -15 18 -15 16 -1 16 -1 0 -14 -22 -16 -24 -66 -3
-66 8 0 15 -4 15 -10 0 -5 -9 -10 -20 -10 -23 0 -37 49 -32 113 2 21 22 23 22
2z m-300 -35 c15 -27 5 -40 -31 -40 -16 0 -29 -4 -29 -10 0 -5 14 -10 30 -10
17 0 30 -4 30 -10 0 -14 -54 -12 -68 2 -7 7 -12 24 -12 38 0 14 5 31 12 38 19
19 56 14 68 -8z m200 10 c0 -5 -9 -10 -20 -10 -26 0 -26 -16 0 -23 26 -7 37
-36 19 -48 -19 -12 -59 -11 -59 1 0 6 12 10 28 10 l27 0 -29 23 c-20 16 -27
29 -23 40 7 18 57 24 57 7z m50 -40 c0 -27 -4 -50 -10 -50 -5 0 -10 23 -10 50
0 28 5 50 10 50 6 0 10 -22 10 -50z m170 35 c19 -23 4 -45 -30 -45 -16 0 -30
-4 -30 -10 0 -5 14 -10 30 -10 17 0 30 -4 30 -10 0 -14 -54 -12 -68 2 -7 7
-12 24 -12 38 0 14 5 31 12 38 17 17 53 15 68 -3z"/>
<path d="M8290 5500 c0 -25 4 -30 25 -30 21 0 25 5 25 30 0 25 -4 30 -25 30
-21 0 -25 -5 -25 -30z"/>
<path d="M8180 5520 c0 -5 12 -10 26 -10 14 0 23 4 19 10 -3 6 -15 10 -26 10
-10 0 -19 -4 -19 -10z"/>
<path d="M8600 5520 c0 -5 12 -10 26 -10 14 0 23 4 19 10 -3 6 -15 10 -26 10
-10 0 -19 -4 -19 -10z"/>
<path d="M9770 5540 l0 -300 1430 0 1430 0 0 300 0 300 -1430 0 -1430 0 0
-300z m1780 180 c18 -18 20 -33 20 -180 0 -147 -2 -162 -20 -180 -19 -19 -33
-20 -350 -20 -317 0 -331 1 -350 20 -18 18 -20 33 -20 180 0 147 2 162 20 180
19 19 33 20 350 20 317 0 331 -1 350 -20z"/>
<path d="M12640 5540 l0 -300 1435 0 1435 0 0 300 0 300 -1435 0 -1435 0 0
-300z m1468 38 c20 -20 14 -45 -18 -71 -16 -14 -30 -28 -30 -31 0 -3 14 -6 30
-6 17 0 30 -4 30 -10 0 -5 -20 -10 -45 -10 -55 0 -57 12 -10 54 45 42 47 70 5
64 -29 -4 -37 1 -23 15 11 11 48 8 61 -5z"/>
<path d="M15520 5540 l0 -300 1435 0 1435 0 0 300 0 300 -1435 0 -1435 0 0
-300z m1234 84 c30 -11 17 -49 -31 -96 -70 -67 -124 -78 -102 -20 9 25 96 121
111 122 3 0 13 -3 22 -6z m561 -3 c23 -5 29 -11 26 -26 -2 -11 -6 -54 -10 -95
l-6 -75 -64 -3 c-45 -2 -67 1 -72 10 -5 7 -9 42 -9 79 0 37 -5 70 -12 77 -30
30 65 51 147 33z m-655 -36 c0 -10 -10 -15 -30 -15 l-31 0 3 -57 3 -58 52 -3
52 -3 3 33 c4 45 32 45 36 0 5 -52 -10 -62 -94 -62 -86 0 -94 8 -94 90 0 72
12 90 60 90 29 0 40 -4 40 -15z"/>
<path d="M4010 4930 l0 -300 1435 0 1435 0 0 300 0 300 -1435 0 -1435 0 0
-300z m1010 13 c0 -46 1 -47 16 -25 8 12 22 22 31 22 13 0 12 -5 -7 -25 l-23
-25 23 -25 c14 -14 18 -25 11 -25 -7 0 -21 10 -32 23 l-18 22 -1 -22 c0 -13
-4 -23 -10 -23 -6 0 -10 32 -10 75 0 43 4 75 10 75 6 0 10 -21 10 -47z m420
-28 c0 -43 -4 -75 -10 -75 -6 0 -10 32 -10 75 0 43 4 75 10 75 6 0 10 -32 10
-75z m80 -5 c0 -40 -4 -70 -10 -70 -5 0 -10 25 -10 55 0 44 -3 53 -15 49 -24
-10 -17 12 8 24 12 6 23 11 25 11 1 1 2 -30 2 -69z m120 26 c0 -26 5 -47 13
-50 10 -5 10 -7 0 -12 -7 -3 -13 -12 -13 -20 0 -8 -4 -14 -10 -14 -5 0 -10 7
-10 15 0 10 -10 15 -30 15 -16 0 -30 4 -30 10 0 13 62 100 72 100 4 0 8 -20 8
-44z m-470 -15 c5 -11 10 -33 10 -50 0 -29 -2 -31 -40 -31 -27 0 -43 5 -46 15
-9 21 14 45 43 45 15 0 22 4 17 11 -3 6 -17 9 -30 6 -13 -2 -24 -1 -24 3 0 26
56 27 70 1z m112 6 c11 -18 10 -87 -2 -87 -5 0 -10 18 -10 41 0 36 -2 40 -22
37 -19 -2 -24 -10 -26 -40 -5 -55 -22 -46 -22 10 l0 49 37 1 c20 1 41 -4 45
-11z m106 -39 l3 -46 -38 1 c-31 2 -39 6 -41 25 -3 18 2 23 27 28 17 4 31 11
31 16 0 6 -11 8 -25 6 -14 -3 -25 -2 -25 2 0 14 15 21 40 18 22 -3 25 -8 28
-50z m410 0 l3 -46 -38 1 c-31 2 -39 6 -41 25 -3 18 2 23 27 28 17 4 31 11 31
16 0 6 -11 8 -25 6 -14 -3 -25 -2 -25 2 0 14 15 21 40 18 22 -3 25 -8 28 -50z
m96 40 c-4 -7 -16 -25 -26 -40 l-19 -28 25 0 c14 0 26 -4 26 -10 0 -5 -18 -10
-40 -10 -22 0 -40 3 -40 7 0 3 11 21 26 40 l25 33 -25 0 c-15 0 -26 5 -26 10
0 6 18 10 41 10 29 0 38 -3 33 -12z m-194 -78 c0 -5 -4 -10 -10 -10 -5 0 -10
5 -10 10 0 6 5 10 10 10 6 0 10 -4 10 -10z"/>
<path d="M5597 4915 c-17 -24 -17 -25 3 -25 15 0 20 6 20 25 0 30 -1 30 -23 0z"/>
<path d="M5110 4870 c0 -5 9 -10 20 -10 11 0 20 5 20 10 0 6 -9 10 -20 10 -11
0 -20 -4 -20 -10z"/>
<path d="M5330 4870 c0 -5 9 -10 20 -10 11 0 20 5 20 10 0 6 -9 10 -20 10 -11
0 -20 -4 -20 -10z"/>
<path d="M5740 4870 c0 -5 9 -10 20 -10 11 0 20 5 20 10 0 6 -9 10 -20 10 -11
0 -20 -4 -20 -10z"/>
<path d="M6890 4930 l0 -300 1435 0 1435 0 0 300 0 300 -1435 0 -1435 0 0
-300z m1400 31 c0 -25 3 -28 26 -23 30 5 44 -10 44 -48 0 -35 -17 -50 -57 -50
l-33 0 0 75 c0 43 4 75 10 75 6 0 10 -13 10 -29z m200 19 c0 -5 -4 -10 -10
-10 -5 0 -10 5 -10 10 0 6 5 10 10 10 6 0 10 -4 10 -10z m-482 -56 l15 -49 15
53 c17 61 38 68 47 14 11 -65 21 -69 35 -13 6 28 16 51 21 51 13 0 11 -12 -8
-80 -9 -33 -22 -60 -28 -60 -7 0 -19 24 -27 53 l-15 52 -13 -52 c-8 -30 -20
-53 -27 -53 -7 0 -20 26 -29 58 -9 31 -19 63 -22 71 -3 8 0 12 8 9 7 -2 20
-26 28 -54z m532 31 c0 -8 8 -15 18 -15 16 -1 16 -1 0 -14 -22 -16 -24 -66 -3
-66 8 0 15 -4 15 -10 0 -5 -9 -10 -20 -10 -23 0 -37 49 -32 113 2 21 22 23 22
2z m-300 -35 c15 -27 5 -40 -31 -40 -16 0 -29 -4 -29 -10 0 -5 14 -10 30 -10
17 0 30 -4 30 -10 0 -14 -54 -12 -68 2 -7 7 -12 24 -12 38 0 14 5 31 12 38 19
19 56 14 68 -8z m200 10 c0 -5 -9 -10 -20 -10 -26 0 -26 -16 0 -23 26 -7 37
-36 19 -48 -19 -12 -59 -11 -59 1 0 6 12 10 28 10 l27 0 -29 23 c-20 16 -27
29 -23 40 7 18 57 24 57 7z m50 -40 c0 -27 -4 -50 -10 -50 -5 0 -10 23 -10 50
0 28 5 50 10 50 6 0 10 -22 10 -50z m170 35 c19 -23 4 -45 -30 -45 -16 0 -30
-4 -30 -10 0 -5 14 -10 30 -10 17 0 30 -4 30 -10 0 -14 -54 -12 -68 2 -7 7
-12 24 -12 38 0 14 5 31 12 38 17 17 53 15 68 -3z"/>
<path d="M8290 4890 c0 -25 4 -30 25 -30 21 0 25 5 25 30 0 25 -4 30 -25 30
-21 0 -25 -5 -25 -30z"/>
<path d="M8180 4910 c0 -5 12 -10 26 -10 14 0 23 4 19 10 -3 6 -15 10 -26 10
-10 0 -19 -4 -19 -10z"/>
<path d="M8600 4910 c0 -5 12 -10 26 -10 14 0 23 4 19 10 -3 6 -15 10 -26 10
-10 0 -19 -4 -19 -10z"/>
<path d="M9770 4930 l0 -300 1430 0 1430 0 0 300 0 300 -1430 0 -1430 0 0
-300z m1780 180 c18 -18 20 -33 20 -180 0 -147 -2 -162 -20 -180 -19 -19 -33
-20 -350 -20 -317 0 -331 1 -350 20 -18 18 -20 33 -20 180 0 147 2 162 20 180
19 19 33 20 350 20 317 0 331 -1 350 -20z"/>
<path d="M12640 4930 l0 -300 1435 0 1435 0 0 300 0 300 -1435 0 -1435 0 0
-300z m1470 36 c8 -10 8 -20 2 -32 -7 -12 -6 -24 1 -36 17 -26 -3 -52 -42 -56
-17 -2 -31 1 -31 7 0 5 12 11 28 13 33 4 37 32 5 36 -29 4 -29 14 -2 27 29 13
26 29 -6 33 -14 2 -25 8 -25 13 0 15 56 10 70 -5z"/>
<path d="M15520 4930 l0 -300 1435 0 1435 0 0 300 0 300 -1435 0 -1435 0 0
-300z m1234 84 c30 -11 17 -49 -31 -96 -70 -67 -124 -78 -102 -20 9 25 96 121
111 122 3 0 13 -3 22 -6z m561 -3 c23 -5 29 -11 26 -26 -2 -11 -6 -54 -10 -95
l-6 -75 -64 -3 c-45 -2 -67 1 -72 10 -5 7 -9 42 -9 79 0 37 -5 70 -12 77 -30
30 65 51 147 33z m-655 -36 c0 -10 -10 -15 -30 -15 l-31 0 3 -57 3 -58 52 -3
52 -3 3 33 c4 45 32 45 36 0 5 -52 -10 -62 -94 -62 -86 0 -94 8 -94 90 0 72
12 90 60 90 29 0 40 -4 40 -15z"/>
<path d="M4010 4320 l0 -300 1435 0 1435 0 0 300 0 300 -1435 0 -1435 0 0
-300z m1110 50 c0 -5 -4 -10 -10 -10 -5 0 -10 5 -10 10 0 6 5 10 10 10 6 0 10
-4 10 -10z m50 -65 c0 -43 -4 -75 -10 -75 -6 0 -10 32 -10 75 0 43 4 75 10 75
6 0 10 -32 10 -75z m50 0 c0 -43 -4 -75 -10 -75 -6 0 -10 32 -10 75 0 43 4 75
10 75 6 0 10 -32 10 -75z m50 65 c0 -5 -7 -10 -15 -10 -8 0 -15 5 -15 10 0 6
7 10 15 10 8 0 15 -4 15 -10z m130 -19 c0 -24 3 -28 20 -24 31 8 50 -15 50
-58 0 -50 -18 -51 -22 -1 -2 29 -7 37 -23 37 -16 0 -21 -8 -23 -37 -6 -68 -22
-40 -22 37 0 43 4 75 10 75 6 0 10 -13 10 -29z m-332 -73 c2 -29 -1 -48 -7
-48 -6 0 -11 18 -11 41 0 33 -3 40 -17 37 -13 -2 -19 -14 -21 -41 -4 -50 -22
-48 -22 3 0 33 -3 40 -20 40 -17 0 -20 -7 -20 -40 0 -22 -4 -40 -10 -40 -5 0
-10 22 -10 49 l0 48 68 -1 67 -1 3 -47z m52 2 c0 -27 -4 -50 -10 -50 -5 0 -10
23 -10 50 0 28 5 50 10 50 6 0 10 -22 10 -50z m137 -27 c-2 -16 -4 -3 -4 27 0
30 2 43 4 28 2 -16 2 -40 0 -55z m93 67 c0 -5 -9 -10 -20 -10 -26 0 -26 -16 0
-23 26 -7 37 -36 19 -48 -19 -12 -59 -11 -59 1 0 6 12 10 28 10 l27 0 -29 23
c-20 16 -27 29 -23 40 7 18 57 24 57 7z m230 -11 c26 -47 -25 -100 -69 -72
-20 13 -26 60 -10 79 18 22 66 18 79 -7z m47 -11 l10 -33 13 33 c6 17 16 32
21 32 4 0 13 -15 18 -32 l9 -33 12 33 c7 17 16 32 21 32 12 0 12 2 -7 -53 -16
-46 -31 -60 -38 -34 -16 51 -19 53 -29 20 -12 -40 -32 -43 -41 -5 -3 15 -8 37
-12 50 -10 35 12 26 23 -10z m241 -20 l3 -48 -36 0 c-23 0 -38 6 -41 15 -8 20
13 45 37 45 11 0 19 5 19 11 0 7 -10 9 -25 7 -14 -3 -25 -2 -25 2 0 14 15 21
40 18 22 -3 25 -8 28 -50z m102 46 c0 -3 -12 -21 -26 -40 l-26 -34 26 0 c14 0
26 -4 26 -10 0 -5 -18 -10 -40 -10 -22 0 -40 3 -40 6 0 3 12 21 26 40 25 33
25 34 6 34 -12 0 -24 5 -27 10 -4 6 10 10 34 10 23 0 41 -3 41 -6z m-200 -84
c0 -5 -4 -10 -10 -10 -5 0 -10 5 -10 10 0 6 5 10 10 10 6 0 10 -4 10 -10z"/>
<path d="M5510 4280 c0 -28 3 -31 28 -28 21 2 27 8 27 28 0 20 -6 26 -27 28
-25 3 -28 0 -28 -28z"/>
<path d="M5810 4260 c0 -5 9 -10 20 -10 11 0 20 5 20 10 0 6 -9 10 -20 10 -11
0 -20 -4 -20 -10z"/>
<path d="M6890 4320 l0 -300 1435 0 1435 0 0 300 0 300 -1435 0 -1435 0 0
-300z m1400 31 c0 -25 3 -28 26 -23 30 5 44 -10 44 -48 0 -35 -17 -50 -57 -50
l-33 0 0 75 c0 43 4 75 10 75 6 0 10 -13 10 -29z m200 19 c0 -5 -4 -10 -10
-10 -5 0 -10 5 -10 10 0 6 5 10 10 10 6 0 10 -4 10 -10z m-482 -56 l15 -49 15
53 c17 61 38 68 47 14 11 -65 21 -69 35 -13 6 28 16 51 21 51 13 0 11 -12 -8
-80 -9 -33 -22 -60 -28 -60 -7 0 -19 24 -27 53 l-15 52 -13 -52 c-8 -30 -20
-53 -27 -53 -7 0 -20 26 -29 58 -9 31 -19 63 -22 71 -3 8 0 12 8 9 7 -2 20
-26 28 -54z m532 31 c0 -8 8 -15 18 -15 16 -1 16 -1 0 -14 -22 -16 -24 -66 -3
-66 8 0 15 -4 15 -10 0 -5 -9 -10 -20 -10 -23 0 -37 49 -32 113 2 21 22 23 22
2z m-300 -35 c15 -27 5 -40 -31 -40 -16 0 -29 -4 -29 -10 0 -5 14 -10 30 -10
17 0 30 -4 30 -10 0 -14 -54 -12 -68 2 -7 7 -12 24 -12 38 0 14 5 31 12 38 19
19 56 14 68 -8z m200 10 c0 -5 -9 -10 -20 -10 -26 0 -26 -16 0 -23 26 -7 37
-36 19 -48 -19 -12 -59 -11 -59 1 0 6 12 10 28 10 l27 0 -29 23 c-20 16 -27
29 -23 40 7 18 57 24 57 7z m50 -40 c0 -27 -4 -50 -10 -50 -5 0 -10 23 -10 50
0 28 5 50 10 50 6 0 10 -22 10 -50z m170 35 c19 -23 4 -45 -30 -45 -16 0 -30
-4 -30 -10 0 -5 14 -10 30 -10 17 0 30 -4 30 -10 0 -14 -54 -12 -68 2 -7 7
-12 24 -12 38 0 14 5 31 12 38 17 17 53 15 68 -3z"/>
<path d="M8290 4280 c0 -25 4 -30 25 -30 21 0 25 5 25 30 0 25 -4 30 -25 30
-21 0 -25 -5 -25 -30z"/>
<path d="M8180 4300 c0 -5 12 -10 26 -10 14 0 23 4 19 10 -3 6 -15 10 -26 10
-10 0 -19 -4 -19 -10z"/>
<path d="M8600 4300 c0 -5 12 -10 26 -10 14 0 23 4 19 10 -3 6 -15 10 -26 10
-10 0 -19 -4 -19 -10z"/>
<path d="M9770 4320 l0 -300 1430 0 1430 0 0 300 0 300 -1430 0 -1430 0 0
-300z m1780 180 c18 -18 20 -33 20 -180 0 -147 -2 -162 -20 -180 -19 -19 -33
-20 -350 -20 -317 0 -331 1 -350 20 -18 18 -20 33 -20 180 0 147 2 162 20 180
19 19 33 20 350 20 317 0 331 -1 350 -20z"/>
<path d="M12640 4320 l0 -300 1435 0 1435 0 0 300 0 300 -1435 0 -1435 0 0
-300z m1470 5 c0 -25 4 -45 9 -45 5 0 4 -11 -2 -25 -13 -28 -27 -33 -27 -10 0
10 -10 15 -30 15 -16 0 -30 5 -30 11 0 14 61 99 72 99 4 0 8 -20 8 -45z"/>
<path d="M14066 4305 c-16 -24 -16 -25 4 -25 15 0 20 7 20 25 0 14 -2 25 -4
25 -2 0 -11 -11 -20 -25z"/>
<path d="M15520 4320 l0 -300 1435 0 1435 0 0 300 0 300 -1435 0 -1435 0 0
-300z m1234 84 c30 -11 17 -49 -31 -96 -70 -67 -124 -78 -102 -20 9 25 96 121
111 122 3 0 13 -3 22 -6z m561 -3 c23 -5 29 -11 26 -26 -2 -11 -6 -54 -10 -95
l-6 -75 -64 -3 c-45 -2 -67 1 -72 10 -5 7 -9 42 -9 79 0 37 -5 70 -12 77 -30
30 65 51 147 33z m-655 -36 c0 -10 -10 -15 -30 -15 l-31 0 3 -57 3 -58 52 -3
52 -3 3 33 c4 45 32 45 36 0 5 -52 -10 -62 -94 -62 -86 0 -94 8 -94 90 0 72
12 90 60 90 29 0 40 -4 40 -15z"/>
<path d="M4010 3710 l0 -300 1435 0 1435 0 0 300 0 300 -1435 0 -1435 0 0
-300z m1040 50 c0 -5 -4 -10 -10 -10 -5 0 -10 5 -10 10 0 6 5 10 10 10 6 0 10
-4 10 -10z m37 -102 c-2 -24 -4 -7 -4 37 0 44 2 63 4 43 2 -21 2 -57 0 -80z
m53 37 c0 -43 -4 -75 -10 -75 -6 0 -10 32 -10 75 0 43 4 75 10 75 6 0 10 -32
10 -75z m230 65 c0 -5 -7 -10 -15 -10 -8 0 -15 5 -15 10 0 6 7 10 15 10 8 0
15 -4 15 -10z m430 0 c0 -5 -4 -10 -10 -10 -5 0 -10 5 -10 10 0 6 5 10 10 10
6 0 10 -4 10 -10z m-500 -25 c0 -8 8 -15 18 -15 16 -1 16 -1 0 -14 -22 -16
-24 -66 -3 -66 8 0 15 -4 15 -10 0 -5 -9 -10 -20 -10 -23 0 -37 49 -32 113 2
21 22 23 22 2z m-308 -28 c11 -18 10 -87 -2 -87 -5 0 -10 18 -10 40 0 33 -3
40 -20 40 -17 0 -20 -7 -20 -40 0 -22 -4 -40 -10 -40 -5 0 -10 16 -10 35 0 23
-6 38 -15 42 -21 7 -27 0 -35 -44 -8 -38 -8 -37 -9 13 l-1 50 62 1 c38 1 66
-3 70 -10z m58 -37 c0 -27 -4 -50 -10 -50 -5 0 -10 23 -10 50 0 28 5 50 10 50
6 0 10 -22 10 -50z m200 30 c15 -27 5 -40 -31 -40 -16 0 -29 -4 -29 -10 0 -5
14 -10 30 -10 17 0 30 -4 30 -10 0 -14 -54 -12 -68 2 -7 7 -12 24 -12 38 0 14
5 31 12 38 19 19 56 14 68 -8z m107 -57 c-2 -16 -4 -3 -4 27 0 30 2 43 4 28 2
-16 2 -40 0 -55z m115 64 c11 -18 10 -87 -2 -87 -5 0 -10 18 -10 41 0 36 -2
40 -22 37 -19 -2 -24 -10 -26 -40 -5 -55 -22 -46 -22 10 l0 49 37 1 c20 1 41
-4 45 -11z m88 3 c0 -5 -9 -10 -20 -10 -26 0 -26 -16 0 -23 26 -7 37 -36 19
-48 -19 -12 -59 -11 -59 1 0 6 12 10 28 10 l27 0 -29 23 c-20 16 -27 29 -23
40 7 18 57 24 57 7z m108 -22 c3 -25 0 -28 -27 -28 -17 0 -31 -4 -31 -10 0 -5
14 -10 31 -10 17 0 28 -4 24 -10 -11 -18 -64 -11 -75 9 -22 43 3 84 49 79 20
-2 27 -9 29 -30z m82 22 c0 -5 -9 -10 -20 -10 -26 0 -26 -16 0 -23 26 -7 37
-36 19 -48 -19 -12 -59 -11 -59 1 0 6 12 10 28 10 l27 0 -29 23 c-20 16 -27
29 -23 40 7 18 57 24 57 7z m50 -40 c0 -27 -4 -50 -10 -50 -5 0 -10 23 -10 50
0 28 5 50 10 50 6 0 10 -22 10 -50z m144 34 c3 -9 6 -31 6 -49 0 -32 -1 -33
-37 -32 -31 2 -39 6 -41 25 -3 18 2 23 27 28 17 4 31 11 31 16 0 6 -11 8 -25
6 -17 -4 -25 -1 -25 8 0 20 56 18 64 -2z m82 -18 c-31 -41 -32 -46 -7 -46 11
0 23 -4 26 -10 4 -6 -12 -10 -41 -10 -46 0 -46 0 -30 23 36 50 38 57 16 57
-11 0 -20 5 -20 10 0 6 19 10 41 10 l41 0 -26 -34z m-176 -56 c0 -5 -7 -10
-15 -10 -8 0 -15 5 -15 10 0 6 7 10 15 10 8 0 15 -4 15 -10z"/>
<path d="M5190 3690 c0 -5 12 -10 26 -10 14 0 23 4 19 10 -3 6 -15 10 -26 10
-10 0 -19 -4 -19 -10z"/>
<path d="M5610 3690 c0 -5 9 -10 20 -10 11 0 20 5 20 10 0 6 -9 10 -20 10 -11
0 -20 -4 -20 -10z"/>
<path d="M5890 3650 c0 -5 6 -10 14 -10 8 0 18 5 21 10 3 6 -3 10 -14 10 -12
0 -21 -4 -21 -10z"/>
<path d="M6890 3710 l0 -300 1435 0 1435 0 0 300 0 300 -1435 0 -1435 0 0
-300z m1400 31 c0 -25 3 -28 26 -23 30 5 44 -10 44 -48 0 -35 -17 -50 -57 -50
l-33 0 0 75 c0 43 4 75 10 75 6 0 10 -13 10 -29z m200 19 c0 -5 -4 -10 -10
-10 -5 0 -10 5 -10 10 0 6 5 10 10 10 6 0 10 -4 10 -10z m-482 -56 l15 -49 15
53 c17 61 38 68 47 14 11 -65 21 -69 35 -13 6 28 16 51 21 51 13 0 11 -12 -8
-80 -9 -33 -22 -60 -28 -60 -7 0 -19 24 -27 53 l-15 52 -13 -52 c-8 -30 -20
-53 -27 -53 -7 0 -20 26 -29 58 -9 31 -19 63 -22 71 -3 8 0 12 8 9 7 -2 20
-26 28 -54z m532 31 c0 -8 8 -15 18 -15 16 -1 16 -1 0 -14 -22 -16 -24 -66 -3
-66 8 0 15 -4 15 -10 0 -5 -9 -10 -20 -10 -23 0 -37 49 -32 113 2 21 22 23 22
2z m-300 -35 c15 -27 5 -40 -31 -40 -16 0 -29 -4 -29 -10 0 -5 14 -10 30 -10
17 0 30 -4 30 -10 0 -14 -54 -12 -68 2 -7 7 -12 24 -12 38 0 14 5 31 12 38 19
19 56 14 68 -8z m200 10 c0 -5 -9 -10 -20 -10 -26 0 -26 -16 0 -23 26 -7 37
-36 19 -48 -19 -12 -59 -11 -59 1 0 6 12 10 28 10 l27 0 -29 23 c-20 16 -27
29 -23 40 7 18 57 24 57 7z m50 -40 c0 -27 -4 -50 -10 -50 -5 0 -10 23 -10 50
0 28 5 50 10 50 6 0 10 -22 10 -50z m170 35 c19 -23 4 -45 -30 -45 -16 0 -30
-4 -30 -10 0 -5 14 -10 30 -10 17 0 30 -4 30 -10 0 -14 -54 -12 -68 2 -7 7
-12 24 -12 38 0 14 5 31 12 38 17 17 53 15 68 -3z"/>
<path d="M8290 3670 c0 -25 4 -30 25 -30 21 0 25 5 25 30 0 25 -4 30 -25 30
-21 0 -25 -5 -25 -30z"/>
<path d="M8180 3690 c0 -5 12 -10 26 -10 14 0 23 4 19 10 -3 6 -15 10 -26 10
-10 0 -19 -4 -19 -10z"/>
<path d="M8600 3690 c0 -5 12 -10 26 -10 14 0 23 4 19 10 -3 6 -15 10 -26 10
-10 0 -19 -4 -19 -10z"/>
<path d="M9770 3710 l0 -300 1430 0 1430 0 0 300 0 300 -1430 0 -1430 0 0
-300z m1560 50 c0 -5 -7 -10 -15 -10 -8 0 -15 5 -15 10 0 6 7 10 15 10 8 0 15
-4 15 -10z m-430 -70 c0 -40 -4 -70 -10 -70 -6 0 -10 30 -10 70 0 40 4 70 10
70 6 0 10 -30 10 -70z m360 45 c0 -8 7 -15 15 -15 8 0 15 -4 15 -10 0 -5 -7
-10 -15 -10 -9 0 -15 -9 -15 -25 0 -14 7 -28 15 -31 23 -9 18 -26 -7 -22 -19
2 -24 10 -26 41 -3 37 -4 38 -40 35 -32 -3 -37 -6 -37 -28 0 -20 6 -26 28 -28
39 -5 34 -22 -7 -22 -35 0 -46 12 -46 54 0 32 19 46 62 46 27 0 38 4 38 15 0
8 5 15 10 15 6 0 10 -7 10 -15z m-246 -31 c12 -32 7 -84 -9 -84 -11 0 -15 11
-15 41 0 33 -3 40 -17 37 -13 -2 -19 -14 -21 -41 -5 -55 -22 -45 -22 13 l0 50
39 0 c26 0 41 -5 45 -16z m104 -36 l3 -48 -41 0 c-27 0 -43 5 -46 15 -9 21 14
45 43 45 15 0 22 4 17 11 -3 6 -17 8 -30 5 -13 -4 -24 -3 -24 2 0 16 14 23 45
20 28 -3 30 -6 33 -50z m212 2 c0 -38 -4 -50 -15 -50 -11 0 -15 12 -15 50 0
38 4 50 15 50 11 0 15 -12 15 -50z m45 9 l12 -34 12 38 c7 20 19 37 26 37 11
0 9 -11 -7 -50 -11 -27 -26 -50 -33 -50 -11 0 -45 71 -45 94 0 20 25 -4 35
-35z m155 15 c14 -35 14 -34 -25 -34 -19 0 -35 -4 -35 -10 0 -5 14 -10 30 -10
17 0 30 -4 30 -10 0 -14 -64 -12 -78 2 -7 7 -12 24 -12 38 0 34 17 50 52 50
21 0 31 -6 38 -26z"/>
<path d="M11060 3650 c0 -5 6 -10 14 -10 8 0 18 5 21 10 3 6 -3 10 -14 10 -12
0 -21 -4 -21 -10z"/>
<path d="M11470 3690 c0 -5 9 -10 20 -10 11 0 20 5 20 10 0 6 -9 10 -20 10
-11 0 -20 -4 -20 -10z"/>
<path d="M12640 3710 l0 -300 1435 0 1435 0 0 300 0 300 -1435 0 -1435 0 0
-300z m1475 40 c-3 -5 -17 -10 -31 -10 -15 0 -24 -6 -24 -15 0 -8 8 -15 18
-15 24 0 42 -19 42 -45 0 -29 -19 -45 -52 -45 -36 0 -37 18 0 22 33 4 39 41 7
46 -30 6 -37 16 -29 46 5 22 12 26 41 26 20 0 32 -4 28 -10z"/>
<path d="M15520 3710 l0 -300 1435 0 1435 0 0 300 0 300 -1435 0 -1435 0 0
-300z m1234 84 c30 -11 17 -49 -31 -96 -70 -67 -124 -78 -102 -20 9 25 96 121
111 122 3 0 13 -3 22 -6z m561 -3 c23 -5 29 -11 26 -26 -2 -11 -6 -54 -10 -95
l-6 -75 -64 -3 c-45 -2 -67 1 -72 10 -5 7 -9 42 -9 79 0 37 -5 70 -12 77 -30
30 65 51 147 33z m-655 -36 c0 -10 -10 -15 -30 -15 l-31 0 3 -57 3 -58 52 -3
52 -3 3 33 c4 45 32 45 36 0 5 -52 -10 -62 -94 -62 -86 0 -94 8 -94 90 0 72
12 90 60 90 29 0 40 -4 40 -15z"/>
<path d="M4010 3100 l0 -300 1435 0 1435 0 0 300 0 300 -1435 0 -1435 0 0
-300z m1150 -14 c0 -71 -1 -75 -22 -74 -57 0 -68 7 -68 41 0 39 15 57 47 57
18 0 23 6 23 25 0 14 5 25 10 25 6 0 10 -31 10 -74z m520 46 c0 -24 4 -27 31
-27 40 0 57 -24 43 -62 -8 -24 -15 -28 -52 -29 l-42 -2 0 74 c0 43 4 74 10 74
6 0 10 -12 10 -28z m-860 -83 c0 -39 -5 -63 -16 -73 -17 -18 -74 -22 -74 -6 0
6 14 10 30 10 17 0 30 2 30 4 0 2 3 11 6 19 4 11 -1 13 -20 10 -47 -9 -70 31
-46 78 8 14 20 18 50 17 l40 -1 0 -58z m42 24 c2 -30 7 -38 23 -38 16 0 21 8
23 38 5 54 22 45 22 -11 0 -48 0 -49 -32 -50 -44 -1 -58 13 -58 59 0 50 18 51
22 2z m175 25 c15 -12 18 -88 4 -88 -6 0 -11 17 -13 38 -2 29 -7 37 -23 37
-16 0 -21 -8 -23 -37 -5 -55 -22 -46 -22 10 0 48 0 49 32 50 18 0 38 -4 45
-10z m231 -20 c3 -25 0 -28 -27 -28 -17 0 -31 -4 -31 -10 0 -5 14 -10 31 -10
17 0 28 -4 24 -10 -11 -18 -64 -11 -75 9 -22 43 3 84 49 79 20 -2 27 -9 29
-30z m164 19 c11 -18 10 -87 -2 -87 -5 0 -10 18 -10 40 0 33 -3 40 -20 40 -17
0 -20 -7 -20 -40 0 -22 -4 -40 -10 -40 -5 0 -10 16 -10 35 0 23 -6 38 -15 42
-21 7 -27 0 -35 -44 -8 -38 -8 -37 -9 13 l-1 50 62 1 c38 1 66 -3 70 -10z m57
-4 c9 -17 11 -17 25 2 20 27 32 12 13 -16 -14 -19 -14 -24 0 -45 9 -14 11 -24
5 -24 -6 0 -15 8 -21 18 -9 16 -11 16 -25 -3 -19 -26 -32 -14 -14 14 10 17 10
25 0 41 -14 24 -15 30 -2 30 5 0 13 -8 19 -17z m139 5 c7 -7 12 -20 12 -30 0
-14 -8 -18 -36 -18 -21 0 -33 -4 -29 -10 3 -5 20 -10 36 -10 18 0 28 -4 24
-10 -3 -5 -20 -10 -36 -10 -38 0 -58 37 -41 75 13 27 49 34 70 13z m230 -20
c3 -25 0 -28 -27 -28 -17 0 -31 -4 -31 -10 0 -5 14 -10 31 -10 17 0 28 -4 24
-10 -11 -18 -64 -11 -75 9 -22 43 3 84 49 79 20 -2 27 -9 29 -30z m68 19 c-10
-8 -22 -31 -26 -53 l-8 -39 -1 50 c-1 48 0 51 26 53 25 2 26 1 9 -11z m142
-39 l3 -48 -36 0 c-23 0 -38 6 -41 15 -8 20 13 45 37 45 11 0 19 5 19 11 0 7
-10 9 -25 7 -14 -3 -25 -2 -25 2 0 14 15 21 40 18 22 -3 25 -8 28 -50z m102
46 c0 -3 -12 -21 -26 -40 l-26 -34 26 0 c14 0 26 -4 26 -10 0 -5 -18 -10 -40
-10 -22 0 -40 3 -40 6 0 3 12 21 26 40 25 33 25 34 6 34 -12 0 -24 5 -27 10
-4 6 10 10 34 10 23 0 41 -3 41 -6z m-200 -84 c0 -5 -4 -10 -10 -10 -5 0 -10
5 -10 10 0 6 5 10 10 10 6 0 10 -4 10 -10z m-1780 -108 c-14 -2 -20 -9 -16
-18 3 -8 9 -21 12 -29 11 -26 -12 -16 -25 11 -11 26 -12 26 -31 9 -20 -18 -20
-17 -20 56 l0 73 51 -49 c44 -44 48 -50 29 -53z"/>
<path d="M5090 3060 c0 -25 4 -30 25 -30 21 0 25 5 25 30 0 25 -4 30 -25 30
-21 0 -25 -5 -25 -30z"/>
<path d="M5685 3070 c-8 -26 6 -43 31 -38 13 2 19 12 19 28 0 34 -40 41 -50
10z"/>
<path d="M4744 3076 c-10 -26 4 -48 28 -44 17 2 23 10 23 28 0 18 -6 26 -23
28 -13 2 -25 -3 -28 -12z"/>
<path d="M5210 3080 c0 -5 9 -10 20 -10 11 0 20 5 20 10 0 6 -9 10 -20 10 -11
0 -20 -4 -20 -10z"/>
<path d="M5575 3080 c-4 -6 5 -10 19 -10 14 0 26 5 26 10 0 6 -9 10 -19 10
-11 0 -23 -4 -26 -10z"/>
<path d="M5800 3080 c0 -5 9 -10 20 -10 11 0 20 5 20 10 0 6 -9 10 -20 10 -11
0 -20 -4 -20 -10z"/>
<path d="M6010 3040 c0 -5 9 -10 20 -10 11 0 20 5 20 10 0 6 -9 10 -20 10 -11
0 -20 -4 -20 -10z"/>
<path d="M6890 3100 l0 -300 1435 0 1435 0 0 300 0 300 -1435 0 -1435 0 0
-300z m1400 31 c0 -25 3 -28 26 -23 30 5 44 -10 44 -48 0 -35 -17 -50 -57 -50
l-33 0 0 75 c0 43 4 75 10 75 6 0 10 -13 10 -29z m200 19 c0 -5 -4 -10 -10
-10 -5 0 -10 5 -10 10 0 6 5 10 10 10 6 0 10 -4 10 -10z m-482 -56 l15 -49 15
53 c17 61 38 68 47 14 11 -65 21 -69 35 -13 6 28 16 51 21 51 13 0 11 -12 -8
-80 -9 -33 -22 -60 -28 -60 -7 0 -19 24 -27 53 l-15 52 -13 -52 c-8 -30 -20
-53 -27 -53 -7 0 -20 26 -29 58 -9 31 -19 63 -22 71 -3 8 0 12 8 9 7 -2 20
-26 28 -54z m532 31 c0 -8 8 -15 18 -15 16 -1 16 -1 0 -14 -22 -16 -24 -66 -3
-66 8 0 15 -4 15 -10 0 -5 -9 -10 -20 -10 -23 0 -37 49 -32 113 2 21 22 23 22
2z m-300 -35 c15 -27 5 -40 -31 -40 -16 0 -29 -4 -29 -10 0 -5 14 -10 30 -10
17 0 30 -4 30 -10 0 -14 -54 -12 -68 2 -7 7 -12 24 -12 38 0 14 5 31 12 38 19
19 56 14 68 -8z m200 10 c0 -5 -9 -10 -20 -10 -26 0 -26 -16 0 -23 26 -7 37
-36 19 -48 -19 -12 -59 -11 -59 1 0 6 12 10 28 10 l27 0 -29 23 c-20 16 -27
29 -23 40 7 18 57 24 57 7z m50 -40 c0 -27 -4 -50 -10 -50 -5 0 -10 23 -10 50
0 28 5 50 10 50 6 0 10 -22 10 -50z m170 35 c19 -23 4 -45 -30 -45 -16 0 -30
-4 -30 -10 0 -5 14 -10 30 -10 17 0 30 -4 30 -10 0 -14 -54 -12 -68 2 -7 7
-12 24 -12 38 0 14 5 31 12 38 17 17 53 15 68 -3z"/>
<path d="M8290 3060 c0 -25 4 -30 25 -30 21 0 25 5 25 30 0 25 -4 30 -25 30
-21 0 -25 -5 -25 -30z"/>
<path d="M8180 3080 c0 -5 12 -10 26 -10 14 0 23 4 19 10 -3 6 -15 10 -26 10
-10 0 -19 -4 -19 -10z"/>
<path d="M8600 3080 c0 -5 12 -10 26 -10 14 0 23 4 19 10 -3 6 -15 10 -26 10
-10 0 -19 -4 -19 -10z"/>
<path d="M9770 3100 l0 -300 1430 0 1430 0 0 300 0 300 -1430 0 -1430 0 0
-300z m1780 180 c18 -18 20 -33 20 -180 0 -147 -2 -162 -20 -180 -19 -19 -33
-20 -350 -20 -317 0 -331 1 -350 20 -18 18 -20 33 -20 180 0 147 2 162 20 180
19 19 33 20 350 20 317 0 331 -1 350 -20z"/>
<path d="M12640 3100 l0 -300 1435 0 1435 0 0 300 0 300 -1435 0 -1435 0 0
-300z m1460 -20 c0 -40 -4 -70 -10 -70 -5 0 -10 25 -10 55 0 44 -3 53 -15 49
-20 -8 -19 6 3 22 29 22 32 17 32 -56z"/>
<path d="M15520 3100 l0 -300 1435 0 1435 0 0 300 0 300 -1435 0 -1435 0 0
-300z m1234 84 c30 -11 17 -49 -31 -96 -70 -67 -124 -78 -102 -20 9 25 96 121
111 122 3 0 13 -3 22 -6z m561 -3 c23 -5 29 -11 26 -26 -2 -11 -6 -54 -10 -95
l-6 -75 -64 -3 c-45 -2 -67 1 -72 10 -5 7 -9 42 -9 79 0 37 -5 70 -12 77 -30
30 65 51 147 33z m-655 -36 c0 -10 -10 -15 -30 -15 l-31 0 3 -57 3 -58 52 -3
52 -3 3 33 c4 45 32 45 36 0 5 -52 -10 -62 -94 -62 -86 0 -94 8 -94 90 0 72
12 90 60 90 29 0 40 -4 40 -15z"/>
<path d="M4010 2490 l0 -300 1435 0 1435 0 0 300 0 300 -1435 0 -1435 0 0
-300z m1020 50 c0 -5 -4 -10 -10 -10 -5 0 -10 5 -10 10 0 6 5 10 10 10 6 0 10
-4 10 -10z m560 0 c0 -5 -4 -10 -10 -10 -5 0 -10 5 -10 10 0 6 5 10 10 10 6 0
10 -4 10 -10z m190 0 c0 -5 -4 -10 -10 -10 -5 0 -10 -7 -10 -15 0 -8 5 -15 12
-15 9 0 9 -3 0 -12 -7 -7 -12 -29 -12 -50 0 -21 -4 -38 -10 -38 -5 0 -10 18
-10 39 0 22 -6 42 -12 45 -10 5 -10 7 0 12 6 3 12 14 12 23 0 10 3 21 7 24 10
11 33 8 33 -3z m-750 -103 c0 -36 -5 -68 -12 -75 -15 -15 -48 -16 -48 -2 0 6
9 10 20 10 18 0 20 7 20 65 0 37 4 65 10 65 6 0 10 -28 10 -63z m98 11 l3 -48
-36 0 c-23 0 -38 6 -41 15 -8 20 13 45 37 45 11 0 19 5 19 11 0 7 -10 9 -25 7
-14 -3 -25 -2 -25 2 0 14 15 21 40 18 22 -3 25 -8 28 -50z m170 0 c2 -29 -1
-48 -7 -48 -6 0 -11 18 -11 41 0 33 -3 40 -17 37 -13 -2 -19 -14 -21 -41 -4
-50 -22 -47 -22 4 0 33 -3 40 -17 37 -13 -2 -19 -14 -21 -41 -5 -54 -22 -45
-22 12 l0 48 68 -1 67 -1 3 -47z m106 36 c3 -9 6 -31 6 -49 0 -32 -1 -33 -37
-32 -31 2 -39 6 -41 25 -3 18 2 23 27 28 17 4 31 11 31 16 0 6 -11 8 -25 6
-17 -4 -25 -1 -25 8 0 20 56 18 64 -2z m82 -18 c-31 -41 -32 -46 -7 -46 11 0
23 -4 26 -10 4 -6 -12 -10 -41 -10 -46 0 -46 0 -30 23 36 50 38 57 16 57 -11
0 -20 5 -20 10 0 6 19 10 41 10 l41 0 -26 -34z m104 -16 c0 -27 -4 -50 -10
-50 -5 0 -10 23 -10 50 0 28 5 50 10 50 6 0 10 -22 10 -50z m108 -2 c2 -29 -1
-48 -7 -48 -6 0 -11 18 -11 40 0 33 -3 40 -20 40 -12 0 -21 -8 -24 -22 -3 -13
-7 -32 -9 -43 -3 -11 -5 3 -6 31 l-1 51 38 -1 c37 -1 37 -1 40 -48z m182 31
c26 -47 -25 -100 -69 -72 -20 13 -26 60 -10 79 18 22 66 18 79 -7z m-340 -69
c0 -5 -4 -10 -10 -10 -5 0 -10 5 -10 10 0 6 5 10 10 10 6 0 10 -4 10 -10z"/>
<path d="M5070 2430 c0 -5 9 -10 20 -10 11 0 20 5 20 10 0 6 -9 10 -20 10 -11
0 -20 -4 -20 -10z"/>
<path d="M5350 2430 c0 -5 6 -10 14 -10 8 0 18 5 21 10 3 6 -3 10 -14 10 -12
0 -21 -4 -21 -10z"/>
<path d="M5810 2450 c0 -28 3 -31 28 -28 21 2 27 8 27 28 0 20 -6 26 -27 28
-25 3 -28 0 -28 -28z"/>
<path d="M6890 2490 l0 -300 1435 0 1435 0 0 300 0 300 -1435 0 -1435 0 0
-300z m1400 31 c0 -25 3 -28 26 -23 30 5 44 -10 44 -48 0 -35 -17 -50 -57 -50
l-33 0 0 75 c0 43 4 75 10 75 6 0 10 -13 10 -29z m200 19 c0 -5 -4 -10 -10
-10 -5 0 -10 5 -10 10 0 6 5 10 10 10 6 0 10 -4 10 -10z m-482 -56 l15 -49 15
53 c17 61 38 68 47 14 11 -65 21 -69 35 -13 6 28 16 51 21 51 13 0 11 -12 -8
-80 -9 -33 -22 -60 -28 -60 -7 0 -19 24 -27 53 l-15 52 -13 -52 c-8 -30 -20
-53 -27 -53 -7 0 -20 26 -29 58 -9 31 -19 63 -22 71 -3 8 0 12 8 9 7 -2 20
-26 28 -54z m532 31 c0 -8 8 -15 18 -15 16 -1 16 -1 0 -14 -22 -16 -24 -66 -3
-66 8 0 15 -4 15 -10 0 -5 -9 -10 -20 -10 -23 0 -37 49 -32 113 2 21 22 23 22
2z m-300 -35 c15 -27 5 -40 -31 -40 -16 0 -29 -4 -29 -10 0 -5 14 -10 30 -10
17 0 30 -4 30 -10 0 -14 -54 -12 -68 2 -7 7 -12 24 -12 38 0 14 5 31 12 38 19
19 56 14 68 -8z m200 10 c0 -5 -9 -10 -20 -10 -26 0 -26 -16 0 -23 26 -7 37
-36 19 -48 -19 -12 -59 -11 -59 1 0 6 12 10 28 10 l27 0 -29 23 c-20 16 -27
29 -23 40 7 18 57 24 57 7z m50 -40 c0 -27 -4 -50 -10 -50 -5 0 -10 23 -10 50
0 28 5 50 10 50 6 0 10 -22 10 -50z m170 35 c19 -23 4 -45 -30 -45 -16 0 -30
-4 -30 -10 0 -5 14 -10 30 -10 17 0 30 -4 30 -10 0 -14 -54 -12 -68 2 -7 7
-12 24 -12 38 0 14 5 31 12 38 17 17 53 15 68 -3z"/>
<path d="M8290 2450 c0 -25 4 -30 25 -30 21 0 25 5 25 30 0 25 -4 30 -25 30
-21 0 -25 -5 -25 -30z"/>
<path d="M8180 2470 c0 -5 12 -10 26 -10 14 0 23 4 19 10 -3 6 -15 10 -26 10
-10 0 -19 -4 -19 -10z"/>
<path d="M8600 2470 c0 -5 12 -10 26 -10 14 0 23 4 19 10 -3 6 -15 10 -26 10
-10 0 -19 -4 -19 -10z"/>
<path d="M9770 2490 l0 -300 1430 0 1430 0 0 300 0 300 -1430 0 -1430 0 0
-300z m1780 180 c18 -18 20 -33 20 -180 0 -147 -2 -162 -20 -180 -19 -19 -33
-20 -350 -20 -317 0 -331 1 -350 20 -18 18 -20 33 -20 180 0 147 2 162 20 180
19 19 33 20 350 20 317 0 331 -1 350 -20z"/>
<path d="M12640 2490 l0 -300 1435 0 1435 0 0 300 0 300 -1435 0 -1435 0 0
-300z m1468 38 c20 -20 14 -45 -18 -71 -16 -14 -30 -28 -30 -31 0 -3 14 -6 30
-6 17 0 30 -4 30 -10 0 -5 -20 -10 -45 -10 -55 0 -57 12 -10 54 45 42 47 70 5
64 -29 -4 -37 1 -23 15 11 11 48 8 61 -5z"/>
<path d="M15520 2490 l0 -300 1435 0 1435 0 0 300 0 300 -1435 0 -1435 0 0
-300z m1234 84 c30 -11 17 -49 -31 -96 -70 -67 -124 -78 -102 -20 9 25 96 121
111 122 3 0 13 -3 22 -6z m561 -3 c23 -5 29 -11 26 -26 -2 -11 -6 -54 -10 -95
l-6 -75 -64 -3 c-45 -2 -67 1 -72 10 -5 7 -9 42 -9 79 0 37 -5 70 -12 77 -30
30 65 51 147 33z m-655 -36 c0 -10 -10 -15 -30 -15 l-31 0 3 -57 3 -58 52 -3
52 -3 3 33 c4 45 32 45 36 0 5 -52 -10 -62 -94 -62 -86 0 -94 8 -94 90 0 72
12 90 60 90 29 0 40 -4 40 -15z"/>
<path d="M4010 1880 l0 -300 1435 0 1435 0 0 300 0 300 -1435 0 -1435 0 0
-300z m1227 -52 c-2 -24 -4 -7 -4 37 0 44 2 63 4 43 2 -21 2 -57 0 -80z m273
77 c0 -8 8 -15 18 -15 16 -1 16 -1 0 -14 -22 -16 -24 -66 -3 -66 8 0 15 -5 15
-11 0 -6 -10 -9 -22 -7 -18 2 -24 11 -26 38 -2 19 -8 41 -14 47 -7 9 -7 13 1
13 6 0 11 7 11 15 0 8 5 15 10 15 6 0 10 -7 10 -15z m-470 -24 c0 -5 5 -22 11
-38 l11 -28 12 34 c7 19 18 37 24 39 8 2 6 -13 -6 -44 -11 -27 -24 -50 -29
-51 -6 -2 -19 19 -31 47 -17 41 -18 50 -6 50 7 0 14 -4 14 -9z m158 -43 l3
-46 -38 1 c-31 2 -39 6 -41 25 -3 18 2 23 27 28 17 4 31 11 31 16 0 6 -11 8
-25 6 -14 -3 -25 -2 -25 2 0 14 15 21 40 18 22 -3 25 -8 28 -50z m98 11 l12
-34 16 38 c9 20 20 37 25 37 10 0 -33 -116 -51 -137 -12 -15 -38 -17 -38 -3 0
6 6 10 14 10 24 0 26 29 6 81 -13 33 -16 49 -8 47 6 -2 17 -20 24 -39z m96 4
c2 -30 7 -38 23 -38 16 0 21 8 23 38 5 54 22 45 22 -11 0 -48 0 -49 -32 -50
-44 -1 -58 13 -58 59 0 50 18 51 22 2z m232 21 c3 -9 6 -31 6 -49 0 -32 -1
-33 -37 -32 -31 2 -39 6 -41 25 -3 18 2 23 27 28 17 4 31 11 31 16 0 6 -11 8
-25 6 -17 -4 -25 -1 -25 8 0 20 56 18 64 -2z m144 -36 l3 -48 -36 0 c-23 0
-38 6 -41 15 -8 20 13 45 37 45 11 0 19 5 19 11 0 7 -10 9 -25 7 -14 -3 -25
-2 -25 2 0 14 15 21 40 18 22 -3 25 -8 28 -50z m102 46 c0 -3 -12 -21 -26 -40
l-26 -34 26 0 c14 0 26 -4 26 -10 0 -5 -18 -10 -40 -10 -22 0 -40 3 -40 6 0 3
12 21 26 40 25 33 25 34 6 34 -12 0 -24 5 -27 10 -4 6 10 10 34 10 23 0 41 -3
41 -6z m-200 -84 c0 -5 -4 -10 -10 -10 -5 0 -10 5 -10 10 0 6 5 10 10 10 6 0
10 -4 10 -10z"/>
<path d="M5140 1820 c0 -5 9 -10 20 -10 11 0 20 5 20 10 0 6 -9 10 -20 10 -11
0 -20 -4 -20 -10z"/>
<path d="M5570 1820 c0 -5 6 -10 14 -10 8 0 18 5 21 10 3 6 -3 10 -14 10 -12
0 -21 -4 -21 -10z"/>
<path d="M5710 1820 c0 -5 9 -10 20 -10 11 0 20 5 20 10 0 6 -9 10 -20 10 -11
0 -20 -4 -20 -10z"/>
<path d="M6890 1880 l0 -300 1435 0 1435 0 0 300 0 300 -1435 0 -1435 0 0
-300z m1400 31 c0 -25 3 -28 26 -23 30 5 44 -10 44 -48 0 -35 -17 -50 -57 -50
l-33 0 0 75 c0 43 4 75 10 75 6 0 10 -13 10 -29z m200 19 c0 -5 -4 -10 -10
-10 -5 0 -10 5 -10 10 0 6 5 10 10 10 6 0 10 -4 10 -10z m-482 -56 l15 -49 15
53 c17 61 38 68 47 14 11 -65 21 -69 35 -13 6 28 16 51 21 51 13 0 11 -12 -8
-80 -9 -33 -22 -60 -28 -60 -7 0 -19 24 -27 53 l-15 52 -13 -52 c-8 -30 -20
-53 -27 -53 -7 0 -20 26 -29 58 -9 31 -19 63 -22 71 -3 8 0 12 8 9 7 -2 20
-26 28 -54z m532 31 c0 -8 8 -15 18 -15 16 -1 16 -1 0 -14 -22 -16 -24 -66 -3
-66 8 0 15 -4 15 -10 0 -5 -9 -10 -20 -10 -23 0 -37 49 -32 113 2 21 22 23 22
2z m-300 -35 c15 -27 5 -40 -31 -40 -16 0 -29 -4 -29 -10 0 -5 14 -10 30 -10
17 0 30 -4 30 -10 0 -14 -54 -12 -68 2 -7 7 -12 24 -12 38 0 14 5 31 12 38 19
19 56 14 68 -8z m200 10 c0 -5 -9 -10 -20 -10 -26 0 -26 -16 0 -23 26 -7 37
-36 19 -48 -19 -12 -59 -11 -59 1 0 6 12 10 28 10 l27 0 -29 23 c-20 16 -27
29 -23 40 7 18 57 24 57 7z m50 -40 c0 -27 -4 -50 -10 -50 -5 0 -10 23 -10 50
0 28 5 50 10 50 6 0 10 -22 10 -50z m170 35 c19 -23 4 -45 -30 -45 -16 0 -30
-4 -30 -10 0 -5 14 -10 30 -10 17 0 30 -4 30 -10 0 -14 -54 -12 -68 2 -7 7
-12 24 -12 38 0 14 5 31 12 38 17 17 53 15 68 -3z"/>
<path d="M8290 1840 c0 -25 4 -30 25 -30 21 0 25 5 25 30 0 25 -4 30 -25 30
-21 0 -25 -5 -25 -30z"/>
<path d="M8180 1860 c0 -5 12 -10 26 -10 14 0 23 4 19 10 -3 6 -15 10 -26 10
-10 0 -19 -4 -19 -10z"/>
<path d="M8600 1860 c0 -5 12 -10 26 -10 14 0 23 4 19 10 -3 6 -15 10 -26 10
-10 0 -19 -4 -19 -10z"/>
<path d="M9770 1880 l0 -300 1430 0 1430 0 0 300 0 300 -1430 0 -1430 0 0
-300z m1780 180 c18 -18 20 -33 20 -180 0 -147 -2 -162 -20 -180 -19 -19 -33
-20 -350 -20 -317 0 -331 1 -350 20 -18 18 -20 33 -20 180 0 147 2 162 20 180
19 19 33 20 350 20 317 0 331 -1 350 -20z"/>
<path d="M12640 1880 l0 -300 1435 0 1435 0 0 300 0 300 -1435 0 -1435 0 0
-300z m1470 36 c8 -10 8 -20 2 -32 -7 -12 -6 -24 1 -36 17 -26 -3 -52 -42 -56
-17 -2 -31 1 -31 7 0 5 12 11 28 13 33 4 37 32 5 36 -29 4 -29 14 -2 27 29 13
26 29 -6 33 -14 2 -25 8 -25 13 0 15 56 10 70 -5z"/>
<path d="M15520 1880 l0 -300 1435 0 1435 0 0 300 0 300 -1435 0 -1435 0 0
-300z m1234 84 c30 -11 17 -49 -31 -96 -70 -67 -124 -78 -102 -20 9 25 96 121
111 122 3 0 13 -3 22 -6z m561 -3 c23 -5 29 -11 26 -26 -2 -11 -6 -54 -10 -95
l-6 -75 -64 -3 c-45 -2 -67 1 -72 10 -5 7 -9 42 -9 79 0 37 -5 70 -12 77 -30
30 65 51 147 33z m-655 -36 c0 -10 -10 -15 -30 -15 l-31 0 3 -57 3 -58 52 -3
52 -3 3 33 c4 45 32 45 36 0 5 -52 -10 -62 -94 -62 -86 0 -94 8 -94 90 0 72
12 90 60 90 29 0 40 -4 40 -15z"/>
<path d="M4010 1270 l0 -300 1435 0 1435 0 0 300 0 300 -1435 0 -1435 0 0
-300z m1210 -15 l0 -75 -33 0 c-40 0 -57 15 -57 50 0 32 17 50 47 50 18 0 23
6 23 25 0 14 5 25 10 25 6 0 10 -32 10 -75z m50 65 c0 -5 -4 -10 -10 -10 -5 0
-10 5 -10 10 0 6 5 10 10 10 6 0 10 -4 10 -10z m-272 -92 c2 -29 -1 -48 -7
-48 -6 0 -11 18 -11 41 0 33 -3 40 -17 37 -13 -2 -19 -14 -21 -41 -4 -50 -22
-48 -22 3 0 33 -3 40 -20 40 -17 0 -20 -7 -20 -40 0 -22 -4 -40 -10 -40 -5 0
-10 22 -10 49 l0 48 68 -1 67 -1 3 -47z m110 20 c3 -25 0 -28 -27 -28 -17 0
-31 -4 -31 -10 0 -5 14 -10 31 -10 17 0 28 -4 24 -10 -11 -18 -64 -11 -75 9
-22 43 3 84 49 79 20 -2 27 -9 29 -30z m162 -18 c0 -27 -4 -50 -10 -50 -5 0
-10 23 -10 50 0 28 5 50 10 50 6 0 10 -22 10 -50z m100 31 c5 -11 10 -33 10
-50 0 -29 -2 -31 -40 -31 -27 0 -43 5 -46 15 -9 21 14 45 43 45 15 0 22 4 17
11 -3 6 -17 9 -30 6 -13 -2 -24 -1 -24 3 0 26 56 27 70 1z m86 -15 c-31 -41
-32 -46 -7 -46 11 0 23 -4 26 -10 4 -6 -12 -10 -41 -10 -46 0 -46 0 -30 23 36
50 38 57 16 57 -11 0 -20 5 -20 10 0 6 19 10 41 10 l41 0 -26 -34z m124 13
c26 -47 -25 -100 -69 -72 -20 13 -26 60 -10 79 18 22 66 18 79 -7z m107 9 c15
-12 18 -88 4 -88 -6 0 -11 17 -13 38 -2 29 -7 37 -23 37 -16 0 -21 -8 -23 -37
-5 -55 -22 -46 -22 10 0 48 0 49 32 50 18 0 38 -4 45 -10z m107 -4 c3 -9 6
-31 6 -49 0 -32 -1 -33 -37 -32 -31 2 -39 6 -41 25 -3 18 2 23 27 28 17 4 31
11 31 16 0 6 -11 8 -25 6 -17 -4 -25 -1 -25 8 0 20 56 18 64 -2z m144 -36 l3
-48 -36 0 c-23 0 -38 6 -41 15 -8 20 13 45 37 45 11 0 19 5 19 11 0 7 -10 9
-25 7 -14 -3 -25 -2 -25 2 0 14 15 21 40 18 22 -3 25 -8 28 -50z m102 46 c0
-3 -12 -21 -26 -40 l-26 -34 26 0 c14 0 26 -4 26 -10 0 -5 -18 -10 -40 -10
-22 0 -40 3 -40 6 0 3 12 21 26 40 25 33 25 34 6 34 -12 0 -24 5 -27 10 -4 6
10 10 34 10 23 0 41 -3 41 -6z m-200 -84 c0 -5 -4 -10 -10 -10 -5 0 -10 5 -10
10 0 6 5 10 10 10 6 0 10 -4 10 -10z"/>
<path d="M5157 1253 c-4 -3 -7 -17 -7 -30 0 -18 5 -23 25 -23 21 0 25 5 25 30
0 22 -5 30 -18 30 -10 0 -22 -3 -25 -7z"/>
<path d="M5050 1250 c0 -5 9 -10 20 -10 11 0 20 5 20 10 0 6 -9 10 -20 10 -11
0 -20 -4 -20 -10z"/>
<path d="M5310 1210 c0 -5 9 -10 20 -10 11 0 20 5 20 10 0 6 -9 10 -20 10 -11
0 -20 -4 -20 -10z"/>
<path d="M5510 1230 c0 -28 3 -31 28 -28 21 2 27 8 27 28 0 20 -6 26 -27 28
-25 3 -28 0 -28 -28z"/>
<path d="M5740 1210 c0 -5 6 -10 14 -10 8 0 18 5 21 10 3 6 -3 10 -14 10 -12
0 -21 -4 -21 -10z"/>
<path d="M5880 1210 c0 -5 9 -10 20 -10 11 0 20 5 20 10 0 6 -9 10 -20 10 -11
0 -20 -4 -20 -10z"/>
<path d="M6890 1270 l0 -300 1435 0 1435 0 0 300 0 300 -1435 0 -1435 0 0
-300z m1400 31 c0 -25 3 -28 26 -23 30 5 44 -10 44 -48 0 -35 -17 -50 -57 -50
l-33 0 0 75 c0 43 4 75 10 75 6 0 10 -13 10 -29z m200 19 c0 -5 -4 -10 -10
-10 -5 0 -10 5 -10 10 0 6 5 10 10 10 6 0 10 -4 10 -10z m-482 -56 l15 -49 15
53 c17 61 38 68 47 14 11 -65 21 -69 35 -13 6 28 16 51 21 51 13 0 11 -12 -8
-80 -9 -33 -22 -60 -28 -60 -7 0 -19 24 -27 53 l-15 52 -13 -52 c-8 -30 -20
-53 -27 -53 -7 0 -20 26 -29 58 -9 31 -19 63 -22 71 -3 8 0 12 8 9 7 -2 20
-26 28 -54z m532 31 c0 -8 8 -15 18 -15 16 -1 16 -1 0 -14 -22 -16 -24 -66 -3
-66 8 0 15 -4 15 -10 0 -5 -9 -10 -20 -10 -23 0 -37 49 -32 113 2 21 22 23 22
2z m-300 -35 c15 -27 5 -40 -31 -40 -16 0 -29 -4 -29 -10 0 -5 14 -10 30 -10
17 0 30 -4 30 -10 0 -14 -54 -12 -68 2 -7 7 -12 24 -12 38 0 14 5 31 12 38 19
19 56 14 68 -8z m200 10 c0 -5 -9 -10 -20 -10 -26 0 -26 -16 0 -23 26 -7 37
-36 19 -48 -19 -12 -59 -11 -59 1 0 6 12 10 28 10 l27 0 -29 23 c-20 16 -27
29 -23 40 7 18 57 24 57 7z m50 -40 c0 -27 -4 -50 -10 -50 -5 0 -10 23 -10 50
0 28 5 50 10 50 6 0 10 -22 10 -50z m170 35 c19 -23 4 -45 -30 -45 -16 0 -30
-4 -30 -10 0 -5 14 -10 30 -10 17 0 30 -4 30 -10 0 -14 -54 -12 -68 2 -7 7
-12 24 -12 38 0 14 5 31 12 38 17 17 53 15 68 -3z"/>
<path d="M8290 1230 c0 -25 4 -30 25 -30 21 0 25 5 25 30 0 25 -4 30 -25 30
-21 0 -25 -5 -25 -30z"/>
<path d="M8180 1250 c0 -5 12 -10 26 -10 14 0 23 4 19 10 -3 6 -15 10 -26 10
-10 0 -19 -4 -19 -10z"/>
<path d="M8600 1250 c0 -5 12 -10 26 -10 14 0 23 4 19 10 -3 6 -15 10 -26 10
-10 0 -19 -4 -19 -10z"/>
<path d="M9770 1270 l0 -300 1430 0 1430 0 0 300 0 300 -1430 0 -1430 0 0
-300z m1780 180 c18 -18 20 -33 20 -180 0 -147 -2 -162 -20 -180 -19 -19 -33
-20 -350 -20 -317 0 -331 1 -350 20 -18 18 -20 33 -20 180 0 147 2 162 20 180
19 19 33 20 350 20 317 0 331 -1 350 -20z"/>
<path d="M12640 1270 l0 -300 1435 0 1435 0 0 300 0 300 -1435 0 -1435 0 0
-300z m1470 5 c0 -25 4 -45 9 -45 5 0 4 -11 -2 -25 -13 -28 -27 -33 -27 -10 0
10 -10 15 -30 15 -16 0 -30 5 -30 11 0 14 61 99 72 99 4 0 8 -20 8 -45z"/>
<path d="M14066 1255 c-16 -24 -16 -25 4 -25 15 0 20 7 20 25 0 14 -2 25 -4
25 -2 0 -11 -11 -20 -25z"/>
<path d="M15520 1270 l0 -300 1435 0 1435 0 0 300 0 300 -1435 0 -1435 0 0
-300z m1234 84 c30 -11 17 -49 -31 -96 -70 -67 -124 -78 -102 -20 9 25 96 121
111 122 3 0 13 -3 22 -6z m561 -3 c23 -5 29 -11 26 -26 -2 -11 -6 -54 -10 -95
l-6 -75 -64 -3 c-45 -2 -67 1 -72 10 -5 7 -9 42 -9 79 0 37 -5 70 -12 77 -30
30 65 51 147 33z m-655 -36 c0 -10 -10 -15 -30 -15 l-31 0 3 -57 3 -58 52 -3
52 -3 3 33 c4 45 32 45 36 0 5 -52 -10 -62 -94 -62 -86 0 -94 8 -94 90 0 72
12 90 60 90 29 0 40 -4 40 -15z"/>
<path d="M4010 660 l0 -300 1435 0 1435 0 0 300 0 300 -1435 0 -1435 0 0 -300z
m960 50 c0 -5 -4 -10 -10 -10 -5 0 -10 5 -10 10 0 6 5 10 10 10 6 0 10 -4 10
-10z m50 -65 c0 -43 -4 -75 -10 -75 -6 0 -10 32 -10 75 0 43 4 75 10 75 6 0
10 -32 10 -75z m50 0 c0 -43 -4 -75 -10 -75 -6 0 -10 32 -10 75 0 43 4 75 10
75 6 0 10 -32 10 -75z m220 65 c0 -5 -4 -10 -10 -10 -5 0 -10 5 -10 10 0 6 5
10 10 10 6 0 10 -4 10 -10z m440 0 c0 -5 -7 -10 -15 -10 -8 0 -15 5 -15 10 0
6 7 10 15 10 8 0 15 -4 15 -10z m90 0 c0 -5 -4 -10 -10 -10 -5 0 -10 5 -10 10
0 6 5 10 10 10 6 0 10 -4 10 -10z m190 0 c0 -5 -4 -10 -10 -10 -5 0 -10 -7
-10 -15 0 -8 5 -15 12 -15 9 0 9 -3 0 -12 -7 -7 -12 -29 -12 -50 0 -21 -4 -38
-10 -38 -5 0 -10 18 -10 39 0 22 -6 42 -12 45 -10 5 -10 7 0 12 6 3 12 14 12
23 0 10 3 21 7 24 10 11 33 8 33 -3z m-780 -24 c0 -8 6 -17 13 -20 10 -5 10
-7 0 -12 -7 -3 -13 -18 -13 -34 0 -16 6 -30 13 -33 6 -2 9 -8 5 -12 -16 -17
-38 5 -38 38 0 18 -5 38 -12 45 -9 9 -9 12 0 12 7 0 12 7 12 15 0 8 5 15 10
15 6 0 10 -6 10 -14z m-312 -68 c2 -29 -1 -48 -7 -48 -6 0 -11 18 -11 41 0 33
-3 40 -17 37 -13 -2 -19 -14 -21 -41 -4 -50 -22 -47 -22 4 0 33 -3 40 -17 37
-13 -2 -19 -14 -21 -41 -5 -54 -22 -45 -22 12 l0 48 68 -1 67 -1 3 -47z m52 2
c0 -27 -4 -50 -10 -50 -5 0 -10 23 -10 50 0 28 5 50 10 50 6 0 10 -22 10 -50z
m198 38 c7 -7 12 -20 12 -30 0 -14 -8 -18 -36 -18 -21 0 -33 -4 -29 -10 3 -5
20 -10 36 -10 18 0 28 -4 24 -10 -3 -5 -20 -10 -36 -10 -38 0 -58 37 -41 75
13 27 49 34 70 13z m122 -38 c0 -27 -4 -50 -10 -50 -5 0 -10 23 -10 50 0 28 5
50 10 50 6 0 10 -22 10 -50z m110 24 c13 -33 13 -74 0 -74 -5 0 -10 11 -10 24
0 37 -10 56 -31 56 -15 0 -19 -7 -19 -40 0 -22 -4 -40 -10 -40 -5 0 -10 22
-10 48 l0 49 35 1 c30 1 37 -3 45 -24z m90 17 c0 -5 -12 -11 -27 -13 l-28 -4
28 -14 c19 -9 27 -20 25 -34 -3 -24 -44 -34 -61 -17 -8 8 -3 11 16 11 15 0 27
5 27 10 0 6 -4 10 -8 10 -5 0 -17 6 -27 14 -16 12 -17 16 -6 30 14 17 61 22
61 7z m100 -6 c19 -23 4 -45 -30 -45 -16 0 -30 -4 -30 -10 0 -5 14 -10 30 -10
17 0 30 -4 30 -10 0 -14 -54 -12 -68 2 -7 7 -12 24 -12 38 0 14 5 31 12 38 17
17 53 15 68 -3z m90 6 c0 -5 -12 -11 -27 -13 l-28 -4 28 -14 c19 -9 27 -20 25
-34 -3 -24 -44 -34 -61 -17 -8 8 -3 11 16 11 15 0 27 5 27 10 0 6 -4 10 -8 10
-5 0 -17 6 -27 14 -16 12 -17 16 -6 30 14 17 61 22 61 7z m37 -68 c-2 -16 -4
-3 -4 27 0 30 2 43 4 28 2 -16 2 -40 0 -55z m103 27 c0 -27 -4 -50 -10 -50 -5
0 -10 23 -10 50 0 28 5 50 10 50 6 0 10 -22 10 -50z m108 -2 c2 -29 -1 -48 -7
-48 -6 0 -11 18 -11 40 0 33 -3 40 -20 40 -12 0 -21 -8 -24 -22 -3 -13 -7 -32
-9 -43 -3 -11 -5 3 -6 31 l-1 51 38 -1 c37 -1 37 -1 40 -48z m182 31 c26 -47
-25 -100 -69 -72 -20 13 -26 60 -10 79 18 22 66 18 79 -7z m-340 -69 c0 -5 -4
-10 -10 -10 -5 0 -10 5 -10 10 0 6 5 10 10 10 6 0 10 -4 10 -10z"/>
<path d="M5115 640 c-4 -6 5 -10 19 -10 14 0 26 5 26 10 0 6 -9 10 -19 10 -11
0 -23 -4 -26 -10z"/>
<path d="M5530 640 c0 -5 12 -10 26 -10 14 0 23 4 19 10 -3 6 -15 10 -26 10
-10 0 -19 -4 -19 -10z"/>
<path d="M6040 620 c0 -28 3 -31 28 -28 21 2 27 8 27 28 0 20 -6 26 -27 28
-25 3 -28 0 -28 -28z"/>
<path d="M6890 660 l0 -300 1435 0 1435 0 0 300 0 300 -1435 0 -1435 0 0 -300z
m1400 31 c0 -25 3 -28 26 -23 30 5 44 -10 44 -49 0 -34 -17 -49 -57 -49 l-33
0 0 75 c0 43 4 75 10 75 6 0 10 -13 10 -29z m200 19 c0 -5 -4 -10 -10 -10 -5
0 -10 5 -10 10 0 6 5 10 10 10 6 0 10 -4 10 -10z m-482 -56 l15 -49 15 53 c17
61 38 68 47 14 11 -65 21 -69 35 -13 6 28 16 51 21 51 13 0 11 -12 -8 -80 -9
-33 -22 -60 -28 -60 -7 0 -19 24 -27 53 l-15 52 -13 -52 c-8 -30 -20 -53 -27
-53 -7 0 -20 26 -29 58 -9 31 -19 63 -22 71 -3 8 0 12 8 9 7 -2 20 -26 28 -54z
m532 31 c0 -8 8 -15 18 -15 16 -1 16 -1 0 -14 -22 -16 -24 -66 -3 -66 8 0 15
-4 15 -10 0 -5 -9 -10 -20 -10 -23 0 -37 49 -32 113 2 21 22 23 22 2z m-300
-35 c15 -27 5 -40 -31 -40 -16 0 -29 -4 -29 -10 0 -5 14 -10 30 -10 17 0 30
-4 30 -10 0 -14 -54 -12 -68 2 -7 7 -12 24 -12 38 0 14 5 31 12 38 19 19 56
14 68 -8z m200 10 c0 -5 -9 -10 -20 -10 -26 0 -26 -16 0 -23 26 -7 37 -36 19
-48 -19 -12 -59 -11 -59 1 0 6 12 10 28 10 l27 0 -29 23 c-20 16 -27 29 -23
40 7 18 57 24 57 7z m50 -40 c0 -27 -4 -50 -10 -50 -5 0 -10 23 -10 50 0 28 5
50 10 50 6 0 10 -22 10 -50z m170 35 c19 -23 4 -45 -30 -45 -16 0 -30 -4 -30
-10 0 -5 14 -10 30 -10 17 0 30 -4 30 -10 0 -14 -54 -12 -68 2 -7 7 -12 24
-12 38 0 14 5 31 12 38 17 17 53 15 68 -3z"/>
<path d="M8290 620 c0 -25 4 -30 25 -30 21 0 25 5 25 30 0 25 -4 30 -25 30
-21 0 -25 -5 -25 -30z"/>
<path d="M8180 640 c0 -5 12 -10 26 -10 14 0 23 4 19 10 -3 6 -15 10 -26 10
-10 0 -19 -4 -19 -10z"/>
<path d="M8600 640 c0 -5 12 -10 26 -10 14 0 23 4 19 10 -3 6 -15 10 -26 10
-10 0 -19 -4 -19 -10z"/>
<path d="M9770 660 l0 -300 1430 0 1430 0 0 300 0 300 -1430 0 -1430 0 0 -300z
m1560 50 c0 -5 -7 -10 -15 -10 -8 0 -15 5 -15 10 0 6 7 10 15 10 8 0 15 -4 15
-10z m-430 -70 c0 -40 -4 -70 -10 -70 -6 0 -10 30 -10 70 0 40 4 70 10 70 6 0
10 -30 10 -70z m360 45 c0 -8 7 -15 15 -15 8 0 15 -4 15 -10 0 -5 -7 -10 -15
-10 -9 0 -15 -9 -15 -25 0 -14 7 -28 15 -31 23 -9 18 -26 -7 -22 -19 2 -24 10
-26 41 -3 37 -4 38 -40 35 -32 -3 -37 -6 -37 -28 0 -20 6 -26 28 -28 39 -5 34
-22 -7 -22 -35 0 -46 12 -46 54 0 32 19 46 62 46 27 0 38 4 38 15 0 8 5 15 10
15 6 0 10 -7 10 -15z m-246 -31 c12 -32 7 -84 -9 -84 -11 0 -15 11 -15 41 0
33 -3 40 -17 37 -13 -2 -19 -14 -21 -41 -5 -55 -22 -45 -22 13 l0 50 39 0 c26
0 41 -5 45 -16z m104 -36 l3 -48 -41 0 c-27 0 -43 5 -46 15 -9 21 14 45 43 45
15 0 22 4 17 11 -3 6 -17 8 -30 5 -13 -4 -24 -3 -24 2 0 16 14 23 45 20 28 -3
30 -6 33 -50z m212 2 c0 -38 -4 -50 -15 -50 -11 0 -15 12 -15 50 0 38 4 50 15
50 11 0 15 -12 15 -50z m45 9 l12 -34 12 38 c7 20 19 37 26 37 11 0 9 -11 -7
-50 -11 -27 -26 -50 -33 -50 -11 0 -45 71 -45 94 0 20 25 -4 35 -35z m155 15
c14 -35 14 -34 -25 -34 -19 0 -35 -4 -35 -10 0 -5 14 -10 30 -10 17 0 30 -4
30 -10 0 -14 -64 -12 -78 2 -7 7 -12 24 -12 38 0 34 17 50 52 50 21 0 31 -6
38 -26z"/>
<path d="M11060 600 c0 -5 6 -10 14 -10 8 0 18 5 21 10 3 6 -3 10 -14 10 -12
0 -21 -4 -21 -10z"/>
<path d="M11470 640 c0 -5 9 -10 20 -10 11 0 20 5 20 10 0 6 -9 10 -20 10 -11
0 -20 -4 -20 -10z"/>
<path d="M12640 660 l0 -300 1435 0 1435 0 0 300 0 300 -1435 0 -1435 0 0
-300z m1475 40 c-3 -5 -17 -10 -31 -10 -15 0 -24 -6 -24 -15 0 -8 8 -15 18
-15 24 0 42 -19 42 -45 0 -29 -19 -45 -52 -45 -36 0 -37 18 0 22 33 4 39 41 7
46 -30 6 -37 16 -29 46 5 22 12 26 41 26 20 0 32 -4 28 -10z"/>
<path d="M15520 660 l0 -300 1435 0 1435 0 0 300 0 300 -1435 0 -1435 0 0
-300z m1234 84 c30 -11 17 -49 -31 -96 -70 -67 -124 -78 -102 -20 9 25 96 121
111 122 3 0 13 -3 22 -6z m561 -3 c23 -5 29 -11 26 -26 -2 -11 -6 -54 -10 -95
l-6 -75 -64 -3 c-45 -2 -67 1 -72 10 -5 7 -9 42 -9 79 0 37 -5 70 -12 77 -30
30 65 51 147 33z m-655 -36 c0 -10 -10 -15 -30 -15 l-31 0 3 -57 3 -58 52 -3
52 -3 3 33 c4 45 32 45 36 0 5 -52 -10 -62 -94 -62 -86 0 -94 8 -94 90 0 72
12 90 60 90 29 0 40 -4 40 -15z"/>
<path d="M4010 175 l0 -175 500 0 500 0 0 28 c0 26 4 29 32 30 38 1 58 -13 58
-39 0 -11 5 -19 10 -19 6 0 10 8 10 18 0 25 19 42 47 42 23 0 48 -33 38 -50
-3 -6 1 -10 9 -10 12 0 14 7 10 30 -9 41 12 39 22 -2 l7 -33 14 32 c7 18 17
33 22 33 4 0 13 -15 18 -32 10 -33 12 -31 27 14 3 10 10 18 15 18 7 0 7 -9 1
-26 -13 -34 -14 -34 18 -34 19 0 23 3 14 9 -23 14 -10 46 21 49 15 2 27 -1 27
-7 0 -6 -9 -11 -20 -11 -30 0 -24 -16 11 -30 24 -11 35 -10 55 1 50 26 55 75
7 66 -15 -3 -22 0 -20 7 6 17 59 13 71 -6 8 -13 5 -24 -12 -48 l-23 -30 23 0
c16 0 34 15 58 50 19 27 40 49 47 50 7 0 13 -19 15 -47 4 -56 16 -62 84 -42
47 14 61 35 19 26 -16 -3 -24 0 -22 7 2 6 17 11 33 11 24 0 30 -5 32 -27 4
-34 31 -37 57 -8 18 20 17 20 -8 20 -15 0 -27 5 -27 10 0 6 19 10 41 10 l41 0
-16 -25 c-9 -13 -16 -27 -16 -30 0 -3 230 -5 510 -5 l510 0 0 175 0 175 -1435
0 -1435 0 0 -175z"/>
<path d="M6890 175 l0 -175 555 0 554 0 -14 47 c-14 46 -13 66 3 47 5 -5 15
-29 22 -54 l14 -45 14 53 c17 61 38 68 47 14 11 -65 21 -69 35 -13 6 28 17 51
22 51 10 0 7 -23 -8 -77 -5 -17 -2 -23 10 -23 9 0 16 8 16 18 0 25 19 42 47
42 23 0 48 -33 38 -50 -3 -6 1 -10 9 -10 13 0 16 12 16 55 0 30 5 55 10 55 6
0 10 -13 10 -28 0 -26 3 -28 30 -24 27 4 31 1 36 -27 5 -22 12 -31 26 -31 17
0 18 3 8 15 -7 8 -10 22 -6 30 6 17 56 21 56 5 0 -5 -9 -10 -20 -10 -28 0 -25
-13 7 -27 39 -18 43 -17 43 17 0 17 5 30 10 30 6 0 10 -13 10 -30 0 -21 5 -30
16 -30 11 0 15 8 13 27 -3 44 0 63 11 63 6 0 10 -7 10 -15 0 -8 8 -15 18 -15
16 -1 16 -1 0 -14 -24 -18 -23 -46 2 -46 13 0 20 7 20 18 0 24 19 42 46 42 26
0 48 -24 40 -45 -5 -13 58 -15 544 -15 l550 0 0 175 0 175 -1435 0 -1435 0 0
-175z m1600 -75 c0 -5 -4 -10 -10 -10 -5 0 -10 5 -10 10 0 6 5 10 10 10 6 0
10 -4 10 -10z"/>
<path d="M9770 175 l0 -175 530 0 530 0 0 105 c0 157 -31 145 370 145 401 0
370 12 370 -145 l0 -105 530 0 530 0 0 175 0 175 -1430 0 -1430 0 0 -175z"/>
<path d="M12640 175 l0 -175 720 0 720 0 0 35 c0 26 -3 33 -15 29 -20 -8 -19
6 3 22 28 22 32 17 32 -36 l0 -50 705 0 705 0 0 175 0 175 -1435 0 -1435 0 0
-175z"/>
<path d="M15520 175 l0 -175 520 0 520 0 0 36 c0 56 15 74 60 74 29 0 40 -4
40 -15 0 -10 -10 -15 -30 -15 -28 0 -30 -2 -30 -40 0 -43 14 -54 24 -17 3 12
28 44 55 70 38 37 55 47 71 42 32 -10 24 -47 -20 -90 -22 -21 -37 -41 -35 -44
3 -2 12 4 20 15 14 18 16 18 29 1 12 -15 35 -17 225 -17 l211 0 0 43 c0 24 -5
48 -11 54 -19 19 -1 31 54 37 72 8 123 -4 119 -30 -2 -10 -6 -38 -9 -62 l-5
-42 531 0 531 0 0 175 0 175 -1435 0 -1435 0 0 -175z"/>
<path d="M5597 42 c-22 -24 -21 -32 3 -32 15 0 20 7 20 25 0 30 -2 30 -23 7z"/>
<path d="M8056 38 c-9 -34 -8 -38 9 -38 12 0 14 7 9 28 -9 36 -10 37 -18 10z"/>
<path d="M5037 34 c-16 -16 -6 -34 19 -34 19 0 25 5 22 17 -3 19 -29 29 -41
17z"/>
<path d="M5140 30 c0 -5 12 -10 26 -10 14 0 23 4 19 10 -3 6 -15 10 -26 10
-10 0 -19 -4 -19 -10z"/>
<path d="M8180 30 c0 -5 12 -10 26 -10 14 0 23 4 19 10 -3 6 -15 10 -26 10
-10 0 -19 -4 -19 -10z"/>
<path d="M8290 20 c0 -15 7 -20 25 -20 18 0 25 5 25 20 0 15 -7 20 -25 20 -18
0 -25 -5 -25 -20z"/>
<path d="M8600 30 c0 -5 12 -10 26 -10 14 0 23 4 19 10 -3 6 -15 10 -26 10
-10 0 -19 -4 -19 -10z"/>
</g>
</svg>
